<svg width="145" height="31" viewBox="0 0 145 31" fill="none" xmlns="http://www.w3.org/2000/svg">
<path d="M143.974 30.479C144.033 30.4789 144.091 30.4671 144.145 30.4443C144.199 30.4215 144.248 30.3882 144.289 30.3464C144.331 30.3045 144.363 30.2549 144.385 30.2004C144.407 30.1459 144.418 30.0876 144.417 30.0289V26.9292C144.418 26.8706 144.407 26.8125 144.385 26.7583C144.363 26.704 144.33 26.6546 144.289 26.613C144.248 26.5714 144.199 26.5384 144.144 26.5158C144.09 26.4933 144.032 26.4817 143.974 26.4817H139.877C138.216 26.5426 136.558 26.2915 134.99 25.7415C134.592 25.5623 134.241 25.2927 133.965 24.9542C133.746 24.6418 133.636 24.2659 133.651 23.8847V0.948031C133.652 0.890078 133.64 0.832627 133.618 0.778986C133.597 0.725345 133.564 0.676553 133.523 0.635452C133.482 0.59435 133.434 0.561752 133.38 0.539495C133.327 0.517238 133.269 0.505773 133.212 0.505774H124.105C124.048 0.505946 123.99 0.517521 123.937 0.539855C123.884 0.56219 123.835 0.594848 123.794 0.635932C123.754 0.677016 123.722 0.725711 123.7 0.779266C123.678 0.832822 123.667 0.890189 123.667 0.948031V23.1537C123.628 24.2126 123.895 25.2604 124.435 26.172C125.073 27.1088 125.924 27.881 126.918 28.4252C130.294 30.2822 136.427 30.4961 138.753 30.4816L143.974 30.479Z" fill="white"/>
<path d="M81.5707 0.500533C79.2426 0.48741 73.1102 0.703942 69.7323 2.55955C68.7368 3.1018 67.8851 3.87384 67.2481 4.81149C66.6777 5.81013 66.4114 6.95356 66.4817 8.10145V30.1483C66.5993 30.2651 66.7547 30.3358 66.92 30.3478H76.0249C76.0834 30.3481 76.1415 30.3368 76.1956 30.3145C76.2498 30.2922 76.2989 30.2593 76.3402 30.2178C76.3815 30.1762 76.4141 30.1269 76.4361 30.0726C76.4581 30.0183 76.4691 29.9602 76.4684 29.9016V12.4741H81.9381C81.9969 12.4737 82.0551 12.4618 82.1092 12.439C82.1634 12.4162 82.2125 12.383 82.2538 12.3412C82.2951 12.2994 82.3278 12.2498 82.3499 12.1954C82.3721 12.141 82.3834 12.0827 82.383 12.024V8.92032C82.3827 8.80232 82.3357 8.68922 82.2524 8.60566C82.1691 8.52209 82.0561 8.47483 81.9381 8.47414H76.4684V7.0949C76.4551 6.71331 76.5646 6.33754 76.7807 6.02276C77.0581 5.68415 77.4103 5.41459 77.8096 5.23536C79.3775 4.68525 81.0349 4.4346 82.6954 4.49651H86.7911C86.8497 4.49651 86.9078 4.48495 86.9619 4.46243C87.0161 4.4399 87.0653 4.4069 87.1066 4.36531C87.1479 4.32372 87.1806 4.27437 87.2028 4.22009C87.225 4.16581 87.2363 4.10769 87.236 4.04904V0.946715C87.236 0.828606 87.1891 0.715331 87.1057 0.631693C87.0223 0.548054 86.9092 0.500881 86.7911 0.500533H81.5707Z" fill="white"/>
<path d="M21.3867 30.3451C21.5043 30.3441 21.6168 30.2967 21.6996 30.2131C21.7824 30.1295 21.8289 30.0166 21.8289 29.899V4.56343H32.6844C32.8032 4.5617 32.9164 4.51294 32.9993 4.42782C33.0822 4.34271 33.128 4.22821 33.1266 4.1094V1.00971C33.1268 0.951463 33.1155 0.893748 33.0934 0.839867C33.0712 0.785985 33.0387 0.736962 32.9976 0.695651C32.9566 0.654341 32.9078 0.621544 32.854 0.599094C32.8003 0.576644 32.7426 0.564985 32.6844 0.564812H1.02741C0.90953 0.565159 0.796575 0.612136 0.71322 0.695491C0.629865 0.778846 0.582883 0.891831 0.582537 1.00971V4.1094C0.581487 4.22855 0.627728 4.34323 0.711122 4.42835C0.794516 4.51346 0.908259 4.56204 1.02741 4.56343H11.8593V29.9003C11.8596 30.0185 11.9067 30.1318 11.9903 30.2154C12.0739 30.299 12.1872 30.3461 12.3054 30.3465L21.3867 30.3451Z" fill="white"/>
<path d="M61.2469 30.3465C61.3654 30.3451 61.4787 30.2968 61.5618 30.2123C61.6449 30.1277 61.6912 30.0136 61.6905 29.895V26.7953C61.6908 26.6775 61.6445 26.5642 61.5616 26.4804C61.4788 26.3966 61.3661 26.3489 61.2482 26.3478H43.7603C42.0997 26.412 40.4419 26.1614 38.8745 25.609C38.4753 25.4315 38.124 25.1616 37.8496 24.8216C37.6315 24.5083 37.5218 24.1322 37.5373 23.7508V22.1012H46.4505C48.7786 22.1012 54.911 21.9779 58.2863 20.3099C59.253 19.8795 60.1046 19.2271 60.7718 18.4057C61.3656 17.4452 61.6808 16.3386 61.6821 15.2094C61.6835 14.0802 61.3711 12.9728 60.7797 12.0108C60.1156 11.1877 59.2643 10.5352 58.2968 10.108C54.9189 8.43607 48.7865 8.31402 46.461 8.31402H42.6356C40.3129 8.31402 34.1751 8.49515 30.7986 10.1683C29.824 10.6405 28.9736 11.3344 28.3157 12.1945C27.7834 12.9981 27.5155 13.9478 27.5493 14.911V23.739C27.5151 24.7039 27.783 25.6554 28.3157 26.4607C28.9736 27.3205 29.824 28.014 30.7986 28.4856C34.1765 30.1575 40.3129 30.3517 42.6356 30.3399L61.2469 30.3465ZM51.5581 15.5094C51.5735 15.8923 51.4624 16.2696 51.2418 16.5829C50.9681 16.9242 50.6161 17.1943 50.2156 17.3703C48.6477 17.9227 46.9897 18.1742 45.3285 18.1118H37.5215V14.6512C37.5065 14.2692 37.6166 13.8927 37.8352 13.5791C38.11 13.2389 38.4617 12.969 38.8614 12.7917C40.4298 12.2413 42.0876 11.9907 43.7485 12.0528H45.3233C46.9842 11.9908 48.642 12.2415 50.2103 12.7917C50.6093 12.9703 50.9607 13.24 51.2366 13.5791C51.4576 13.8916 51.5689 14.2687 51.5528 14.6512L51.5581 15.5094Z" fill="white"/>
<path d="M117.207 12.3586C116.549 11.4968 115.699 10.8015 114.724 10.3284C111.348 8.65784 105.212 8.46232 102.888 8.47413H87.6165C87.5581 8.4743 87.5003 8.48606 87.4465 8.50869C87.3926 8.53132 87.3438 8.56436 87.3028 8.60597C87.2618 8.64757 87.2294 8.69689 87.2076 8.75106C87.1858 8.80524 87.1749 8.86322 87.1756 8.92163V12.0252C87.1747 12.0838 87.1855 12.1419 87.2073 12.1962C87.229 12.2505 87.2613 12.3 87.3023 12.3417C87.3433 12.3835 87.3922 12.4167 87.4462 12.4394C87.5001 12.4621 87.558 12.4739 87.6165 12.4741H101.755C103.416 12.4105 105.074 12.6612 106.642 13.2129C107.043 13.3902 107.395 13.6601 107.671 14.0003C107.889 14.3128 107.999 14.6879 107.984 15.0685V16.5593H99.0678C96.7384 16.5593 90.6099 16.6774 87.2307 18.3519C86.2633 18.7781 85.4126 19.4307 84.7504 20.2548C84.1396 21.2369 83.8147 22.3698 83.8122 23.5263C83.8096 24.6828 84.1295 25.8172 84.736 26.8019C85.402 27.6233 86.2521 28.2761 87.2176 28.7074C90.5955 30.3766 96.7292 30.5 99.056 30.5H102.881C105.205 30.5 111.342 30.3176 114.717 28.6484C115.693 28.1767 116.543 27.4816 117.2 26.6195C117.733 25.815 118 24.8635 117.964 23.8991V15.0764C118 14.1124 117.733 13.1615 117.2 12.3573L117.207 12.3586ZM107.994 24.1681C108.008 24.551 107.897 24.928 107.679 25.2429C107.402 25.5805 107.052 25.8499 106.654 26.0303C105.087 26.5813 103.43 26.8324 101.77 26.7704H100.187C98.527 26.8331 96.8699 26.582 95.3028 26.0303C94.9028 25.8522 94.5503 25.5825 94.2739 25.2429C94.0538 24.929 93.9435 24.5511 93.9603 24.1681V23.1524C93.9437 22.7702 94.054 22.3932 94.2739 22.0802C94.549 21.7393 94.9018 21.4693 95.3028 21.2928C96.8701 20.7422 98.5271 20.4916 100.187 20.554H107.995L107.994 24.1681Z" fill="white"/>
</svg>
