<svg xmlns="http://www.w3.org/2000/svg" width="142" height="14" viewBox="0 0 71 7"><g><g><g><g><path fill="#d50006" d="M36.77 0a.57.57 0 0 1 .568.57v4.716a.57.57 0 0 1-.97.402.57.57 0 0 1-.168-.402V.57A.57.57 0 0 1 36.77 0z"/></g></g><g><g><path fill="#d50006" d="M44.257.185c.313.052.524.238.471.55a.573.573 0 0 1-.66.472 8.523 8.523 0 0 0-2.979-.117 2.195 2.195 0 0 0-1.61 1.054 1.999 1.999 0 0 0-.31.792c-.057.26-.018.532.108.766l.11-.082c.106.15.134.37.303.5.191.145.397.27.615.373a6.263 6.263 0 0 0 4.539.227.573.573 0 0 1 .738.334.438.438 0 0 1-.28.63 7.344 7.344 0 0 1-5.382-.24 4.548 4.548 0 0 1-.822-.5 3.192 3.192 0 0 1-.645-.66 2.109 2.109 0 0 1-.427-1.436c.053-.465.206-.913.448-1.314A3.41 3.41 0 0 1 40.89.13a9.274 9.274 0 0 1 3.37.053z"/></g></g><g><g><path fill="#d50006" d="M42.087 2.59H38.57v.84h3.517a.427.427 0 0 0 .431-.42.427.427 0 0 0-.43-.42z"/></g></g><g><g><path fill="#d50006" d="M47.432 1.727v3.56a.57.57 0 0 1-.57.57.537.537 0 0 1-.53-.57V2.083C46.176.73 47.54-.813 49.082.63a.592.592 0 0 1 .052.056l.03.04c.84 1.101 1.444 2.295 2.211 3.442l.007.014c.047.078.087.15.134.227.455.67 1.103.661 1.123-.175.016-.731.014-2.745-.047-3.593a.557.557 0 0 1 .569-.57.509.509 0 0 1 .491.57v2.988a2.905 2.905 0 0 1-.444 1.926 1.4 1.4 0 0 1-1.145.438 1.245 1.245 0 0 1-.226-.026c-.87-.182-2.581-3.222-2.88-3.654a23.661 23.661 0 0 0-.635-.882c-.502-.439-.893-.084-.894.286zm3.96 2.463c.044.08.069.168.072.259"/></g></g><g><g><path fill="#d50006" d="M27.78.379a.573.573 0 1 0-1.054.448 15.043 15.043 0 0 0 2.405 3.82 3.356 3.356 0 0 0 1.826 1.33c.625.075 1.161-.305 1.918-.98a8.096 8.096 0 0 0 1.57-2.053c.393-.671.748-1.365 1.061-2.078A.573.573 0 1 0 34.46.4a19.65 19.65 0 0 1-1.021 1.957c-.339.568-1.611 2.575-2.417 2.48-1-.12-2.717-3.222-3.246-4.458z"/></g></g><g><g><path fill="#d50006" d="M25.61 0a.57.57 0 0 1 .568.57v4.716a.57.57 0 0 1-.97.402.57.57 0 0 1-.168-.402V.57A.57.57 0 0 1 25.61 0z"/></g></g><g><g><path fill="#d50006" d="M1.442 1.359a.554.554 0 0 1-.71-.358.575.575 0 0 1 .395-.71 8.34 8.34 0 0 1 5.522.488c.52.29.966.695 1.302 1.185.262.428.379.928.335 1.427A2.581 2.581 0 0 1 6.92 5.385c-.408.232-.85.4-1.31.496-.43.092-.865.15-1.303.172a6.236 6.236 0 0 1-1.182-.008 3.758 3.758 0 0 1-1.208-.368c-.169-.081-.37-.235-.402-.402l-.016.044V2.072c.194-.561.982-.395.988 0l.075 2.646c-.124.537 1.351.349 1.67.328.38-.018.758-.066 1.13-.143a3.41 3.41 0 0 0 .982-.37 1.682 1.682 0 0 0 .806-1.245 1.431 1.431 0 0 0-.195-.832 2.34 2.34 0 0 0-.796-.806 6.003 6.003 0 0 0-4.712-.282z"/></g></g><g><g><path fill="#d50006" d="M16.67.379a.573.573 0 0 0-1.054.448 15.047 15.047 0 0 0 2.405 3.82 3.356 3.356 0 0 0 1.826 1.33c.625.075 1.161-.305 1.918-.98a8.095 8.095 0 0 0 1.57-2.053c.393-.671.748-1.365 1.061-2.078A.573.573 0 1 0 23.35.4a19.623 19.623 0 0 1-1.021 1.957c-.339.568-1.611 2.575-2.417 2.48-1-.12-2.717-3.222-3.246-4.458z"/></g></g><g><g><path fill="#d50006" d="M15.875 5.638a.573.573 0 1 0 1.055-.45 15.035 15.035 0 0 0-2.405-3.82A3.356 3.356 0 0 0 12.699.04c-.625-.075-1.161.305-1.918.98a8.096 8.096 0 0 0-1.57 2.053A20.147 20.147 0 0 0 8.15 5.15a.573.573 0 1 0 1.047.467c.303-.671.644-1.325 1.021-1.957.339-.568 1.611-2.576 2.417-2.48 1 .12 2.717 3.222 3.245 4.458z"/></g></g><g><g><path fill="#d50006" d="M55.192 1.359a.554.554 0 0 1-.71-.358.575.575 0 0 1 .395-.71 8.34 8.34 0 0 1 5.522.488c.52.29.966.695 1.302 1.185.262.428.379.928.335 1.427a2.58 2.58 0 0 1-1.366 1.994c-.408.232-.85.4-1.31.496a8.37 8.37 0 0 1-1.303.172 6.234 6.234 0 0 1-1.181-.008 3.758 3.758 0 0 1-1.209-.368c-.169-.081-.37-.235-.402-.402l-.016.044V2.072c.194-.561.982-.395.988 0l.075 2.646c-.124.537 1.352.349 1.671.328a7.34 7.34 0 0 0 1.129-.143c.345-.072.676-.197.983-.37a1.68 1.68 0 0 0 .798-1.245 1.43 1.43 0 0 0-.194-.832 2.341 2.341 0 0 0-.796-.806 6.003 6.003 0 0 0-4.712-.282z"/></g></g><g><g><path fill="#d50006" d="M62.941 5.638a.574.574 0 0 1-1.055-.45 15.043 15.043 0 0 1 2.405-3.82A3.356 3.356 0 0 1 66.117.04c.626-.075 1.161.305 1.918.98a8.095 8.095 0 0 1 1.57 2.053c.394.671.748 1.365 1.061 2.078a.573.573 0 0 1-1.047.467 19.643 19.643 0 0 0-1.021-1.957c-.338-.568-1.611-2.576-2.416-2.48-1 .12-2.717 3.222-3.246 4.458z"/></g></g></g></g></svg>