<svg xmlns="http://www.w3.org/2000/svg" width="106" height="40" viewBox="0 0 53 20"><g><g><g><path d="M42.06 7.088l-.007-1.079 1.087-.015v-1.35c.44-.175.891-.319 1.351-.43v1.8c.854 0 1.691-.009 2.522 0a1.473 1.473 0 0 1 1.585.958c.21.491 1.359 3.367 1.51 3.533l1.487-4.488h1.4l-2.114 5.843a7.742 7.742 0 0 1-1.329 2.6 2.783 2.783 0 0 1-3.057.46l.3-1.087c.612.136 1.322.59 2.084-.483.259-.372.446-.789.551-1.23l-2.2-5.028-2.74-.007v2.937c0 .48-.03.958.378 1.08.407.06.823-.029 1.17-.25l.438.914c-.989.642-2.688.74-3.178-.332a2 2 0 0 1-.144-.687l-.015-3.63zM27.739 6.016l.015-1.344a1.854 1.854 0 0 1 1-1.487 2.617 2.617 0 0 1 2.091.068l-.249 1.065c-1.532-.34-1.525-.053-1.525 1.7h1.668l-.431 1.064-1.238.007v5.013a6.55 6.55 0 0 1-1.336-.015v-4.99l-.672-.015-.415-1.057zm9.014 3.215a3.173 3.173 0 0 1 2.378-3.277 3.528 3.528 0 0 1 2.394.3v1.163c-.161-.068-.3-.166-.5-.257a2.392 2.392 0 0 0-1.812-.015c-1.366.626-1.464 3.14-.113 3.805a2.527 2.527 0 0 0 2.287-.2c.164.29.295.596.393.913-1.049.952-4.945 1.148-5.028-2.438zm-11.657-.789c-.038-.838-.438-1.532-1.276-1.517-.868.012-1.176.685-1.276 1.5zm1.191 3.217c-.6.4-1.31.604-2.031.582-3.708.045-3.813-4.779-1.7-6.047a2.761 2.761 0 0 1 2.144-.2c1.525.475 1.767 2.045 1.767 3.412h-3.9a1.777 1.777 0 0 0 2.31 1.721 8.215 8.215 0 0 0 1.035-.355l.377.891zm8.374-3.219c-.008-.807-.423-1.517-1.238-1.517-.845.007-1.223.694-1.291 1.517zm-3.892.876c-.1-1.782.692-3.472 2.7-3.45 2.053.016 2.589 1.76 2.589 3.541l-3.91.007a1.694 1.694 0 0 0 1.125 1.646c.753.186 1.548.081 2.227-.295l.377.951a8.362 8.362 0 0 1-1.057.416c-2.147.506-3.903-.558-4.047-2.816z"/></g><g><path fill="#ffb200" d="M11.695 0c5.308 0 8.8 4.269 7.792 9.542a12.141 12.141 0 0 1-11.436 9.542c-5.314 0-8.8-4.268-7.8-9.542A12.148 12.148 0 0 1 11.693 0zm2.535 1.236a6.583 6.583 0 0 1 3.922 7.174 8.867 8.867 0 0 1-.866 2.755 10.257 10.257 0 0 1-2.94 3.639 10.883 10.883 0 0 1-2.986 1.647.163.163 0 0 1-.127 0c.018-.312.03-.618.046-.93a4.939 4.939 0 0 0 1.491-.572 3.59 3.59 0 0 0 1.74-2.258c.16-.74.097-1.513-.18-2.218a4.394 4.394 0 0 0-1.807-1.808C11.56 8.146 10.594 7.62 9.63 7.1a2.087 2.087 0 0 1-.826-.82c-.214-.497 0-.814.45-1.028.36-.16.762-.207 1.15-.133.623.144 1.234.332 1.831.561.381.2 1.386-.36 1.363-1.7a5.3 5.3 0 0 0-2.484-1.04c.041-.583.076-1.166.116-1.75-.095-.248-.11-.265-.295-.375a11.171 11.171 0 0 0-9.877 8.727 7.033 7.033 0 0 0 4.233 8.225 6.74 6.74 0 0 1-3.73-6 9.3 9.3 0 0 1 2.864-6.631 10.19 10.19 0 0 1 4.32-2.715v.7A3.614 3.614 0 0 0 5.69 5.893a4.018 4.018 0 0 0 2.657 4.465c.803.391 2.576 1.026 2.946 1.8a.801.801 0 0 1-.353 1.126 3.92 3.92 0 0 1-3.136-.243c-.52-.252-.769-.529-1.294-.5-.439.041-.71.901-.75 1.271-.01.203-.036.722.19.832.462.31.953.572 1.467.785.445.141.904.238 1.368.289.041.012.075.041.07.133-.018.624-.04 1.254-.058 1.877.011.3.017.502.375.514a11.2 11.2 0 0 0 9.513-8.7 7.024 7.024 0 0 0-4.453-8.306z"/></g></g></g></svg>