<svg xmlns="http://www.w3.org/2000/svg" viewBox="0 0 34.47 34.47"><defs><style>.cls-1{fill:#020203;}</style></defs><title>Recurso 32</title><g id="Capa_2" data-name="Capa 2"><g id="Capa_1-2" data-name="Capa 1"><path class="cls-1" d="M33.53,14.84a13.45,13.45,0,0,0-2.93-4.22,9,9,0,0,0-5.47-2.33H25c-2.31,0-2.75,1-2.81,1.58-.11,1.17.73,1.85,2.51,2a5.35,5.35,0,0,1,4.52,3.77,7.26,7.26,0,0,1,.14,4.18,4.56,4.56,0,0,1-1.89,2.61l-.15-.17A33.75,33.75,0,0,0,24,19a24.77,24.77,0,0,1-4.3-5.11,13.43,13.43,0,0,1-1.45-3.15c-.21-.65-.39-1.36-.58-2.22a14.06,14.06,0,0,0-1.3-4A7.37,7.37,0,0,0,9.43,0,7.36,7.36,0,0,0,8.27.09c-2,.16-3.48,2.18-3.79,2.63A4.56,4.56,0,0,1,2,3.55a2.19,2.19,0,0,0-1.4.62A2.36,2.36,0,0,0,0,6,5.07,5.07,0,0,0,2,8.9a.1.1,0,0,1,.05,0,9.38,9.38,0,0,0,2.78.85,4,4,0,0,1,1.58.62c2,1.86.09,5.32,0,5.45a3.94,3.94,0,0,0-.29,3.83A5.44,5.44,0,0,0,7.06,21a5.55,5.55,0,0,1,.44.53,3.75,3.75,0,0,1,.58,1.27,14.44,14.44,0,0,1,.08,5.89A2.64,2.64,0,0,1,7.37,30L7.28,30c-.66.57-1.66,1.43-1.5,2.65s1.61,1.76,2.6,1.76a4.86,4.86,0,0,0,4.43-3c.67-1.53.19-4.37.09-4.92,0,0,0-.06,0-.08a8.73,8.73,0,0,1,.39-5l0,0A1.6,1.6,0,0,0,13.13,20a2.46,2.46,0,0,0-1.72-.87l-1.59-.19a.4.4,0,0,1-.21-.07,1,1,0,0,1,0-.62,3.16,3.16,0,0,0,1.08-1.1l.15-.23a2.05,2.05,0,0,1,.53-.49l1.4-.72a.68.68,0,0,0,.37-.55l0-.44c2.81,1.4,2.93,4.95,2.84,6.45A5.88,5.88,0,0,0,18.33,26a4.74,4.74,0,0,1,2.18,3.38v.9H19.1A3.54,3.54,0,0,0,16,33.76a.72.72,0,0,0,.2.5.71.71,0,0,0,.49.21H27.29a.73.73,0,0,0,.33-.08A5.27,5.27,0,0,0,30.35,29a1.5,1.5,0,0,1,.47-1.13A11.57,11.57,0,0,0,33.53,14.84ZM27.14,33.09H17.57a2.07,2.07,0,0,1,.57-.88,2.1,2.1,0,0,1,1.11-.51h2a.69.69,0,0,0,.69-.69V29.42c0-1.89-1.49-3.61-2.75-4.5a4.46,4.46,0,0,1-1.76-3.68c.11-2-.11-6.8-4.62-8.16a.66.66,0,0,0-.58.09.7.7,0,0,0-.3.51l-.1,1-1.07.55a3.41,3.41,0,0,0-1,.89c-.06.09-.12.18-.2.28-.22.33-.39.6-.74.72a.69.69,0,0,0-.41.41,2.61,2.61,0,0,0,.06,2.08,1.58,1.58,0,0,0,1.24.73l1.58.19h0a1.14,1.14,0,0,1,.69.27A.27.27,0,0,1,12,21a9.93,9.93,0,0,0-.42,5.89c.15.8.43,3.09,0,4.1a3.44,3.44,0,0,1-3.15,2.1c-.55,0-1.2-.33-1.23-.57-.07-.47.59-1,1-1.41L8.3,31a4.1,4.1,0,0,0,1.25-2.14,15.69,15.69,0,0,0-.11-6.48,5.3,5.3,0,0,0-.8-1.72,8.3,8.3,0,0,0-.54-.64,4.58,4.58,0,0,1-.69-.9,2.54,2.54,0,0,1,.21-2.54c.11-.18,2.57-4.54-.24-7.19a5.22,5.22,0,0,0-2.28-1,8.87,8.87,0,0,1-2.31-.67A3.75,3.75,0,0,1,1.41,5.93a.67.67,0,0,0,.66-.29A.69.69,0,0,0,2.13,5,5.8,5.8,0,0,0,5.47,3.72a.53.53,0,0,0,.12-.14A5.87,5.87,0,0,1,7.73,1.66c.32.24,1.2,1.17.47,3.59-.39,1.28-.79,3.64.89,5a3,3,0,0,0,1.84.64,4.17,4.17,0,0,0,.61,0A3.61,3.61,0,0,0,14,9.39c1.22-1.81.16-4.07-.35-5.15l-.26-.58,0,0c-.18-.44-.37-.87-.59-1.29a6.22,6.22,0,0,1,2.41,2.83.41.41,0,0,0,.05.09,13.12,13.12,0,0,1,1.14,3.62c.2.92.4,1.66.61,2.34a14.66,14.66,0,0,0,1.59,3.46,25.93,25.93,0,0,0,4.56,5.41,34.09,34.09,0,0,1,3.18,3.18,9.18,9.18,0,0,1,.9,1.39.69.69,0,0,0,.93.31.66.66,0,0,0,.35-.4.65.65,0,0,0,0-.53,3.72,3.72,0,0,0-.21-.39,5.87,5.87,0,0,0,2.46-3.4,8.62,8.62,0,0,0-.16-5,6.72,6.72,0,0,0-5.7-4.72c-1.31-.13-1.29-.39-1.27-.52S24,9.69,25,9.69h.12a7.7,7.7,0,0,1,4.59,2,12.1,12.1,0,0,1,2.58,3.75,10.28,10.28,0,0,1-2.34,11.39h0A2.88,2.88,0,0,0,29,29.09,3.94,3.94,0,0,1,27.14,33.09Zm-15-28.95c.1.25.2.47.29.67.64,1.36,1.14,2.77.46,3.78a2.22,2.22,0,0,1-1.5.86A1.78,1.78,0,0,1,10,9.15c-1-.84-.71-2.56-.43-3.51a5.06,5.06,0,0,0-.21-4.23c.28,0,.7,0,.91,0l.06,0C11.1,1.81,11.67,3.16,12.09,4.14Z"/></g></g></svg>