<svg xmlns="http://www.w3.org/2000/svg" width="70" height="22" viewBox="0 0 35 11"><g><g><g/><g><path fill="#142688" d="M30.223 2.763a17.187 17.187 0 0 0-1.314 3.941h2.5a29.05 29.05 0 0 0-.792-3.94zm1.971 7.753c-.131 0-.131 0-.263-.13l-.263-1.182-.131-.263h-3.154c-.131 0-.263 0-.263.263l-.394 1.183a.128.128 0 0 1-.08.122.13.13 0 0 1-.051.01h-2.76l.263-.658L28.909.924c0-.657.394-.92 1.051-.92h1.971c.131 0 .263 0 .263.263l1.84 8.541c.15.468.24.954.263 1.445.13.132.13.132.13.263zm-15.374-.394l.526-2.365c.1.014.192.06.263.131a5.188 5.188 0 0 0 2.759.526c.321-.026.634-.115.92-.263.657-.263.657-.92.131-1.445a7.339 7.339 0 0 0-1.051-.657 5.427 5.427 0 0 1-1.445-.92 2.685 2.685 0 0 1-.131-4.073C19.579.53 19.973.004 21.024.004a17.45 17.45 0 0 1 4.073.263h.131c-.113.76-.29 1.508-.528 2.237a5.507 5.507 0 0 0-1.971-.526 3.638 3.638 0 0 0-1.183.131.683.683 0 0 0-.526.263.635.635 0 0 0 0 .92l.657.526c.496.235.979.498 1.445.788a2.9 2.9 0 0 1 1.445 1.84 2.823 2.823 0 0 1-1.183 3.022 2.385 2.385 0 0 1-1.84.788c-1.494.131-3 .043-4.468-.263-.131.263-.131.263-.263.131zm-4.6.394c.032-.447.12-.889.263-1.314.657-2.89 1.314-5.913 1.84-8.8.131-.263.131-.394.394-.394h2.365a39.5 39.5 0 0 1-.92 4.2c-.394 1.971-.788 3.942-1.314 5.913 0 .263-.131.263-.394.263zM0 .267C0 .135.263.004.394.004h4.468a1.28 1.28 0 0 1 1.314 1.051l1.183 5.782c0 .131 0 .131.131.263a.129.129 0 0 1 .131-.13L10.38.27c-.131-.132 0-.264.131-.264h2.759c0 .131 0 .131-.131.263L9.066 9.861c-.131.263-.131.394-.263.526s-.394 0-.657 0h-1.97c-.131 0-.263 0-.263-.263l-2.1-8.147A2.672 2.672 0 0 0 2.63 1.19 8.746 8.746 0 0 0 .13.532z"/></g></g></g></svg>