<svg width="146" height="33" viewBox="0 0 146 33" fill="none" xmlns="http://www.w3.org/2000/svg">
<path d="M17.8775 1.36051L6.94806 14.6847V1.36051H0.899994V32.3069H6.94806V17.9697H7.04016L17.9083 32.3069H25.8291L12.904 15.9741L25.3071 1.36051H17.8775Z" fill="#ABABAB"/>
<path d="M53.2142 10.8778C53.2142 5.59723 49.0696 1.32981 43.9119 1.32981H31.1403V32.2762H37.1884V17.9083L48.1486 32.2762H56.0694L45.9688 19.8731C49.8985 18.7679 53.2142 15.268 53.2142 10.8778ZM42.1005 16.2504H37.1884V6.24194H42.1005C44.8022 6.24194 46.9512 8.4831 46.9512 11.2462C46.9819 14.0093 44.8022 16.2504 42.1005 16.2504Z" fill="#ABABAB"/>
<path d="M107.34 1.36051H94.6296V32.3069H100.708L100.739 20.4564H107.34C112.497 20.4564 116.673 16.189 116.673 10.9085C116.642 5.62793 112.497 1.36051 107.34 1.36051ZM105.59 16.2504H100.708V6.24194L105.59 6.27264C108.353 6.27264 110.563 8.5445 110.563 11.369C110.533 14.1628 108.353 16.2504 105.59 16.2504Z" fill="#ABABAB"/>
<path d="M79.5248 21.9915C79.5248 25.3993 76.8231 28.193 73.4767 28.193C70.1303 28.193 67.4287 25.43 67.4287 21.9915V1.36051H61.3806V21.1318C61.3806 29.4211 65.8936 32.8289 73.4767 32.8289C81.0598 32.8289 85.5729 29.4211 85.5729 21.1318V1.36051H79.5248V21.9915Z" fill="#ABABAB"/>
<path d="M129.598 10.0795C129.598 6.70246 132.269 5.78143 134.356 5.78143C136.475 5.78143 138.808 6.33405 140.712 7.16297V1.94383C138.501 1.17631 136.413 0.900002 133.835 0.900002C128.523 0.900002 123.304 3.41747 123.304 10.3252C123.304 20.5485 136.536 18.1232 136.536 24.0177C136.536 26.8115 133.466 28.0088 131.164 28.0088C128.8 28.0088 125.576 27.3641 123.181 26.351V31.4473C126.129 32.4297 128.216 32.8903 131.501 32.8903C137.58 32.8903 142.83 30.3114 142.83 23.5572C142.799 13.1803 129.598 15.4215 129.598 10.0795Z" fill="#ABABAB"/>
<path d="M143.812 2.92626H144.242C144.457 2.92626 144.672 2.95696 144.672 3.23327C144.672 3.57098 144.426 3.57098 144.15 3.57098H143.812V2.92626ZM143.505 4.73761H143.812V3.84728H144.15L144.703 4.73761H145.04L144.457 3.81658C144.764 3.78588 144.979 3.63238 144.979 3.26397C144.979 2.86486 144.733 2.68065 144.273 2.68065H143.505V4.73761ZM142.738 3.69378C142.738 2.83416 143.352 2.18944 144.181 2.18944C144.979 2.18944 145.593 2.83416 145.593 3.69378C145.593 4.5534 144.979 5.19812 144.181 5.19812C143.383 5.22882 142.738 4.5534 142.738 3.69378ZM142.431 3.69378C142.431 4.70691 143.229 5.47443 144.181 5.47443C145.132 5.47443 145.9 4.70691 145.9 3.69378C145.9 2.68065 145.102 1.94383 144.181 1.94383C143.229 1.94383 142.431 2.71135 142.431 3.69378Z" fill="#ABABAB"/>
</svg>
