<svg xmlns="http://www.w3.org/2000/svg" width="50" height="48" viewBox="0 0 25 24"><defs><radialGradient id="tu3ma" cx="4.25" cy="-560.59" r="22.07" gradientUnits="userSpaceOnUse"><stop offset="0" stop-color="#9dd5f6"/><stop offset=".07" stop-color="#98d3f5"/><stop offset=".16" stop-color="#89cef3"/><stop offset=".25" stop-color="#70c6ef"/><stop offset=".35" stop-color="#4ebbea"/><stop offset=".46" stop-color="#23ade3"/><stop offset=".5" stop-color="#0da6e0"/><stop offset="1" stop-color="#2e77bc"/></radialGradient></defs><g><g><g><path fill="url(#tu3ma)" d="M23.939 0H.43v23.59h23.509v-7.785a.892.892 0 0 0 .139-.519.807.807 0 0 0-.139-.517"/></g><g><path fill="#fff" d="M2.549 10.212l-.452-1.1-.45 1.1zm9.962-.438a.282.282 0 0 0 .139-.264.253.253 0 0 0-.139-.244.676.676 0 0 0-.313-.05h-.814v.614h.8a.613.613 0 0 0 .327-.057zm5.725.438l-.457-1.1-.455 1.1zm-11.35 1.193V9.24l-.958 2.165h-.58l-.96-2.167v2.167H3.04l-.254-.617H1.41l-.256.617H.44L1.623 8.64h.982l1.124 2.617V8.64h1.078l.865 1.875.794-1.875h1.1v2.764zm3.377 0H8.056V8.64h2.207v.576H8.717v.5h1.509v.567H8.717v.552h1.546zm2.992-1.58a.778.778 0 0 1-.346.297c.128.047.24.128.327.233a.8.8 0 0 1 .109.507v.543h-.666v-.35a.83.83 0 0 0-.1-.538.646.646 0 0 0-.481-.118h-.709v1.005h-.661V8.64h1.52c.274-.028.55.018.8.132a.645.645 0 0 1 .327.614.779.779 0 0 1-.12.439zm1.177 1.58h-.674V8.64h.674zm6.885 0L20.065 9.33v2.075H18.72l-.257-.617h-1.372l-.25.617h-.773a1.17 1.17 0 0 1-1.311-1.361 1.472 1.472 0 0 1 .356-1.081 1.34 1.34 0 0 1 1-.322h.64v.592h-.626a.636.636 0 0 0-.508.164.912.912 0 0 0-.19.626.958.958 0 0 0 .182.649.637.637 0 0 0 .46.143h.3l.931-2.174h.99l1.119 2.614V8.64h1.006l1.161 1.925V8.64h.677v2.764zm-19.757.543l.255-.614h.57l.254.614H4.86v-.47l.2.472h1.153l.2-.478v.476h5.52V10.94h.107c.075 0 .1.01.1.133v.875h2.855v-.235c.329.163.693.244 1.06.235h1.2l.257-.614h.57l.251.614h2.307v-.583l.351.583h1.849V8.093h-1.836v.455l-.257-.455h-1.883v.455l-.236-.455h-2.544c-.38-.018-.758.06-1.1.225v-.225h-1.756v.225a1.088 1.088 0 0 0-.746-.225H6.068l-.43 1-.442-1h-2.02v.455l-.222-.455H1.23l-.8 1.833v2.022z"/></g><g><path fill="#fff" d="M23.936 14.772a.355.355 0 0 0-.061-.068 1.043 1.043 0 0 0-.75-.223l-.358-.01a.753.753 0 0 1-.255-.03.209.209 0 0 1-.145-.207.214.214 0 0 1 .1-.2.457.457 0 0 1 .267-.05h1.2zm0 1.036l-.001.002v-.005zm-.001.002v.714c-.306.13-.637.19-.969.178h-1.712v-.247c-.267.174-.582.26-.9.247h-5.4v-.892c0-.114-.011-.114-.12-.114h-.086v1.005h-1.776v-1.04a2.246 2.246 0 0 1-.92.135h-.212v.907H9.686l-.53-.6-.562.6H5.1v-3.858h3.561l.511.59.546-.59h2.384c.327-.027.654.052.931.226v-.226h2.13c.312-.007.62.072.891.226v-.226h3.23v.226c.23-.161.508-.241.789-.226h1.809v.226c.245-.16.534-.24.827-.226h1.223v.55h-1.316c-.693 0-.948.423-.948.823 0 .875.774.835 1.394.856a.335.335 0 0 1 .233.061.228.228 0 0 1 .081.183.244.244 0 0 1-.078.18.375.375 0 0 1-.267.07H21.76v.594h1.276a1.03 1.03 0 0 0 .899-.352zm-2.636-1.107a1.065 1.065 0 0 0-.75-.229l-.356-.01a.76.76 0 0 1-.257-.03.232.232 0 0 1-.045-.4.447.447 0 0 1 .265-.05h1.212v-.589h-1.325c-.693 0-.945.423-.945.823 0 .875.774.835 1.392.856a.348.348 0 0 1 .235.061.238.238 0 0 1 .081.183.245.245 0 0 1-.078.18.388.388 0 0 1-.27.07h-1.282v.598h1.287c.666 0 1.038-.277 1.038-.872a.77.77 0 0 0-.2-.586zm-5.959-.166a.633.633 0 0 1-.326.057h-.8v-.627h.814a.65.65 0 0 1 .315.05.262.262 0 0 1 .137.25.3.3 0 0 1-.143.266zm.396.34a.774.774 0 0 0 .468-.737.647.647 0 0 0-.34-.614 1.636 1.636 0 0 0-.795-.13h-1.525v2.765h.668v-1.01h.706a.64.64 0 0 1 .485.123c.123.128.107.375.107.541v.347h.663v-.549a.8.8 0 0 0-.109-.5.718.718 0 0 0-.324-.231zm.839 1.285h2.205v-.574h-1.547v-.55h1.509v-.565h-1.509v-.5h1.547v-.572h-2.205zm-4.457-1.485h-.854v-.7h.861c.239 0 .4.1.4.34 0 .238-.158.35-.412.35zm-1.512 1.237l-1.014-1.126 1.014-1.09zm-2.62-.325H6.362v-.55h1.45v-.572h-1.45v-.5h1.656l.723.806zm5.248-1.282c0-.766-.59-.91-1.109-.907h-2.111l-.84.906-.813-.906H5.704v2.765h2.617l.845-.915.813.915h1.284v-.927h.824c.578 0 1.151-.159 1.151-.927z"/></g></g></g></svg>