<?xml version="1.0" encoding="utf-8"?>
<!-- Generator: Adobe Illustrator 26.5.0, SVG Export Plug-In . SVG Version: 6.00 Build 0)  -->
<svg version="1.1" id="Capa_1" xmlns="http://www.w3.org/2000/svg" xmlns:xlink="http://www.w3.org/1999/xlink" x="0px" y="0px"
	 viewBox="0 0 45.8 31.9" style="enable-background:new 0 0 45.8 31.9;" xml:space="preserve">
<g id="D351U3_00000044858642278054143030000016478474297148189103_">
	<g>
		<path d="M6,10.9c0.7,0,1.4,0,2.1,0c1,0,1.2-0.2,1.2-1.3c0-2.4,0-4.8,0-7.3c0-1.1,0.7-1.9,1.7-2.2c0.2,0,0.4,0,0.6,0
			c7.5,0,15,0,22.6,0c1.4,0,2.3,0.9,2.3,2.3c0,2.3,0,4.5,0,6.8c0,0.5,0.1,1.1,0.2,1.6c1.2,0,2.3,0,3.4,0l1.4,0c1.1,0,2.2,0,3.3,0
			c0.4,0,0.8,0.1,1,0.4c0,3,0,6.1,0,9.1c-0.3,0.3-0.6,0.4-1,0.4c-1.3,0-2.6,0-3.9,0c-0.2,0-0.3,0-0.5,0c0,0.1,0,0.1,0,0.1
			c0.5,1,0.4,2,0.4,3c0,1.2,0,2.5,0,3.7c0,0.4,0,0.8-0.4,0.9c-0.3,0.1-0.6-0.1-0.9-0.1c-0.1,0.2-0.2,0.6-0.4,0.8
			c-0.3,0.2-0.7,0.1-1.1,0.2c0,0.3,0,0.7,0,1.1c0,0.8-0.2,1-1,1c-8.3,0-16.6,0-24.9,0c-1.1,0-2.2,0-3.3,0c-0.6,0-0.9-0.2-0.9-0.9
			c0-0.4,0-0.8,0-1.2c-0.4-0.1-0.8,0-1.1-0.2c-0.2-0.2-0.3-0.6-0.5-0.9c0,0-0.1,0.1-0.2,0.1c-0.2,0.1-0.5,0.2-0.7,0.1
			C5.2,28.6,5,28.3,5,28.1c0-1.9,0-3.8,0-5.7c0-0.5,0.3-1,0.4-1.5c-0.9,0-1.9,0-2.8,0c-0.6,0-1.2,0-1.7,0C0.2,20.9,0,20.7,0,20
			c0-2.7,0-5.5,0-8.2C0,11.2,0.2,11,0.9,11c1.1,0,2.2,0,3.4,0L6,10.9z M39.1,21.7c0-0.1-0.1-0.2-0.1-0.3c-0.8-2.2-1.6-4.4-2.3-6.6
			c-0.1-0.3-0.3-0.3-0.5-0.3c-8.9,0-17.7,0-26.6,0c-0.3,0-0.5,0.1-0.6,0.4c-0.7,2.1-1.5,4.2-2.2,6.4c0,0.1-0.1,0.3-0.1,0.5
			c0.3,0,0.5,0,0.6,0c8.1,0,16.3,0,24.4,0c0.2,0,0.4,0,0.6,0c0.3,0.1,0.6,0.3,0.5,0.6c0,0.2-0.3,0.5-0.5,0.6
			c-0.1,0.1-0.4,0.1-0.6,0.1c-8.3,0-16.6,0-24.9,0c-0.2,0-0.4,0-0.5,0c0,1.1,0,2.2,0,3.4c0.5-0.5,1-1,1.4-1.4
			c0.3-0.4,0.7-0.5,1.2-0.5c9.3,0,18.6,0,27.9,0c0.5,0,0.9,0.1,1.2,0.5c0.4,0.5,0.9,0.9,1.4,1.4c0-1.2,0-2.3,0-3.4
			c-0.2,0-0.4,0-0.5,0c-1.4,0-2.8,0-4.2,0c-0.2,0-0.4,0-0.5-0.1c-0.3-0.1-0.5-0.3-0.5-0.7c0-0.3,0.2-0.5,0.5-0.6c0.2,0,0.4,0,0.6,0
			C36.2,21.7,37.7,21.7,39.1,21.7z M38,28.2c0-0.2,0-0.4,0-0.5c0-0.9-0.7-1.7-1.7-1.7c-8.9,0-17.7,0-26.6,0c-0.6,0-1.1,0.2-1.5,0.6
			c-0.4,0.5-0.5,1-0.4,1.6C17.9,28.2,27.9,28.2,38,28.2z M36.1,13.2c-0.2-0.6-0.5-1.2-0.6-1.8c-0.1-0.3-0.2-0.4-0.6-0.4
			c-1.4,0-2.7,0-4.1,0c-0.2,0-0.5,0.1-0.7,0.3c-1.1,1.2-2,1.1-2.9,0c-0.2-0.2-0.4-0.3-0.7-0.3c-2,0-4.1,0-6.1,0
			c-0.9,0-1.6,0.1-2.2,0.8c-0.5,0.6-1.3,0.5-1.9,0c-0.2-0.2-0.5-0.4-0.7-0.6c-0.1-0.1-0.3-0.2-0.5-0.2c-1.4,0-2.8,0-4.2,0
			c-0.1,0-0.3,0.1-0.3,0.1c-0.3,0.7-0.5,1.4-0.8,2.1C18.5,13.2,27.3,13.2,36.1,13.2z M22.9,4.2c0.4-1.3,1.1-1.9,2.5-1.9
			c2.2,0,4.4,0,6.7,0c1.4,0,2.3,0.9,2.3,2.3c0,1.6,0,3.2,0,4.8c0.2,0,0.5,0,0.8,0c0-0.2,0-0.3,0-0.4c0-2.1,0-4.3,0-6.4
			c0-0.8-0.3-1.1-1.1-1.1c-7.4,0-14.9,0-22.3,0c-0.9,0-1.1,0.3-1.1,1.1c0,2.1,0,4.2,0,6.4c0,0.1,0,0.3,0,0.5c0.3,0,0.6,0,0.8,0
			c0-0.3-0.1-0.6-0.1-0.9c0-1.3,0-2.6,0-3.9c0-1.5,0.9-2.3,2.4-2.3c2.2,0,4.5,0,6.7,0c0.2,0,0.5,0,0.7,0.1
			C22.2,2.6,22.7,3.3,22.9,4.2z M20.4,9.5c0.9,0.1,1.1-0.2,1.1-1c0-1.3,0-2.6,0-3.9c0-0.6-0.3-0.9-0.9-0.9c-2.3,0-4.6,0-6.9,0
			c-0.6,0-0.9,0.3-0.9,0.9c0,1.4,0,2.7,0,4.1c0,0.7,0.4,0.9,1.1,0.8c-0.4-0.8-0.2-1.4,0.4-2C15,6.9,15.5,6.3,16,5.8
			c0.7-0.7,1.5-0.7,2.3,0c0.6,0.5,1.1,1.1,1.6,1.6C20.6,8,20.8,8.7,20.4,9.5z M31.8,9.5C32.7,9.6,33,9.3,33,8.6c0-1.3,0-2.7,0-4
			c0-0.6-0.3-0.9-0.9-0.9c-2.3,0-4.6,0-6.9,0c-0.6,0-0.9,0.3-0.9,0.9c0,1.3,0,2.6,0,3.9c0,0.8,0.3,1.1,1.1,1
			c-0.4-1.1-0.3-1.3,0.5-2.2c0.5-0.5,1.1-1.1,1.6-1.6c0.7-0.7,1.5-0.6,2.1,0c0.6,0.5,1.1,1.1,1.7,1.6C32,8,32.3,8.6,31.8,9.5z
			 M36.6,29.6c-9.1,0-18.2,0-27.3,0c0,0.3,0,0.5,0,0.7c9.1,0,18.2,0,27.3,0C36.6,30.1,36.6,29.8,36.6,29.6z M8.5,12.4
			c-2.4,0-4.8,0-7.1,0c0,1,0,1.9,0,2.9c2,0,4,0,5.9,0c0.1,0,0.2-0.1,0.3-0.2C7.9,14.2,8.2,13.3,8.5,12.4z M44.5,12.4
			c-2.4,0-4.8,0-7.1,0c0.3,0.8,0.6,1.6,0.8,2.4c0.1,0.4,0.3,0.5,0.7,0.5c1.7,0,3.4,0,5.1,0c0.2,0,0.3,0,0.5,0
			C44.5,14.3,44.5,13.3,44.5,12.4z M7,16.7c-1.9,0-3.7,0-5.6,0c0,1,0,1.9,0,2.9c1.5,0,2.9,0,4.4,0c0.1,0,0.2-0.1,0.3-0.2
			C6.4,18.5,6.7,17.6,7,16.7z M38.8,16.7c0.3,0.9,0.6,1.7,0.9,2.5c0.1,0.3,0.2,0.4,0.5,0.4c1.3,0,2.6,0,3.8,0c0.1,0,0.3,0,0.4,0
			c0-1,0-1.9,0-2.9C42.6,16.7,40.7,16.7,38.8,16.7z M15.2,8.6c0.7,0.7,1.3,1.3,2,2c0.6-0.6,1.3-1.3,1.9-1.9c-0.7-0.7-1.4-1.3-2-2
			C16.5,7.3,15.8,8,15.2,8.6z M28.7,6.7c-0.7,0.7-1.3,1.3-1.9,2c0.7,0.7,1.3,1.3,2,2c0.6-0.6,1.3-1.3,1.9-1.9
			C30,8,29.3,7.3,28.7,6.7z"/>
		<path d="M5,13.1c0.3,0,0.6,0,0.9,0.1c0.3,0.1,0.5,0.3,0.5,0.6c0,0.3-0.2,0.6-0.5,0.6c-0.6,0-1.2,0.1-1.8,0c-0.2,0-0.4-0.4-0.5-0.6
			c-0.1-0.3,0.1-0.6,0.5-0.7C4.4,13.1,4.7,13.1,5,13.1z"/>
		<path d="M40.8,14.5c-0.3,0-0.6,0-0.9-0.1c-0.3-0.1-0.5-0.3-0.5-0.6c0-0.3,0.1-0.6,0.5-0.7c0.6,0,1.2-0.1,1.8,0
			c0.2,0,0.4,0.4,0.5,0.6c0.1,0.3-0.2,0.6-0.5,0.6C41.4,14.5,41.1,14.5,40.8,14.5z"/>
	</g>
</g>
</svg>
