<svg xmlns="http://www.w3.org/2000/svg" width="104" height="46" viewBox="0 0 104 46"><g><g><path fill="#1d1d1b" d="M41.803 4.787s-8.073-.858-6.776 9.297l1.215 9.406s2.374 12.96-13.553 13.562l-.009-4.776s10.347.274 8.995-8.621l-1.269-9.516S27.986.22 41.803.02z"/></g><g><path fill="#1d1d1b" d="M21.498 32.247H18.51c-6.785 0-12.42-4.914-13.552-11.37h16.548V16.09H4.968C6.1 9.635 11.744 4.785 18.52 4.785h2.987V0s-1.991.01-3.023.01C8.274.01 0 8.282 0 18.492s8.274 18.548 18.484 18.548c1.032 0 3.023.01 3.023.01v-4.804z"/></g><g><path fill="#1d1d1b" d="M63.32.01H43v4.776h7.763v32.247h4.785V4.786h7.772z"/></g><g><path fill="#1d1d1b" d="M78.63 32.33l-5.389-4.904-1.123-1.014-.447-.411-2.293-2.082h-.073V37.05H64.52V.01h4.575c7.279 0 13.343 5.342 13.343 11.927 0 4.648-3.096 8.676-7.407 10.648l7.763 7.124s-.868.602-1.9 1.232c-.758.457-2.274 1.38-2.264 1.389zm-9.343-13.197c4.767-.009 8.365-2.886 8.365-7.205 0-4.31-3.607-7.142-8.365-7.142z"/></g><g><path fill="#1d1d1b" d="M93.813.01C88.187.01 83.63 4.549 83.63 10.056V29.16l4.776-3.47v-.96a6.588 6.588 0 0 1-1.223-3.826c0-1.425.456-2.749 1.223-3.827v-7.013c0-3.014 2.338-5.26 5.407-5.26 3.068 0 5.388 2.264 5.388 5.26v7.06a6.576 6.576 0 0 1 1.196 3.78 6.51 6.51 0 0 1-1.196 3.78v12.348h4.803V10.056C104.004 4.54 99.438.01 93.813.01z"/></g><g><path fill="#e1251b" d="M98.422 18.114a5.396 5.396 0 0 0-4.64-2.594 5.379 5.379 0 0 0-5.35 5.416 5.38 5.38 0 0 0 2.328 4.401c-14.393 11.89-32.904 18.685-52.813 17.845C24.23 42.598 11.5 38.114.55 30.963c12.703 9.215 28.036 14.804 44.53 14.712 20.036-.11 38.283-7.881 52.11-20.575a5.343 5.343 0 0 0 2.01-4.22 5.478 5.478 0 0 0-.778-2.766z"/></g></g></svg>