<svg xmlns="http://www.w3.org/2000/svg" width="48" height="48" viewBox="0 0 48 48"><g><g><g/><g><path fill="#f3f3f3" d="M20.38 29.336V18.67l9.38 5.333z"/></g><g><path fill="#1d1d1b" d="M32.351 36.75c-2.512 1.5-5.41 2.25-8.308 2.25-2.705 0-5.41-.75-7.922-2.063l-.58-.374-5.796 1.5 1.545-5.626-.386-.562c-4.637-6.938-2.319-16.313 4.83-20.625 7.343-4.313 16.81-2.25 21.448 4.687 4.444 7.125 2.318 16.313-4.83 20.813zm.966-8.25c-.193-.188-.58-.375-.966-.563l-3.091-1.5c-.387-.187-.58-.187-.966.188-.387.375-1.353 1.312-1.546 1.687-.193.375-.58.375-.966.188-1.353-.563-2.512-1.313-3.671-2.25a21.738 21.738 0 0 1-2.705-3.188c-.194-.375 0-.75.386-.937.193-.188.387-.563.58-.75.193-.188.386-.563.193-.938.193-.187.193-.562 0-.75 0-.187-.966-2.437-1.353-3.375-.193-.75-.58-.75-.966-.75h-.966c-.386 0-.773.188-1.16.563-.965.937-1.545 2.25-1.545 3.75.193 1.687.773 3.375 1.932 4.687 1.933 2.813 4.638 5.25 7.922 6.75 3.865 1.5 4.83 1.125 5.604 1.125 1.352-.187 2.318-.937 3.091-2.062.386-.563.386-1.313.193-1.875z"/></g></g></g></svg>