<svg width="49" height="48" viewBox="0 0 49 48" fill="none" xmlns="http://www.w3.org/2000/svg">
<path d="M41.2494 15.3105C41.0465 14.5475 40.6466 13.8511 40.0897 13.291C39.5328 12.731 38.8385 12.3269 38.0762 12.1192C35.27 11.3652 24.0536 11.3652 24.0536 11.3652C24.0536 11.3652 12.8373 11.3652 10.0311 12.1192C9.26884 12.3269 8.57452 12.731 8.01763 13.291C7.46074 13.8511 7.06082 14.5475 6.8579 15.3105C6.10742 18.1268 6.10742 23.9999 6.10742 23.9999C6.10742 23.9999 6.10742 29.8729 6.8579 32.6893C7.06082 33.4523 7.46074 34.1487 8.01763 34.7087C8.57452 35.2688 9.26884 35.6729 10.0311 35.8805C12.8373 36.6345 24.0536 36.6345 24.0536 36.6345C24.0536 36.6345 35.27 36.6345 38.0762 35.8805C38.8385 35.6729 39.5328 35.2688 40.0897 34.7087C40.6466 34.1487 41.0465 33.4523 41.2494 32.6893C41.9999 29.8729 41.9999 23.9999 41.9999 23.9999C41.9999 23.9999 41.9999 18.1268 41.2494 15.3105Z" fill="#1F201E"/>
<path d="M20.3818 29.3331V18.667L29.7628 24L20.3818 29.3331Z" fill="#F3F3F3"/>
</svg>
