<svg width="44" height="44" viewBox="0 0 44 44" fill="none" xmlns="http://www.w3.org/2000/svg">
<path d="M22 0C17.6488 0 13.3953 1.29018 9.7774 3.70757C6.15951 6.12497 3.33967 9.561 1.67454 13.581C0.00940595 17.601 -0.426263 22.0243 0.422614 26.2919C1.27149 30.5595 3.36679 34.4796 6.44355 37.5563C9.52032 40.6331 13.4404 42.7284 17.7079 43.5773C21.9755 44.4261 26.3991 43.9905 30.4191 42.3253C34.439 40.6602 37.875 37.8404 40.2924 34.2225C42.7098 30.6046 44 26.3512 44 22C43.9984 16.1657 41.68 10.5709 37.5546 6.44548C33.4291 2.32003 27.8342 0.00167195 22 0ZM22 2.83831C25.7898 2.83831 29.4945 3.96208 32.6456 6.0676C35.7968 8.17311 38.2528 11.1657 39.7032 14.6671C41.1535 18.1684 41.5329 22.0212 40.7935 25.7382C40.0542 29.4552 38.2292 32.8696 35.5494 35.5494C32.8696 38.2292 29.4553 40.0541 25.7383 40.7935C22.0213 41.5328 18.1684 41.1534 14.6671 39.7031C11.1657 38.2528 8.17311 35.7968 6.06759 32.6456C3.96207 29.4945 2.83823 25.7898 2.83823 22C2.8399 16.9185 4.85924 12.0456 8.45241 8.45241C12.0456 4.85925 16.9185 2.83998 22 2.83831ZM22.6811 27.3234C22.9639 27.3234 23.235 27.2111 23.4349 27.0112C23.6348 26.8113 23.7471 26.5402 23.7471 26.2574V26.2259C23.7471 22.3595 30.6159 22.6749 30.6159 16.6956C30.6159 12.2236 26.6106 9.58084 21.9684 9.58084C17.9948 9.58084 15.762 11.1388 13.8761 13.5482C13.7881 13.6628 13.7243 13.794 13.6886 13.9341C13.6529 14.0741 13.646 14.22 13.6684 14.3628C13.6909 14.5056 13.7421 14.6422 13.819 14.7645C13.8959 14.8869 13.9969 14.9924 14.1158 15.0745L15.2763 15.8882C15.4991 16.043 15.7726 16.107 16.041 16.0671C16.3094 16.0273 16.5525 15.8865 16.7207 15.6737C17.2992 14.8318 18.088 14.156 19.0086 13.7134C19.9292 13.2708 20.9496 13.0768 21.9684 13.1507C25.4879 13.1507 27.0648 14.9421 27.0648 16.7145C27.0648 20.5998 20.1961 20.0005 20.1961 26.2448V26.2764C20.1961 26.5591 20.3084 26.8303 20.5083 27.0302C20.7082 27.2301 20.9793 27.3423 21.262 27.3423L22.6811 27.3234ZM22 29.449C21.5085 29.449 21.028 29.5948 20.6193 29.8679C20.2106 30.1409 19.8921 30.5289 19.704 30.983C19.5159 31.4371 19.4668 31.9368 19.5627 32.4188C19.6585 32.9009 19.8952 33.3437 20.2427 33.6912C20.5903 34.0388 21.0331 34.2755 21.5151 34.3714C21.9972 34.4673 22.4969 34.4181 22.951 34.23C23.4051 34.0419 23.7932 33.7234 24.0663 33.3147C24.3393 32.9061 24.485 32.4256 24.485 31.9341C24.4834 31.2755 24.2211 30.6443 23.7554 30.1786C23.2897 29.7129 22.6586 29.4507 22 29.449Z" fill="#EB212E"/>
</svg>
