<svg width="60" height="44" viewBox="0 0 60 44" fill="none" xmlns="http://www.w3.org/2000/svg">
<path d="M46.1126 29.3282C44.9805 29.3313 43.8646 29.5979 42.8534 30.1069C41.8422 30.6159 40.9634 31.3533 40.2865 32.2608H38.7812V23.4631H53.444V32.2608H51.9386C51.2618 31.3533 50.3829 30.6159 49.3717 30.1069C48.3605 29.5979 47.2447 29.3313 46.1126 29.3282ZM46.1126 41.0585C45.2426 41.0585 44.3921 40.8004 43.6687 40.3171C42.9453 39.8337 42.3815 39.1467 42.0485 38.3429C41.7156 37.5392 41.6285 36.6547 41.7982 35.8015C41.968 34.9482 42.3869 34.1644 43.0021 33.5492C43.6173 32.934 44.4011 32.515 45.2544 32.3453C46.1077 32.1756 46.9922 32.2628 47.7959 32.5957C48.5997 32.9287 49.2867 33.4925 49.7701 34.2158C50.2534 34.9392 50.5114 35.7896 50.5114 36.6596C50.5114 37.8263 50.0479 38.9451 49.223 39.7701C48.3981 40.595 47.2792 41.0585 46.1126 41.0585ZM19.6804 32.2608C19.0057 31.351 18.1273 30.6119 17.1156 30.1026C16.1039 29.5933 14.987 29.3281 13.8544 29.3281C12.7217 29.3281 11.6048 29.5933 10.5931 30.1026C9.5814 30.6119 8.70302 31.351 8.02834 32.2608H5.2196C4.83114 32.2934 4.44552 32.1714 4.14654 31.9213C3.84756 31.6711 3.65939 31.313 3.62298 30.9248V4.27116C3.65939 3.88303 3.84756 3.52487 4.14654 3.27471C4.44552 3.02454 4.83114 2.90257 5.2196 2.93519H34.2845C34.673 2.90257 35.0587 3.02454 35.3576 3.27471C35.6566 3.52487 35.8448 3.88303 35.8812 4.27116V32.2608H19.6804ZM13.8544 41.0585C12.9844 41.0585 12.1339 40.8004 11.4105 40.3171C10.6871 39.8337 10.1233 39.1467 9.79036 38.3429C9.45742 37.5392 9.37032 36.6547 9.54005 35.8015C9.70978 34.9482 10.1287 34.1644 10.7439 33.5492C11.3591 32.934 12.1429 32.515 12.9962 32.3453C13.8495 32.1756 14.734 32.2628 15.5377 32.5957C16.3415 32.9287 17.0285 33.4925 17.5119 34.2158C17.9952 34.9392 18.2532 35.7896 18.2532 36.6596C18.2532 37.8263 17.7898 38.9451 16.9648 39.7701C16.1399 40.595 15.021 41.0585 13.8544 41.0585ZM42.8216 11.7329C43.5989 11.7343 44.3441 12.0436 44.8939 12.5931L52.5838 20.283C52.6554 20.3547 52.6815 20.4589 52.7467 20.5371H38.7812V11.7394H42.8216V11.7329ZM58.5792 32.2608H56.3765V22.3553C56.3709 20.8011 55.7527 19.3118 54.6561 18.2105L46.9663 10.5207C45.8674 9.42044 44.3766 8.80168 42.8216 8.80031H38.7812V4.27116C38.7626 3.69112 38.6299 3.12033 38.3904 2.59169C38.151 2.06304 37.8097 1.58683 37.3859 1.19032C36.9622 0.793806 36.4644 0.484867 35.921 0.281052C35.3776 0.0772364 34.7994 -0.0173877 34.2194 0.00262359H5.2196C4.63961 -0.0173877 4.06138 0.0772364 3.51801 0.281052C2.97464 0.484867 2.47683 0.793806 2.05308 1.19032C1.62933 1.58683 1.28797 2.06304 1.04855 2.59169C0.809134 3.12033 0.676351 3.69112 0.657837 4.27116V30.9574C0.676351 31.5375 0.809134 32.1081 1.04855 32.6368C1.28797 33.1654 1.62933 33.6416 2.05308 34.0381C2.47683 34.4346 2.97464 34.7437 3.51801 34.9476C4.06138 35.1514 4.63961 35.246 5.2196 35.226H6.69893C6.49765 36.2289 6.50845 37.2629 6.73067 38.2613C6.95289 39.2598 7.38162 40.2006 7.98924 41.0235C8.59687 41.8464 9.36993 42.5331 10.2588 43.0393C11.1477 43.5455 12.1326 43.8601 13.1503 43.9629C14.1681 44.0657 15.1961 43.9544 16.1682 43.6361C17.1403 43.3178 18.0351 42.7995 18.795 42.1148C19.5548 41.43 20.163 40.5937 20.5804 39.6598C20.9977 38.7259 21.2151 37.7152 21.2184 36.6923C21.2171 36.2001 21.1691 35.7091 21.075 35.226H38.9571C38.7558 36.2289 38.7666 37.2629 38.9889 38.2613C39.2111 39.2598 39.6398 40.2006 40.2474 41.0235C40.8551 41.8464 41.6281 42.5331 42.517 43.0393C43.4058 43.5455 44.3908 43.8601 45.4085 43.9629C46.4263 44.0657 47.4543 43.9544 48.4264 43.6361C49.3985 43.3178 50.2933 42.7995 51.0532 42.1148C51.813 41.43 52.4212 40.5937 52.8386 39.6598C53.2559 38.7259 53.4732 37.7152 53.4766 36.6923C53.4753 36.2001 53.4273 35.7091 53.3332 35.226H58.6118C58.8048 35.2243 58.9895 35.1468 59.126 35.0102C59.2625 34.8737 59.34 34.6891 59.3417 34.496V33.0232C59.3453 32.9221 59.3281 32.8214 59.2911 32.7273C59.2541 32.6331 59.198 32.5476 59.1265 32.4761C59.055 32.4045 58.9694 32.3484 58.8753 32.3114C58.7811 32.2744 58.6803 32.2572 58.5792 32.2608Z" fill="#EB212E"/>
</svg>
