<svg width="60" height="44" viewBox="0 0 60 44" fill="none" xmlns="http://www.w3.org/2000/svg">
<path d="M24.1335 19.8041V18.3311C24.1318 18.138 24.0544 17.9531 23.9178 17.8166C23.7813 17.6801 23.5966 17.6027 23.4035 17.601H1.39777C1.20467 17.6027 1.01998 17.6801 0.883436 17.8166C0.746892 17.9531 0.669426 18.138 0.667725 18.3311V19.8041C0.669426 19.9972 0.746892 20.182 0.883436 20.3186C1.01998 20.4551 1.20467 20.5325 1.39777 20.5342H23.4035C23.5966 20.5325 23.7813 20.4551 23.9178 20.3186C24.0544 20.182 24.1318 19.9972 24.1335 19.8041ZM53.4658 32.2671H51.9601C51.2852 31.3571 50.4067 30.6178 49.3947 30.1084C48.3828 29.599 47.2656 29.3337 46.1327 29.3337C44.9998 29.3337 43.8827 29.599 42.8707 30.1084C41.8588 30.6178 40.9802 31.3571 40.3054 32.2671H38.7997V23.4674H53.4658V32.2671ZM46.1327 41.0668C45.2625 41.0668 44.4119 40.8087 43.6883 40.3252C42.9648 39.8417 42.4008 39.1546 42.0678 38.3506C41.7348 37.5466 41.6477 36.662 41.8174 35.8085C41.9872 34.9551 42.4062 34.1711 43.0216 33.5558C43.6369 32.9405 44.4209 32.5214 45.2744 32.3516C46.1278 32.1818 47.0125 32.2691 47.8165 32.6021C48.6204 32.9351 49.3076 33.499 49.7911 34.2226C50.2745 34.9461 50.5326 35.7967 50.5326 36.6669C50.5326 37.8338 50.069 38.9529 49.2439 39.7781C48.4188 40.6032 47.2996 41.0668 46.1327 41.0668ZM38.7997 11.7345H42.841C43.6185 11.7359 44.3639 12.0453 44.9138 12.595L52.6054 20.2866C52.6771 20.3583 52.7032 20.4625 52.7683 20.5407H38.7997V11.7345ZM13.8672 41.0668C12.997 41.0668 12.1464 40.8087 11.4228 40.3252C10.6993 39.8417 10.1353 39.1546 9.80233 38.3506C9.46932 37.5466 9.38218 36.662 9.55194 35.8085C9.72171 34.9551 10.1408 34.1711 10.7561 33.5558C11.3714 32.9405 12.1554 32.5214 13.0089 32.3516C13.8624 32.1818 14.747 32.2691 15.551 32.6021C16.3549 32.9351 17.0421 33.499 17.5256 34.2226C18.009 34.9461 18.2671 35.7967 18.2671 36.6669C18.2671 37.8338 17.8035 38.9529 16.9784 39.7781C16.1533 40.6032 15.0342 41.0668 13.8672 41.0668ZM58.6022 32.2671H56.399V22.3594C56.3934 20.8048 55.7751 19.3152 54.6782 18.2137L46.9866 10.5221C45.8875 9.42157 44.3964 8.80267 42.841 8.8013H38.7997V4.27113C38.7622 3.10521 38.2646 2.00159 37.4157 1.20152C36.5667 0.401455 35.4355 -0.0299948 34.2695 0.00162289H11.097C9.93088 -0.0299948 8.79971 0.401455 7.95078 1.20152C7.10186 2.00159 6.60424 3.10521 6.56676 4.27113V5.86807H1.43037C1.23728 5.86977 1.05256 5.94716 0.916019 6.0837C0.779476 6.22025 0.702009 6.4051 0.700308 6.5982V8.07117C0.702009 8.26427 0.779476 8.44912 0.916019 8.58567C1.05256 8.72221 1.23728 8.7996 1.43037 8.8013H23.4361C23.6292 8.7996 23.8139 8.72221 23.9504 8.58567C24.087 8.44912 24.1644 8.26427 24.1661 8.07117V6.5982C24.1644 6.4051 24.087 6.22025 23.9504 6.0837C23.8139 5.94716 23.6292 5.86977 23.4361 5.86807H9.4674V4.27113C9.48531 4.07586 9.54185 3.88609 9.63374 3.71287C9.72563 3.53965 9.85102 3.38637 10.0026 3.26203C10.1543 3.1377 10.3291 3.04481 10.517 2.98864C10.7048 2.93246 10.902 2.91416 11.097 2.93485H34.3021C34.6906 2.90222 35.0763 3.02423 35.3754 3.27445C35.6744 3.52467 35.8626 3.88291 35.899 4.27113V32.2671H19.6946C19.0169 31.3601 18.1377 30.623 17.1264 30.114C16.1152 29.6049 14.9994 29.3379 13.8672 29.3339C12.2741 29.333 10.726 29.8629 9.4674 30.8396V23.4674H6.53418V36.6669C6.53418 38.6118 7.30676 40.4769 8.68198 41.8521C10.0572 43.2273 11.9224 44 13.8672 44C15.8121 44 17.6773 43.2273 19.0525 41.8521C20.4277 40.4769 21.2003 38.6118 21.2003 36.6669C21.1991 36.1746 21.1511 35.6835 21.0569 35.2003H38.9431C38.7417 36.2035 38.7526 37.2377 38.9748 38.2364C39.1971 39.2351 39.6259 40.1761 40.2337 40.9991C40.8414 41.8222 41.6147 42.5091 42.5038 43.0154C43.3928 43.5217 44.378 43.8364 45.396 43.9392C46.4139 44.042 47.4421 43.9307 48.4145 43.6123C49.3868 43.294 50.2818 42.7756 51.0419 42.0907C51.8019 41.4057 52.4102 40.5694 52.8277 39.6353C53.2451 38.7012 53.4625 37.6901 53.4658 36.6669C53.4646 36.1746 53.4165 35.6835 53.3224 35.2003H58.6022C58.7953 35.1986 58.98 35.1212 59.1165 34.9847C59.2531 34.8482 59.3305 34.6633 59.3322 34.4702V32.9972C59.3305 32.8041 59.2531 32.6193 59.1165 32.4827C58.98 32.3462 58.7953 32.2688 58.6022 32.2671ZM26.3367 14.6677C26.5298 14.666 26.7145 14.5887 26.851 14.4521C26.9876 14.3156 27.0651 14.1307 27.0668 13.9376V12.4646C27.0651 12.2716 26.9876 12.0867 26.851 11.9502C26.7145 11.8136 26.5298 11.7362 26.3367 11.7345H4.331C4.1379 11.7362 3.95321 11.8136 3.81666 11.9502C3.68012 12.0867 3.60265 12.2716 3.60095 12.4646V13.9376C3.60265 14.1307 3.68012 14.3156 3.81666 14.4521C3.95321 14.5887 4.1379 14.666 4.331 14.6677H26.3367Z" fill="#EB212E"/>
</svg>
