<svg width="145" height="30" viewBox="0 0 145 30" fill="none" xmlns="http://www.w3.org/2000/svg">
<path d="M144.347 29.979C144.405 29.9789 144.464 29.9671 144.518 29.9443C144.572 29.9215 144.621 29.8882 144.662 29.8464C144.704 29.8045 144.736 29.7549 144.758 29.7004C144.78 29.6459 144.791 29.5876 144.79 29.5289V26.4292C144.791 26.3706 144.78 26.3125 144.758 26.2583C144.736 26.204 144.703 26.1546 144.662 26.113C144.621 26.0714 144.572 26.0384 144.517 26.0158C144.463 25.9933 144.405 25.9817 144.347 25.9817H140.25C138.589 26.0426 136.931 25.7915 135.363 25.2415C134.965 25.0623 134.614 24.7927 134.338 24.4542C134.119 24.1418 134.008 23.7659 134.024 23.3847V0.448031C134.024 0.390078 134.013 0.332627 133.991 0.278986C133.969 0.225345 133.937 0.176553 133.896 0.135452C133.855 0.0943502 133.807 0.0617522 133.753 0.039495C133.7 0.0172378 133.642 0.00577302 133.584 0.00577405H124.478C124.421 0.00594569 124.363 0.017521 124.31 0.0398555C124.257 0.0621899 124.208 0.0948481 124.167 0.135932C124.127 0.177016 124.094 0.225711 124.073 0.279266C124.051 0.332822 124.04 0.390189 124.04 0.448031V22.6537C124.001 23.7126 124.268 24.7604 124.808 25.672C125.446 26.6088 126.297 27.381 127.291 27.9252C130.667 29.7822 136.8 29.9961 139.126 29.9816L144.347 29.979Z" fill="#ABABAB"/>
<path d="M81.9436 0.000533239C79.6156 -0.0125899 73.4831 0.203942 70.1053 2.05955C69.1098 2.6018 68.2581 3.37384 67.621 4.31149C67.0507 5.31013 66.7843 6.45356 66.8547 7.60145V29.6483C66.9722 29.7651 67.1277 29.8358 67.293 29.8478H76.3978C76.4564 29.8481 76.5144 29.8368 76.5686 29.8145C76.6227 29.7922 76.6719 29.7593 76.7132 29.7178C76.7545 29.6762 76.7871 29.6269 76.8091 29.5726C76.8311 29.5183 76.8421 29.4602 76.8414 29.4016V11.9741H82.3111C82.3699 11.9737 82.428 11.9618 82.4822 11.939C82.5363 11.9162 82.5854 11.883 82.6267 11.8412C82.6681 11.7994 82.7007 11.7498 82.7229 11.6954C82.7451 11.641 82.7563 11.5827 82.756 11.524V8.42032C82.7556 8.30232 82.7087 8.18922 82.6254 8.10566C82.5421 8.02209 82.4291 7.97483 82.3111 7.97414H76.8414V6.5949C76.8281 6.21331 76.9376 5.83754 77.1537 5.52276C77.431 5.18415 77.7832 4.91459 78.1825 4.73536C79.7505 4.18525 81.4078 3.9346 83.0683 3.99651H87.164C87.2227 3.99651 87.2808 3.98495 87.3349 3.96243C87.389 3.9399 87.4382 3.9069 87.4796 3.86531C87.5209 3.82372 87.5536 3.77437 87.5758 3.72009C87.598 3.66581 87.6093 3.60769 87.6089 3.54904V0.446715C87.6089 0.328606 87.5621 0.215331 87.4787 0.131693C87.3953 0.0480539 87.2821 0.000880618 87.164 0.000533239H81.9436Z" fill="#ABABAB"/>
<path d="M21.7596 29.8451C21.8773 29.8441 21.9897 29.7967 22.0726 29.7131C22.1554 29.6295 22.2019 29.5166 22.2019 29.399V4.06343H33.0573C33.1761 4.0617 33.2894 4.01294 33.3723 3.92782C33.4552 3.84271 33.501 3.72821 33.4996 3.6094V0.509713C33.4997 0.451463 33.4884 0.393748 33.4663 0.339867C33.4442 0.285985 33.4116 0.236962 33.3706 0.195651C33.3295 0.154341 33.2807 0.121544 33.227 0.0990941C33.1732 0.0766439 33.1156 0.0649846 33.0573 0.0648125H1.40037C1.28249 0.0651587 1.16953 0.112136 1.08618 0.195491C1.00282 0.278846 0.955839 0.391831 0.955492 0.509713V3.6094C0.954442 3.72855 1.00068 3.84323 1.08408 3.92835C1.16747 4.01346 1.28121 4.06204 1.40037 4.06343H12.2322V29.4003C12.2326 29.5185 12.2797 29.6318 12.3633 29.7154C12.4469 29.799 12.5602 29.8461 12.6784 29.8465L21.7596 29.8451Z" fill="#ABABAB"/>
<path d="M61.6198 29.8465C61.7384 29.8451 61.8516 29.7968 61.9347 29.7123C62.0178 29.6277 62.0641 29.5136 62.0634 29.395V26.2953C62.0638 26.1775 62.0174 26.0642 61.9346 25.9804C61.8517 25.8966 61.739 25.8489 61.6211 25.8478H44.1332C42.4726 25.912 40.8149 25.6614 39.2475 25.109C38.8483 24.9315 38.497 24.6616 38.2226 24.3216C38.0044 24.0083 37.8947 23.6322 37.9103 23.2508V21.6012H46.8235C49.1515 21.6012 55.284 21.4779 58.6593 19.8099C59.626 19.3795 60.4776 18.7271 61.1448 17.9057C61.7385 16.9452 62.0537 15.8386 62.0551 14.7094C62.0565 13.5802 61.7441 12.4728 61.1527 11.5108C60.4886 10.6877 59.6373 10.0352 58.6698 9.60795C55.2919 7.93607 49.1594 7.81402 46.834 7.81402H43.0086C40.6858 7.81402 34.5481 7.99515 31.1715 9.66835C30.1969 10.1405 29.3466 10.8344 28.6886 11.6945C28.1564 12.4981 27.8885 13.4478 27.9222 14.411V23.239C27.8881 24.2039 28.156 25.1554 28.6886 25.9607C29.3466 26.8205 30.197 27.514 31.1715 27.9856C34.5494 29.6575 40.6858 29.8517 43.0086 29.8399L61.6198 29.8465ZM51.931 15.0094C51.9465 15.3923 51.8353 15.7696 51.6148 16.0829C51.3411 16.4242 50.989 16.6943 50.5885 16.8703C49.0207 17.4227 47.3626 17.6742 45.7015 17.6118H37.8945V14.1512C37.8795 13.7692 37.9896 13.3927 38.2081 13.0791C38.4829 12.7389 38.8347 12.469 39.2344 12.2917C40.8027 11.7413 42.4605 11.4907 44.1214 11.5528H45.6962C47.3571 11.4908 49.0149 11.7415 50.5833 12.2917C50.9822 12.4703 51.3337 12.74 51.6095 13.0791C51.8306 13.3916 51.9418 13.7687 51.9258 14.1512L51.931 15.0094Z" fill="#ABABAB"/>
<path d="M117.58 11.8586C116.922 10.9968 116.072 10.3015 115.097 9.82842C111.721 8.15784 105.585 7.96232 103.261 7.97413H87.9895C87.9311 7.9743 87.8733 7.98606 87.8194 8.00869C87.7656 8.03132 87.7168 8.06436 87.6758 8.10597C87.6348 8.14757 87.6024 8.19689 87.5806 8.25106C87.5587 8.30524 87.5479 8.36322 87.5486 8.42163V11.5252C87.5477 11.5838 87.5584 11.6419 87.5802 11.6962C87.602 11.7505 87.6343 11.8 87.6753 11.8417C87.7163 11.8835 87.7652 11.9167 87.8191 11.9394C87.8731 11.9621 87.931 11.9739 87.9895 11.9741H102.128C103.789 11.9105 105.447 12.1612 107.015 12.7129C107.416 12.8902 107.768 13.1601 108.044 13.5003C108.262 13.8128 108.372 14.1879 108.357 14.5685V16.0593H99.4407C97.1114 16.0593 90.9829 16.1774 87.6037 17.8519C86.6362 18.2781 85.7855 18.9307 85.1234 19.7548C84.5126 20.7369 84.1877 21.8698 84.1851 23.0263C84.1826 24.1828 84.5025 25.3172 85.109 26.3019C85.7749 27.1233 86.6251 27.7761 87.5905 28.2074C90.9684 29.8766 97.1022 30 99.4289 30H103.254C105.578 30 111.715 29.8176 115.09 28.1484C116.066 27.6767 116.916 26.9816 117.573 26.1195C118.106 25.315 118.373 24.3635 118.337 23.3991V14.5764C118.373 13.6124 118.106 12.6615 117.573 11.8573L117.58 11.8586ZM108.367 23.6681C108.381 24.051 108.27 24.428 108.052 24.7429C107.775 25.0805 107.425 25.3499 107.027 25.5303C105.46 26.0813 103.803 26.3324 102.143 26.2704H100.56C98.8999 26.3331 97.2428 26.082 95.6757 25.5303C95.2757 25.3522 94.9233 25.0825 94.6469 24.7429C94.4268 24.429 94.3165 24.0511 94.3332 23.6681V22.6524C94.3167 22.2702 94.427 21.8932 94.6469 21.5802C94.922 21.2393 95.2748 20.9693 95.6757 20.7928C97.2431 20.2422 98.9 19.9916 100.56 20.054H108.368L108.367 23.6681Z" fill="#ABABAB"/>
</svg>
