<svg width="58" height="44" viewBox="0 0 58 44" fill="none" xmlns="http://www.w3.org/2000/svg">
<path d="M38.4285 32.6088C38.4285 32.2958 38.3042 31.9956 38.0828 31.7742C37.8615 31.5528 37.5613 31.4286 37.2483 31.4286H23.8945C23.5815 31.4286 23.2813 31.5528 23.06 31.7742C22.8386 31.9956 22.7142 32.2958 22.7142 32.6088V33.3912C22.7142 33.7042 22.8386 34.0045 23.06 34.2258C23.2813 34.4472 23.5815 34.5714 23.8945 34.5714H37.2483C37.5613 34.5714 37.8615 34.4472 38.0828 34.2258C38.3042 34.0045 38.4285 33.7042 38.4285 33.3912V32.6088ZM19.5714 32.6088C19.5714 32.2958 19.447 31.9956 19.2257 31.7742C19.0043 31.5528 18.7041 31.4286 18.3911 31.4286H11.3231C11.01 31.4286 10.7099 31.5528 10.4885 31.7742C10.2672 31.9956 10.1428 32.2958 10.1428 32.6088V33.3912C10.1428 33.7042 10.2672 34.0045 10.4885 34.2258C10.7099 34.4472 11.01 34.5714 11.3231 34.5714H18.3911C18.7041 34.5714 19.0043 34.4472 19.2257 34.2258C19.447 34.0045 19.5714 33.7042 19.5714 33.3912V32.6088ZM52.5714 40.8571H5.42852C5.01175 40.8571 4.61209 40.6916 4.31739 40.3969C4.02269 40.1022 3.85709 39.7025 3.85709 39.2857V18.8571H54.1428V39.2857C54.1428 39.7025 53.9772 40.1022 53.6825 40.3969C53.3878 40.6916 52.9882 40.8571 52.5714 40.8571ZM5.42852 3.14286H52.5714C52.9882 3.14286 53.3878 3.30837 53.6825 3.60307C53.9772 3.89777 54.1428 4.29752 54.1428 4.71429V9.42857H3.85709V4.71429C3.85709 4.29752 4.02269 3.89777 4.31739 3.60307C4.61209 3.30837 5.01175 3.14286 5.42852 3.14286ZM52.5714 0H5.42852C4.17821 0 2.97913 0.496697 2.09503 1.3808C1.21093 2.2649 0.714233 3.46398 0.714233 4.71429V39.2857C0.714233 40.536 1.21093 41.7351 2.09503 42.6192C2.97913 43.5033 4.17821 44 5.42852 44H52.5714C53.8217 44 55.0208 43.5033 55.9049 42.6192C56.789 41.7351 57.2857 40.536 57.2857 39.2857V4.71429C57.2857 3.46398 56.789 2.2649 55.9049 1.3808C55.0208 0.496697 53.8217 0 52.5714 0Z" fill="#EB212E"/>
</svg>
