<svg xmlns="http://www.w3.org/2000/svg" width="112" height="30" viewBox="0 0 56 15"><g><g><g><path fill="#005297" d="M10.616 14.246a7.402 7.402 0 0 0 7.448-7.06A7.276 7.276 0 0 0 10.616.001H7.265A7.026 7.026 0 0 0 .082 7.185a7.136 7.136 0 0 0 7.183 7.06z"/></g><g><path fill="#fff" d="M8.759 3.254a4.13 4.13 0 0 1 0 7.715zM3.148 7.11A4.139 4.139 0 0 1 5.8 3.254v7.712a4.137 4.137 0 0 1-2.653-3.855zM7.28.59a6.52 6.52 0 1 0 0 13.04 6.52 6.52 0 0 0 0-13.04z"/></g><g><path fill="#17100d" d="M21.2 4.814c.136-.008.278-.03.585-.03a2.249 2.249 0 0 1 2.344 2.412 2.086 2.086 0 0 1-2.147 2.337c-.371 0-.78-.068-.78-.644zm-.732 4.191c-.022.51-.24.525-.688.57v.194c.337-.008.651-.015 1.004-.015.352 0 .705.015 1.086.015 2.652 0 3.086-1.865 3.086-2.607a2.728 2.728 0 0 0-2.996-2.619c-.555 0-.981.015-1.296.015-.292 0-.592 0-.884-.015v.195c.336.007.688-.037.688.636z"/></g><g><path fill="#17100d" d="M26.023 5.195a.374.374 0 0 0 .367-.374.367.367 0 1 0-.367.374zm-.803 4.572c.278-.008.549-.015.818-.015.269 0 .531.015.786.015v-.194h-.127c-.21 0-.375 0-.375-.248V6.449c0-.057-.015-.102-.052-.102a.267.267 0 0 0-.135.038c-.03.022-.449.167-.802.27v.12c.277.149.39.195.39.524v2.03c0 .248-.154.248-.359.248h-.142z"/></g><g><path fill="#17100d" d="M27.536 7.346c0-.277-.083-.352-.435-.494V6.71c.336-.103.666-.223.989-.36.022 0 .044.015.044.075v.487a2.197 2.197 0 0 1 1.297-.562c.637 0 .86.465.86 1.049V9.33c0 .247.165.247.375.247h.135v.194c-.263 0-.526-.015-.795-.015-.268 0-.54.007-.81.015v-.194h.136c.21 0 .359 0 .359-.247V7.389c0-.428-.261-.637-.688-.637-.315.049-.613.172-.87.36v2.217c0 .247.165.247.375.247h.135v.194c-.262 0-.525-.015-.794-.015-.27 0-.54.007-.809.015v-.194h.135c.21 0 .359 0 .359-.247z"/></g><g><path fill="#17100d" d="M31.387 7.464c.09-.54.404-.876.861-.876a.635.635 0 0 1 .652.689c0 .085-.017.187-.204.187zm2.085.234l.067-.045a1.189 1.189 0 0 0-1.26-1.31c-.525 0-1.513.435-1.513 1.903a1.505 1.505 0 0 0 1.43 1.635 1.757 1.757 0 0 0 1.386-.846l-.102-.102a1.431 1.431 0 0 1-1.012.502 1.251 1.251 0 0 1-1.101-1.296 1.808 1.808 0 0 1 0-.435z"/></g><g><path fill="#17100d" d="M33.72 9.578h.204c.205 0 .36 0 .36-.247V7.226c0-.232-.278-.277-.39-.337v-.112c.547-.233.846-.427.92-.427.044 0 .066.022.066.102v.674h.017c.186-.292.501-.772.957-.772a.41.41 0 0 1 .407.539.364.364 0 0 1-.331.24c-.233 0-.233-.18-.495-.18a.633.633 0 0 0-.547.622v1.759c0 .247.15.247.36.247h.418v.194c-.409-.007-.725-.015-1.047-.015-.322 0-.622.007-.892.015z"/></g><g><path fill="#17100d" d="M36.61 8.73a.986.986 0 0 0 .945.914.53.53 0 0 0 .606-.531c0-.884-1.636-.6-1.636-1.805a1.03 1.03 0 0 1 1.161-.96c.298.008.59.082.854.218l.053.764h-.173a.77.77 0 0 0-.817-.741.526.526 0 0 0-.585.495c0 .877 1.738.607 1.738 1.782 0 .495-.397 1.023-1.29 1.023a1.975 1.975 0 0 1-.913-.255l-.083-.862z"/></g><g><path fill="#17100d" d="M45.516 5.898h-.187a1.425 1.425 0 0 0-1.602-1.226 2.136 2.136 0 0 0-2.113 2.374 2.441 2.441 0 0 0 2.232 2.6 1.524 1.524 0 0 0 1.507-1.296l.172.044-.172 1.094a4.198 4.198 0 0 1-1.656.398 2.666 2.666 0 0 1-2.862-2.817 2.754 2.754 0 0 1 2.838-2.638 5.398 5.398 0 0 1 1.768.398z"/></g><g><path fill="#17100d" d="M45.792 9.568h.142c.21 0 .36 0 .36-.247V5.149c0-.487-.112-.502-.397-.585v-.12c.266-.084.524-.191.771-.321a.775.775 0 0 1 .165-.083c.045 0 .06.045.06.102v5.176c0 .247.165.247.374.247h.127v.194c-.254 0-.516-.015-.786-.015s-.539.007-.818.015z"/></g><g><path fill="#17100d" d="M50.604 9.357c0 .135.083.142.204.142.09 0 .205-.007.3-.007v.157c-.364.051-.725.129-1.079.232l-.037-.022v-.604a2.02 2.02 0 0 1-1.33.628.808.808 0 0 1-.823-.89v-1.92c0-.195-.03-.382-.449-.419v-.142c.27-.007.868-.052.966-.052.098 0 .083.052.083.217v1.932c0 .225 0 .869.65.869.343-.055.66-.214.907-.456V7.006c0-.15-.36-.232-.629-.307v-.135c.674-.045 1.094-.102 1.168-.102.075 0 .06.052.06.135z"/></g><g><path fill="#17100d" d="M52.087 7.102c.189-.199.442-.324.715-.352A1.431 1.431 0 0 1 54 8.233c0 .666-.337 1.453-1.138 1.453a.807.807 0 0 1-.772-.764zm-.001-2.95c0-.057-.015-.102-.06-.102a.754.754 0 0 0-.164.083c-.247.13-.506.237-.772.322v.12c.285.082.398.097.398.584V8.38c0 .445-.035.89-.103 1.329l.158.082.224-.172c.32.171.678.261 1.041.262A1.892 1.892 0 0 0 54.6 7.918a1.459 1.459 0 0 0-1.393-1.573c-.422.05-.815.24-1.116.54z"/></g><g><path fill="#17100d" d="M54.517 5.72h.054c.05 0 .094.026.094.102s-.03.123-.092.123h-.057zm.064.478v-.023c-.059-.009-.07-.007-.07-.038v-.16h.054c.089.127.129.222.174.222h.094v-.015a.489.489 0 0 1-.102-.114l-.08-.11a.152.152 0 0 0 .115-.146c0-.088-.078-.128-.163-.128h-.248v.025c.064-.004.069.014.069.064v.358c0 .036-.011.034-.07.043v.023zm.013.138a.388.388 0 0 1-.383-.391.393.393 0 1 1 .383.391zm0-.876a.475.475 0 0 0-.484.485.482.482 0 1 0 .484-.485z"/></g></g></g></svg>