<svg xmlns="http://www.w3.org/2000/svg" viewBox="0 0 35.79 17.7"><defs><style>.cls-1{fill:#020203;}</style></defs><title>Recurso 30</title><g id="Capa_2" data-name="Capa 2"><g id="Capa_1-2" data-name="Capa 1"><path class="cls-1" d="M35.74,1.11h0v0A1.13,1.13,0,0,0,34.65,0H32.31a.28.28,0,0,0-.12,0,.28.28,0,0,0-.1.09,0,0,0,0,1,0,0,.3.3,0,0,1-.26.12c-.07,0-.09,0-.1-.07s0,0,0,0a.29.29,0,0,0-.09-.1.31.31,0,0,0-.12,0H28.62a.23.23,0,0,0-.12.06l-.09.1a.14.14,0,0,0,0,.06s0,0-.1,0a.27.27,0,0,1-.24-.1s0,0,0,0L27.94.07a.28.28,0,0,0-.12,0H25A.31.31,0,0,0,24.9.1a.39.39,0,0,0-.08.1l0,.07L24.57,1a.33.33,0,0,1-.23.2h-.29a.68.68,0,0,1-.16-.06.34.34,0,0,1-.05-.12h0L23.62.26a.36.36,0,0,0,0-.07.22.22,0,0,0-.09-.1A.34.34,0,0,0,23.38,0H20.51a.31.31,0,0,0-.13.06l-.09.1,0,.06a.06.06,0,0,1-.06,0,.38.38,0,0,1-.3-.13s0,0,0,0a.39.39,0,0,0-.1-.08l-.12,0H16.91a.33.33,0,0,0-.12.05.28.28,0,0,0-.09.1s0,0,0,.05A.2.2,0,0,1,16.5.3s-.13,0-.15-.06,0,0,0-.06a.22.22,0,0,0-.09-.1.26.26,0,0,0-.12,0H13.25a.31.31,0,0,0-.13.06.39.39,0,0,0-.08.1l0,.06a.06.06,0,0,1-.06,0,.37.37,0,0,1-.3-.13s0,0,0,0a.39.39,0,0,0-.1-.08.27.27,0,0,0-.12,0H9.66L9.53.08a.22.22,0,0,0-.09.1s0,0,0,.05A.2.2,0,0,1,9.24.3c-.05,0-.13,0-.15-.06l0-.06A.28.28,0,0,0,9,.08a.21.21,0,0,0-.12,0H6.09a.31.31,0,0,0-.32.17l0,.08a.19.19,0,0,1-.13,0,.15.15,0,0,1-.12,0,.64.64,0,0,1,0-.07.27.27,0,0,0-.08-.1h0A.27.27,0,0,0,5.27,0H2.41L2.28.07a.28.28,0,0,0-.09.1s0,0,0,0A.21.21,0,0,1,2,.29H2c-.06,0-.14,0-.15-.07s0,0,0-.06a.22.22,0,0,0-.09-.1.33.33,0,0,0-.12,0h-.5A1,1,0,0,0,.31.31,1,1,0,0,0,0,1.12V3.27a.22.22,0,0,0,0,.08.34.34,0,0,0,.06.12.31.31,0,0,0,.11.09l.07,0s0,.08,0,.1,0,.15-.07.17,0,0-.06,0A.28.28,0,0,0,.07,4a.22.22,0,0,0,0,.12s0,0,0,.07V6.72a.2.2,0,0,0,0,.07.31.31,0,0,0,.05.12A.28.28,0,0,0,.17,7l0,0a.14.14,0,0,1,.08.13.15.15,0,0,1-.09.14l0,0a.43.43,0,0,0-.1.09.26.26,0,0,0,0,.12V10.2a.43.43,0,0,0,0,.12.28.28,0,0,0,.1.09l0,0a.14.14,0,0,1,.08.14.13.13,0,0,1-.08.13l0,0a.24.24,0,0,0-.1.1.33.33,0,0,0,0,.12v2.68a.61.61,0,0,0,0,.12.28.28,0,0,0,.1.09l0,0A.14.14,0,0,1,.29,14a.13.13,0,0,1-.08.13l0,0a.24.24,0,0,0-.1.1.33.33,0,0,0,0,.12v2.15a1.16,1.16,0,0,0,1,1.17h.6a.34.34,0,0,0,.12-.06.44.44,0,0,0,.08-.11.19.19,0,0,0,0-.07c0-.08.15-.08.16-.08s.13,0,.15.07a.24.24,0,0,0,0,.08.27.27,0,0,0,.09.12h0l.1.05s.08,0,.09,0H5.22a.37.37,0,0,0,.2-.07.33.33,0,0,0,.16-.25.29.29,0,0,1,.19,0h0a.31.31,0,0,0,.31.31H8.9A.33.33,0,0,0,9,17.6a.39.39,0,0,0,.08-.1.24.24,0,0,0,0-.08c0-.07.13-.08.15-.08h0c.06,0,.15,0,.16.08a.14.14,0,0,0,0,.07.27.27,0,0,0,.09.12h0a.22.22,0,0,0,.11.05.15.15,0,0,0,.09,0h2.72a.26.26,0,0,0,.12-.05.28.28,0,0,0,.09-.1.08.08,0,0,0,0,0,.29.29,0,0,1,.28-.14s0,0,0,.05a.29.29,0,0,0,0,.09h0a.28.28,0,0,0,.08.11.35.35,0,0,0,.12.07.14.14,0,0,0,.09,0h2.81a.33.33,0,0,0,.13-.07.39.39,0,0,0,.08-.1.24.24,0,0,0,0-.08c0-.07.13-.08.15-.08h0c.05,0,.14,0,.16.08a.24.24,0,0,0,0,.08.31.31,0,0,0,.09.11.39.39,0,0,0,.11.06.15.15,0,0,0,.09,0h2.73a.31.31,0,0,0,.12-.05.22.22,0,0,0,.09-.1.08.08,0,0,0,0,0,.3.3,0,0,1,.28-.14s0,0,0,.05a.29.29,0,0,0,0,.09.27.27,0,0,0,.09.12h0a.24.24,0,0,0,.11.06h2.9a.27.27,0,0,0,.12-.06.43.43,0,0,0,.09-.1l0-.07.22-.84h0a.27.27,0,0,1,.19-.17h.32c.05,0,.16.09.23.2l.22.82s0,0,0,.07a.22.22,0,0,0,.09.1.27.27,0,0,0,.12.06h2.82l.12-.05a.28.28,0,0,0,.09-.1.14.14,0,0,0,0-.06c0-.06.13-.11.23-.11s.07,0,.08,0a.24.24,0,0,0,0,.08.3.3,0,0,0,.09.13h0a.24.24,0,0,0,.11.06h2.91a.23.23,0,0,0,.12-.06h0a.39.39,0,0,0,.08-.1.19.19,0,0,0,0-.08s0-.07.11-.08a.17.17,0,0,1,.2.11s0,0,0,.06a.28.28,0,0,0,.09.1.31.31,0,0,0,.12.05h2.44a1.24,1.24,0,0,0,1-1.12h0v0h0V14.45a.22.22,0,0,0,0-.08.24.24,0,0,0-.07-.13.39.39,0,0,0-.1-.08l-.08,0a.11.11,0,0,1-.08-.12.13.13,0,0,1,.08-.13l.08,0s.09,0,.1-.08a.33.33,0,0,0,.07-.13.22.22,0,0,0,0-.08V11a.22.22,0,0,0,0-.08.27.27,0,0,0-.06-.12.31.31,0,0,0-.11-.09l-.07,0a.11.11,0,0,1-.08-.12.13.13,0,0,1,.08-.13.16.16,0,0,0,.09,0,.34.34,0,0,0,.09-.08.33.33,0,0,0,.07-.13.22.22,0,0,0,0-.08V7.57a.22.22,0,0,0,0-.08.24.24,0,0,0-.07-.13l-.09-.08-.09,0a.12.12,0,0,1-.08-.13s0-.11.08-.12l.09,0a.39.39,0,0,0,.1-.08.33.33,0,0,0,.07-.13.12.12,0,0,0,0-.08V4.14a.15.15,0,0,0,0-.09.19.19,0,0,0-.07-.12h0l-.09-.08-.1,0s0-.05,0-.07a.15.15,0,0,1,0-.17.3.3,0,0,0,.12,0h0a.18.18,0,0,0,.07-.05h0a.29.29,0,0,0,.09-.15h0a.22.22,0,0,0,0-.08h0V1.11h0ZM23.08,16.7H20.76a.73.73,0,0,0-.59-.31.78.78,0,0,0-.67.31H17.16a.84.84,0,0,0-1.28,0H13.5a.73.73,0,0,0-.59-.31.77.77,0,0,0-.67.31H9.9a.84.84,0,0,0-1.28,0H6.24a.8.8,0,0,0-.72-.31A.7.7,0,0,0,5,16.7H2.64A.79.79,0,0,0,2,16.38H2a.81.81,0,0,0-.64.31.43.43,0,0,1-.26-.13.51.51,0,0,1-.16-.35h0V14.64A.75.75,0,0,0,1.28,14a.73.73,0,0,0-.34-.62V11.21a.75.75,0,0,0,.34-.66A.7.7,0,0,0,.94,10V7.78a.76.76,0,0,0,.34-.65.7.7,0,0,0-.34-.6V4.36a.8.8,0,0,0,.34-.72.68.68,0,0,0-.34-.56V1.48h0a.51.51,0,0,1,.16-.35A.47.47,0,0,1,1.35,1,.78.78,0,0,0,2,1.32H2A.78.78,0,0,0,2.65,1H5a.7.7,0,0,0,.55.32A.83.83,0,0,0,6.26,1H8.61a.85.85,0,0,0,1.3,0h2.31a.85.85,0,0,0,.69.32.76.76,0,0,0,.6-.32h2.36a.85.85,0,0,0,1.3,0h2.31a.87.87,0,0,0,.69.32.76.76,0,0,0,.6-.32h2.31l.16.58H2.66A1.24,1.24,0,0,0,1.53,2.71h0V15.08a1.26,1.26,0,0,0,1.12,1H23.23ZM2.7,15l0-.07V2.76s0-.06.06-.06H32.85a.4.4,0,0,0,.15,0h0V14.89l0,.1H2.7Zm32-10.65V6.55a.74.74,0,0,0-.29.57.75.75,0,0,0,.29.64V10a.74.74,0,0,0-.29.57.78.78,0,0,0,.29.65v2.22a.76.76,0,0,0-.28.59.79.79,0,0,0,.28.62v1.61h0a.41.41,0,0,1-.14.33.4.4,0,0,1-.33.14H32.52a.86.86,0,0,0-.65-.31h0a.76.76,0,0,0-.59.31H28.88a.83.83,0,0,0-1.28,0H25.33l-.16-.58h7.92a1.13,1.13,0,0,0,1-1.11v0h0V2.75a1.14,1.14,0,0,0-1-1.17H25.18L25.34,1H27.6a.85.85,0,0,0,1.3,0h2.36a.76.76,0,0,0,.6.32A.87.87,0,0,0,32.55,1h1.72a.47.47,0,0,1,.33.14.45.45,0,0,1,.14.33h0V3.12a.71.71,0,0,0-.28.51A.78.78,0,0,0,34.72,4.34Z"/><path class="cls-1" d="M26.87,6h-.14A2.78,2.78,0,0,0,24,8.81a2.93,2.93,0,0,0,2.87,3h0a2.91,2.91,0,0,0,2.86-3.08A2.77,2.77,0,0,0,26.87,6Zm0,4.63h0a1.58,1.58,0,0,1-1.5-.81,2,2,0,0,1,.06-1.94A1.64,1.64,0,0,1,27,7.09,1.67,1.67,0,0,1,28.61,8.9,1.64,1.64,0,0,1,26.9,10.59Z"/><path class="cls-1" d="M8.76,6H8.67A2.78,2.78,0,0,0,5.94,8.82a2.92,2.92,0,0,0,2.85,2.95h0A2.91,2.91,0,0,0,11.7,8.7,2.79,2.79,0,0,0,8.76,6Zm1.58,3.81a1.64,1.64,0,0,1-1.52.82h0A1.65,1.65,0,0,1,7.08,8.9,1.7,1.7,0,0,1,8.71,7.09a1.63,1.63,0,0,1,1.57.74A2,2,0,0,1,10.34,9.77Z"/></g></g></svg>