<svg xmlns="http://www.w3.org/2000/svg" width="92" height="36" viewBox="0 0 46 18"><g><g><g><g><path fill="#004f9b" d="M34.959 13.129h-4.957a.282.282 0 0 1 0-.563h4.93a1.95 1.95 0 0 0 1.553-1.898c.058-1.516-.812-1.667-.95-1.682h-3.181a1.811 1.811 0 0 1-1.506-1.97 2.544 2.544 0 0 1 2.042-2.45.291.291 0 0 1 .06-.006h4.463a.282.282 0 1 1 0 .563h-4.431a1.993 1.993 0 0 0-1.572 1.898v.02a1.294 1.294 0 0 0 1.012 1.38h3.14c.016 0 1.57.119 1.489 2.267a2.508 2.508 0 0 1-2.037 2.434.27.27 0 0 1-.055.007z"/></g></g><g><g><path fill="#004f9b" d="M44.309 13.16h-4.602c-.604-.064-1.751-.483-1.777-1.61a36.649 36.649 0 0 1 .82-5.028c.028-.075.7-1.842 2.19-1.842h3.291c.027 0 .053.004.079.011.057.017 1.407.42 1.407 1.582-.04.905-.14 1.806-.298 2.697a.281.281 0 0 1-.275.233l-6.367.054a14.884 14.884 0 0 0-.283 2.28c.02.873 1.121 1.044 1.26 1.063h4.555a.282.282 0 1 1 0 .563zM39.282 6.7c-.032.144-.22 1.01-.405 1.99l6.023-.05c.135-.783.219-1.575.252-2.37 0-.658-.791-.968-.967-1.03h-3.247c-1.04.002-1.593 1.3-1.656 1.457z"/></g></g><g><g><path fill="#004f9b" d="M21.422 16.862a.271.271 0 0 1-.153-.044.282.282 0 0 1-.124-.287s.448-2.48.9-4.96c.226-1.24.452-2.48.624-3.41.086-.466.158-.854.21-1.122a4.41 4.41 0 0 1 .102-.469h-.005a3.289 3.289 0 0 1 2.038-1.918.3.3 0 0 1 .077 0c.186.007 1.97 0 3.15 0 .272-.006 1.731.546 1.561 1.702v.03l-.785 4.795c0 .01 0 .02-.007.03a2.891 2.891 0 0 1-1.802 1.889.274.274 0 0 1-.072.011l-2.893.086a.173.173 0 0 1-.035 0 2.653 2.653 0 0 1-1.695-1.029l-.812 4.477a.281.281 0 0 1-.279.22zm1.236-5.513a2.253 2.253 0 0 0 1.587 1.272l2.834-.081a2.358 2.358 0 0 0 1.38-1.479l.777-4.758c.08-.53-.732-1.097-1.066-1.095h-2.615c-.205 0-.352 0-.46-.007a2.833 2.833 0 0 0-1.589 1.545c-.048.225-.431 2.313-.849 4.602z"/></g></g><g><path fill="#ffa600" d="M17.612 3.456a.786.786 0 1 1-1.572 0 .786.786 0 0 1 1.572 0z"/></g><g><path fill="#ffa600" d="M15.056 1.572a.786.786 0 1 0 0-1.572.786.786 0 0 0 0 1.572z"/></g><g><path fill="#ffa600" d="M14.052 3.456a.786.786 0 1 1-1.572 0 .786.786 0 0 1 1.572 0z"/></g><g><path fill="#ffa600" d="M16.736 14.932a.786.786 0 1 0 0-1.572.786.786 0 0 0 0 1.572z"/></g><g><path fill="#ffa600" d="M15.046 12.432a.786.786 0 1 0 0-1.572.786.786 0 0 0 0 1.572z"/></g><g><path fill="#ffa600" d="M11.58 12.29a.65.65 0 1 0 0-1.3.65.65 0 0 0 0 1.299z"/></g><g><path fill="#ffa600" d="M13.969 14.15a.65.65 0 1 1-1.299 0 .65.65 0 0 1 1.299 0z"/></g><g><path fill="#ffa600" d="M11.54 17.55a.65.65 0 1 0 0-1.3.65.65 0 0 0 0 1.3z"/></g><g><path fill="#ffa600" d="M9.854 14.657a.504.504 0 1 0 0-1.007.504.504 0 0 0 0 1.007z"/></g><g><path fill="#ffa600" d="M3.664 9.387a.504.504 0 1 0 0-1.007.504.504 0 0 0 0 1.007z"/></g><g><path fill="#ffa600" d="M4.564 6.707a.504.504 0 1 0 0-1.007.504.504 0 0 0 0 1.007z"/></g><g><path fill="#ffa600" d="M6.777 3.454a.504.504 0 1 1-1.007 0 .504.504 0 0 1 1.008 0z"/></g><g><path fill="#ffa600" d="M8.507.843A.504.504 0 1 1 7.5.845.504.504 0 0 1 8.507.843z"/></g><g><path fill="#ffa600" d="M8.054 17.407a.504.504 0 1 0 0-1.007.504.504 0 0 0 0 1.007z"/></g><g><path fill="#ffa600" d="M6.324 14.657a.504.504 0 1 0 0-1.007.504.504 0 0 0 0 1.007z"/></g><g><path fill="#ffa600" d="M4.544 12.147a.504.504 0 1 0 0-1.007.504.504 0 0 0 0 1.007z"/></g><g><path fill="#ffa600" d="M3.59 14.41a.26.26 0 1 0 0-.52.26.26 0 0 0 0 .52z"/></g><g><path fill="#ffa600" d="M1.97 11.9a.26.26 0 1 0 0-.52.26.26 0 0 0 0 .52z"/></g><g><path fill="#ffa600" d="M1.238 8.839a.259.259 0 1 1-.518 0 .259.259 0 0 1 .518 0z"/></g><g><path fill="#ffa600" d="M1.9 6.47a.26.26 0 1 0 0-.52.26.26 0 0 0 0 .52z"/></g><g><path fill="#ffa600" d="M3.65 3.74a.26.26 0 1 0 0-.52.26.26 0 0 0 0 .52z"/></g><g><path fill="#ffa600" d="M8.03 12.29a.65.65 0 1 0 0-1.3.65.65 0 0 0 0 1.299z"/></g><g><path fill="#ffa600" d="M6.2 9.54a.65.65 0 1 0 0-1.3.65.65 0 0 0 0 1.299z"/></g><g><path fill="#ffa600" d="M8.66 6.2a.65.65 0 1 1-1.3 0 .65.65 0 0 1 1.299 0z"/></g><g><path fill="#ffa600" d="M9.81 4.1a.65.65 0 1 0 0-1.3.65.65 0 0 0 0 1.3z"/></g><g><path fill="#ffa600" d="M11.51 1.449a.65.65 0 1 0 0-1.299.65.65 0 0 0 0 1.299z"/></g><g><path fill="#ffa600" d="M9.766 9.682a.786.786 0 1 0 0-1.572.786.786 0 0 0 0 1.572z"/></g><g><path fill="#ffa600" d="M11.516 6.992a.786.786 0 1 0 0-1.572.786.786 0 0 0 0 1.572z"/></g><g><path fill="#ffa600" d="M15.046 17.682a.786.786 0 1 0 0-1.572.786.786 0 0 0 0 1.572z"/></g><g><path fill="#ffa600" d="M21.784 8.62H10.16v.481h11.624z"/></g><g><path fill="#ffa600" d="M15.746 5.96H12.09v.481h3.656z"/></g><g><path fill="#ffa600" d="M17.322 9.065L15.31 5.96h.562l2.011 3.105z"/></g><g><path fill="#ffa600" d="M17.525 11.4H15.66v.481h1.865z"/></g><g><path fill="#ffa600" d="M17.08 11.883l1.668-2.813h.482l-1.669 2.813z"/></g></g></g></svg>