<svg xmlns="http://www.w3.org/2000/svg" width="272" height="26" viewBox="0 0 136 13"><g><g><g><g><g><path fill="#f3f3f3" d="M43.676.28H45.509l5.353 12.472H48.66L44.593 2.68l-2.508 6.07 2.394.002-.677 1.568h-2.263l-1.016 2.432H38.32z"/></g></g><g><g><path fill="#f3f3f3" d="M17.34.29h2.089l.002 12.453h-2.089z"/></g></g><g><g><path fill="#f3f3f3" d="M10.113 2.059H6.868v10.693H4.791V2.06H.79V.29h10.089z"/></g></g><g><g><path fill="#f3f3f3" d="M35.213 2.049h-3.245v10.693h-2.077V2.05H25.89V.28h10.089z"/></g></g></g><g><g><path fill="#f3f3f3" d="M91.765.28v1.77h-5.853v3.725h3.372l-.68 1.647h-2.692v3.571h5.851v1.761H83.85V.28z"/></g></g><g><g><path fill="#f3f3f3" d="M65.659.282l4.81 6.747L75.265.28h1.849l.002 12.472h-2.04l-.002-9.332-4.377 6.02h-.488l-4.38-6 .003 9.312h-2.04L63.79.28z"/></g></g><g><g><path fill="#f3f3f3" d="M105.984 1.012a5.148 5.148 0 0 1 2.213 2.129c.512.93.766 2.042.766 3.33 0 1.29-.252 2.407-.756 3.352a5.166 5.166 0 0 1-2.174 2.172c-.945.503-2.065.755-3.36.757h-4.541L98.13.28h4.454c1.31 0 2.441.244 3.4.732zm-.325 8.816c.754-.775 1.13-1.89 1.13-3.344 0-1.443-.376-2.542-1.126-3.298-.75-.755-1.847-1.135-3.29-1.135h-2.183l.002 8.94h2.24c1.398 0 2.473-.387 3.227-1.163z"/></g></g><g><g><g><path fill="#f3f3f3" d="M115.12.29h2.09l.001 12.453h-2.089z"/></g></g></g><g><g><path fill="#f3f3f3" d="M128.626.28H130.459l5.351 12.472h-2.203L129.541 2.68l-2.506 6.07 2.394.002-.624 1.568h-2.318l-1.016 2.432h-2.201z"/></g></g></g></g></svg>