<svg xmlns="http://www.w3.org/2000/svg" width="100" height="36" viewBox="0 0 50 18"><g><g><g><g><path fill="#f3f3f3" d="M19.944 0c.26 0 .5.06.72.18.761.4 1.051 1.34.651 2.1L13.54 16.91a1.602 1.602 0 0 1-2.822 0l-1.7-3.22-1.352 2.55c-.1.18-.25.33-.43.43-.51.27-1.131.07-1.401-.43L.84 6.8c-.08-.15-.12-.32-.12-.49 0-.57.46-1.03 1.03-1.03h2.813L3.012 2.34c-.12-.22-.18-.47-.18-.73C2.822.72 3.542 0 4.422 0zM12.98 6.25c.05-.1.07-.2.07-.31 0-.37-.3-.67-.67-.67H5.683a.686.686 0 0 0-.6 1.01l3.322 6.28c.07.13.17.23.29.29.34.17.75.05.93-.29z"/></g><g><path fill="#f3f3f3" d="M36.454 6.79h-1.701v5.81a.2.2 0 0 1-.2.2h-1.311a.2.2 0 0 1-.2-.2V6.79H31.34c-.11 0-.2-.08-.2-.18V5.57c0-.11.09-.19.19-.19h5.124c.11-.01.2.08.21.19V6.6c-.01.11-.1.19-.21.19z"/></g><g><path fill="#f3f3f3" d="M41.913 12.761c-.67.1-1.34.14-2.021.13-1.291 0-2.432-.33-2.432-2.15v-3.32c0-1.82 1.15-2.14 2.442-2.14.67-.01 1.34.03 2.011.13.14.02.2.07.2.2v.93a.2.2 0 0 1-.2.2h-2.111c-.47 0-.64.16-.64.68v.91h2.671c.11 0 .2.09.2.2v.95a.2.2 0 0 1-.2.2h-2.672v1.06c0 .52.17.68.64.68h2.112c.11 0 .2.09.2.2v.93c0 .13-.06.19-.2.21z"/></g><g><path fill="#f3f3f3" d="M49.445 12.8h-1.592a.263.263 0 0 1-.26-.15l-1.38-2.19-1.252 2.14c-.07.12-.14.2-.25.2h-1.48a.134.134 0 0 1-.151-.11v-.02c0-.02.01-.05.02-.07l2.162-3.61-2.182-3.42a.142.142 0 0 1-.02-.06c.01-.08.07-.13.15-.13h1.611c.11 0 .19.1.25.19l1.281 2.02 1.241-2.02c.04-.1.14-.17.25-.19h1.482c.08 0 .14.05.15.13 0 .02-.01.04-.02.06l-2.182 3.45 2.272 3.59c.02.03.03.06.03.1 0 .05-.05.09-.13.09z"/></g><g><path fill="#f3f3f3" d="M28.754 5.4c-.07 0-.14.05-.15.12l-1.451 5.37c-.02.11-.05.15-.14.15-.09 0-.12-.04-.14-.15L25.42 5.52a.162.162 0 0 0-.16-.12h-1.43c-.091 0-.151.07-.151.15v.04s1.771 6.15 1.791 6.21c.19.68.84 1.13 1.541 1.08.701.03 1.331-.42 1.542-1.08.03-.08 1.76-6.22 1.76-6.22.02-.08-.03-.17-.11-.18h-.04z"/></g><g><path fill="#f3f3f3" d="M19.944 0c.26 0 .5.06.72.18.761.4 1.051 1.34.651 2.1L13.54 16.91a1.602 1.602 0 0 1-2.822 0l-1.7-3.22-1.352 2.55c-.1.18-.25.33-.43.43-.51.27-1.131.07-1.401-.43L.84 6.8c-.08-.15-.12-.32-.12-.49 0-.57.46-1.03 1.03-1.03h2.813L3.012 2.34c-.12-.22-.18-.47-.18-.73C2.822.72 3.542 0 4.422 0zM12.98 6.25c.05-.1.07-.2.07-.31 0-.37-.3-.67-.67-.67H5.683a.686.686 0 0 0-.6 1.01l3.322 6.28c.07.13.17.23.29.29.34.17.75.05.93-.29z"/></g></g></g></g></svg>