<svg id="Capa_1" data-name="Capa 1" xmlns="http://www.w3.org/2000/svg" viewBox="0 0 60 60"><defs><style>.cls-1{fill:#0033a1;fill-rule:evenodd;}</style></defs><path class="cls-1" d="M36,25.1a5.27,5.27,0,0,1,3.4-.4c3,.2,4.8,1,5.8,2.5l-1.7.8a41.74,41.74,0,0,0-4.4-2.1Zm-11.4,6a.86.86,0,0,1-.8.8.73.73,0,0,1-.8-.8c0-.6.3-1,.8-1A1.08,1.08,0,0,1,24.55,31.1Zm-2.5,2.3a.92.92,0,0,1-1,.8.86.86,0,0,1-.8-.8.92.92,0,0,1,.8-1A1,1,0,0,1,22.05,33.4ZM22,45.7c-1.9-2.8-.7-4.7-1-5.3-2.9-4-1.3-4.4-1.8-6.2a4,4,0,0,1-.2-3.5c.4-1.2,3.4-1.2,3.4-1.2a3.62,3.62,0,0,0,2.4-.6c1.2-.8,3.7-1.7,4.6-1.3a2.16,2.16,0,0,0,1.1-.1,5.87,5.87,0,0,0,2,.5,7.17,7.17,0,0,0,1.4,1.3c-.7.4-1.2.8-1.8,1.2l-7.6,4.3a11.07,11.07,0,0,0-1.8,1.2c-1.2,1.2-.8,2.9,1.1,2.9a3.42,3.42,0,0,0,1.3-.2l-1.2.7h0c-.8.5-1.4.9-1.6,1.4a1.75,1.75,0,0,0,1.3,2.8,3.52,3.52,0,0,0,1.8-.5c.5-.4,1-.4,1.5-.8-1,.9-2.5,1.7-2.1,3,.8,2.1,2.7,1,4,.2l.8-.5v.2c0,1.1.6,1.5,1.6,1.5a4,4,0,0,0,2.1-.8l5.6-3.4,2.1-.7h.1a20.13,20.13,0,0,0,4.8-4.1c.8,1.4-1.8,5.8-3.5,6.5s-4.2.7-5.1,1.6c-1.1,1.1-3.9,2.9-5.7,3.1C28.35,49.7,24,48.8,22,45.7Z"/><path class="cls-1" d="M10,30a20.05,20.05,0,1,0,20.1-20A20.1,20.1,0,0,0,10,30ZM30.05,6.3A23.7,23.7,0,1,1,6.35,30,23.6,23.6,0,0,1,30.05,6.3Z"/><path class="cls-1" d="M28,22.9a2.29,2.29,0,0,1-1.9,2.5,2.29,2.29,0,0,1-1.9-2.5c0-1.4,1.6-10.3,1.9-10.3S28,21.6,28,22.9Z"/><path class="cls-1" d="M31.25,17a1.1,1.1,0,0,1-.9,1.1c-.5,0-.8-.5-.8-1.1a8.12,8.12,0,0,1,.8-2.5A6.57,6.57,0,0,1,31.25,17Z"/><path class="cls-1" d="M22.05,20.2c0,.7-.4,1.2-.9,1.2s-.9-.5-.9-1.2a10.81,10.81,0,0,1,.9-3A12,12,0,0,1,22.05,20.2Z"/><path class="cls-1" d="M17,32a1.88,1.88,0,0,1-1.9,1.8,2,2,0,0,1-1.9-1.8,1.9,1.9,0,0,1,1.9-1.9A2,2,0,0,1,17,32Z"/><path class="cls-1" d="M18.55,26.5a1.5,1.5,0,0,1-1.5,1.6,1.58,1.58,0,0,1-1.6-1.6,1.5,1.5,0,0,1,1.6-1.5A1.42,1.42,0,0,1,18.55,26.5Z"/><path class="cls-1" d="M19.35,40.9a1.22,1.22,0,0,1-1.2,1.2,1.18,1.18,0,0,1-1.3-1.2,1.32,1.32,0,0,1,1.3-1.3A1.24,1.24,0,0,1,19.35,40.9Z"/><path class="cls-1" d="M17.85,36.5a.89.89,0,0,1-.9.9,1,1,0,0,1-1.1-.9A1.11,1.11,0,0,1,17,35.4,1.19,1.19,0,0,1,17.85,36.5Z"/><path class="cls-1" d="M22.65,26.4a1.16,1.16,0,0,1-1.2,1.2,1.13,1.13,0,0,1-1-1.2,1.08,1.08,0,0,1,1-1A1.13,1.13,0,0,1,22.65,26.4Z"/><path class="cls-1" d="M50.75,24.7c-.3-.5-6.4,3.6-7.5,4.1-1.9-1.1-3.1-1.6-4.3-2.2l-5-1.2L30.65,24l-.9-.4c0,.2-.1.5-.1.7a4.1,4.1,0,0,0,.1,1.1c.2.6.7.9,1.2,1.3a6.48,6.48,0,0,0,2.1.5,7.77,7.77,0,0,0,2.8,2.2l-1.2.5c-.7.5-1.3.8-1.9,1.3l-7.6,4.3c-3.7,1.5-2.1,3.6.5,2.2.2-.1,6.1-2.8,6.4-2.5.1.1.1.3-.1.5-2.7,1.5-4.9,2.8-7.5,4.3-1.3.8-1.9,1.6-1.4,2.2a.82.82,0,0,0,.7.6,2.42,2.42,0,0,0,1.3-.4c6.2-3.3,8-4.2,8.6-4.6.4-.1.4.1.3.4-2.3,1.5-3.8,2.5-4.8,3.2-.8.6-3.7,2.7-3.3,3.7,0,1.3,2.2.1,2.7-.2a86.2,86.2,0,0,1,7.7-4.5c.5-.2.6.1.3.4s-5.9,3.6-5.9,4.6c0,.2,0,.5.2.6s.2.1.6.1a3,3,0,0,0,1.6-.7l5.7-3.5,2.1-.6a27.58,27.58,0,0,0,5-4.2,8.43,8.43,0,0,1,2.2-1.7c1.2-.5,5-3.2,4.9-3.6Z"/></svg>