<svg id="Capa_1" data-name="Capa 1" xmlns="http://www.w3.org/2000/svg" xmlns:xlink="http://www.w3.org/1999/xlink" viewBox="0 0 60 60"><defs><style>.cls-1{fill:none;}.cls-2,.cls-4{fill:#0033a1;}.cls-2{fill-rule:evenodd;}.cls-3{clip-path:url(#clip-path);}</style><clipPath id="clip-path"><circle class="cls-1" cx="30.48" cy="29.51" r="20.1"/></clipPath></defs><path class="cls-2" d="M11.08,29.61a19.2,19.2,0,1,0,19.1-19.1A19.27,19.27,0,0,0,11.08,29.61Zm19.1-22.7a22.7,22.7,0,1,1-22.6,22.7A22.68,22.68,0,0,1,30.18,6.91Z"/><g class="cls-3"><path class="cls-4" d="M53.08,26.81a54,54,0,0,1-15-2.3,61.81,61.81,0,0,0-8.4-2.4,65.89,65.89,0,0,0-10.9-.9h-14v-.8a5.54,5.54,0,0,1,1.8-.2H19a58.28,58.28,0,0,0,5.9-.3c3.4-.2,6.4-1.6,9.5-2.7a57.6,57.6,0,0,1,16.4-3.8c2-.2,4.1-.4,6.1-.4.2.1.1.3.1.4a2.13,2.13,0,0,1-1.5.7,68.72,68.72,0,0,0-7.8.8,46,46,0,0,0-14.4,4.3,20.44,20.44,0,0,1-4.2,1.3c-1.6,0-3.1.1-4.2.1,1.4.1,3.4-.2,5.3.5a20.25,20.25,0,0,1,3.3.9c1,.4,2.1-.1,3,.4A44.66,44.66,0,0,0,50,25.81c.9.1,1.8.3,2.7.4a.62.62,0,0,1,.6.4Z"/><path class="cls-4" d="M21.18,35.61a20.86,20.86,0,0,0,11.7-3.2,14.82,14.82,0,0,1,5-1.7.77.77,0,0,1-.1-.3c-5.1-1.2-9.9-3.3-15.2-3.6-3.1-.1-6.3-.5-9.4-.7-2.4-.1-4.7-.2-7.1-.2a1.75,1.75,0,0,1-1.2-.4v-.2c6.2-.2,12.4.5,18.6.6A33,33,0,0,1,35,28.81a20.6,20.6,0,0,0,7.8,1.7h10.4c1.2,0,2.5-.1,3.7-.2a.38.38,0,0,1,0,.6c-5.1,0-10.3-.2-15.4.1a20.34,20.34,0,0,0-10.1,2.9c-2.4,1.5-5.2,1.9-8.1,2.1-1.6.1-3.2,0-4.8,0,0-.5.3-.3.6-.3A14.77,14.77,0,0,0,21.18,35.61Z"/><path class="cls-4" d="M8.08,27a117.29,117.29,0,0,1,17.8.8,20,20,0,0,1,6.2,1.8c1.1.5,1.2,1.1.4,1.9A11.11,11.11,0,0,1,28,34c-4,1-8,.8-12,.7-3.3-.1-6.5-1-9.8-1.4-.4-.1-.8-.2-1.3-.3v-.4c3.3.3,6.6,1.1,9.9,1.5,4.9.6,9.7.4,14.1-2.1.7-.4,1.8-.7,1.8-1.4s-1.2-.8-2-1.1a34.53,34.53,0,0,0-9.5-1.7c-3.7-.3-7.4-.3-11.1-.5A.19.19,0,0,1,8.08,27Z"/><path class="cls-4" d="M4.88,45.21a3.93,3.93,0,0,1,2.4,0,47.07,47.07,0,0,0,15.4-1.7,31.09,31.09,0,0,1,6-.9,43.91,43.91,0,0,1,12,.9,95.29,95.29,0,0,0,13.1,1.3c1.1.1,2.1-.1,3.2-.1a.38.38,0,0,1,0,.6c-5.5.2-10.9-.6-16.4-1-5.9-.5-11.8-.9-17.7.7a27.76,27.76,0,0,1-5.7.7,59.06,59.06,0,0,1-10.3.1,13.4,13.4,0,0,0-2,.1Z"/><path class="cls-4" d="M56.88,47.61c-4.2-.1-8.4.3-12.6-.4-1.9-.3-3.9-.7-5.8-1.2a22,22,0,0,0-11.1-.4,15.51,15.51,0,0,0-4.2,1.2,8.53,8.53,0,0,1-3.1.6c-5.1.4-10.1.2-15.2.2v-.4c4.5-.4,9.1,0,13.7-.4a14.36,14.36,0,0,0,3.6-.7,27.62,27.62,0,0,1,14.2-1.6,1.85,1.85,0,0,1,.7.2,61.43,61.43,0,0,1,8.5,1.9.64.64,0,0,0,.6,0,25.07,25.07,0,0,0,7.2.6H57C57.08,47.31,57.08,47.41,56.88,47.61Z"/><path class="cls-4" d="M56.88,35.81c-4.6,0-9.1.2-13.6.6-4.2.4-8.4,1-12.6,1.4a103.55,103.55,0,0,1-16.7.4,61.54,61.54,0,0,1-8.5-1c-.2-.1-.5,0-.7,0v-.8a1.84,1.84,0,0,1,2-.3.37.37,0,0,1,.3.1c1.6.2,3.1.7,4.7.9a68.07,68.07,0,0,0,7.8.5,43,43,0,0,0,8.8-.6c1.9-.3,3.7-.9,5.6-1.2a78.06,78.06,0,0,1,12.8-1.1h8.5c.6,0,1.2-.1,1.6.4A.48.48,0,0,1,56.88,35.81Z"/><path class="cls-4" d="M27.38,31a19.52,19.52,0,0,1-8.5,2.2,38.56,38.56,0,0,1-10.7-1.1c-1.1-.2-2.2.1-3.3-.3V31a.72.72,0,0,1,.9-.5c1.3.2,2.7,0,4,.1a12,12,0,0,1,3.7,1,11.15,11.15,0,0,0,8.6-.3c.3-.1.7-.2.7-.6s-.4-.5-.7-.6a17.88,17.88,0,0,0-8.9-.4,6.63,6.63,0,0,1-3.7-.1,13,13,0,0,0-3.4-.2c-.5,0-.8,0-1-.5v-.2a35.7,35.7,0,0,1,4.6-.4,95.53,95.53,0,0,1,10.7.2,25.33,25.33,0,0,1,4.8.8,12.93,12.93,0,0,0,2.1.7C27.48,30.31,27.68,30.51,27.38,31Z"/><path class="cls-4" d="M56.88,28.41a98.94,98.94,0,0,1-21.7-2.5c-1.3-.3-2.6-.8-3.9-1.2-3-1-6.2-1-9.3-1.3-5.7-.4-11.4-.2-17.2-.2v-.8c6,0,11.9-.1,17.9,0a33.44,33.44,0,0,1,9.4,1.4c.3.1.6.3.9.4a12.15,12.15,0,0,0,3.3,1.4c.9.2,1.7.9,2.7.7,5.9,1.5,11.9,1.6,17.9,2,.1-.1.1,0,0,.1Z"/><path class="cls-4" d="M56.88,29.41c-4.1,0-8.2.1-12.3,0a38,38,0,0,1-13.3-2.7,18.71,18.71,0,0,0-7.3-1.5c-5.8,0-11.6-.6-17.5-.5a9.85,9.85,0,0,1-1.7-.2v-.6h12.7a51.79,51.79,0,0,1,11.1,1.3c.8.2,1.5.5,2.3.7.4-.2.7.5,1.2.2a9.43,9.43,0,0,1,2.3,1,31.32,31.32,0,0,0,10.5,1.8c4,.1,7.9,0,11.9,0C57.08,29.11,57.08,29.21,56.88,29.41Z"/><path class="cls-4" d="M4.88,35.21a39.1,39.1,0,0,0,8.3,1.5c5.8.5,11.6.6,17.3-1.1a18.77,18.77,0,0,0,3-1.2,16.33,16.33,0,0,1,7.8-1.6c5.2,0,10.4-.3,15.7-.2a.75.75,0,0,1,0,.9,2,2,0,0,1-1.5.4c-4.4.2-8.8.2-13.3.2a22.77,22.77,0,0,0-7.7,1.4c-5,1.8-10.2,2.2-15.5,2.2a73.37,73.37,0,0,1-8.1-.5,25.68,25.68,0,0,1-4-.6h0a6.11,6.11,0,0,0-1.3-.3.85.85,0,0,1-.7-.7Z"/><path class="cls-4" d="M39.08,12.91a47.07,47.07,0,0,0-5.2,2.1c-3.3,1.4-6.9,1.8-10.5,2.3a114.16,114.16,0,0,1-18.5,1v-.6c.2-.7.7-.8,1.4-.8,3.1,0,6.3-.1,9.4-.2,3.3-.2,6.5-.4,9.7-.8a35.67,35.67,0,0,0,7.2-1.6,34.47,34.47,0,0,0,4.2-1.4,16.82,16.82,0,0,1,2.4-.7C39.48,12.51,39.38,12.71,39.08,12.91Z"/><path class="cls-4" d="M37.58,42.41c-1.8-.1-3.6-.3-5.4-.4-5.5-.3-10.9.5-16.3,1.3a82.72,82.72,0,0,1-11.1.7v-1.4l.3-.3a1.38,1.38,0,0,1,1.1-.1,6.46,6.46,0,0,0,2.4,0,1.39,1.39,0,0,1,.9,0,3.88,3.88,0,0,0,2.6.1c3.5-.4,7.1-.8,10.7-1.1,4.1-.3,8.3-.1,12.4-.2a10.32,10.32,0,0,1,3,.4c.4.1.7.2.7.7C38.58,42.71,38.08,42.61,37.58,42.41Z"/><path class="cls-4" d="M4.88,16.31a1.75,1.75,0,0,1,1.2-.4c2.9.1,5.8-.2,8.7-.2a77.27,77.27,0,0,0,20.3-3,10.66,10.66,0,0,0,4-2.6h2.8c.1.2.1.5-.1.6-1.7.7-3.2,1.9-5,2.4a83.75,83.75,0,0,1-8.6,2.3,41.92,41.92,0,0,1-7,.9c-4.9.3-9.8.7-14.7.6-.6,0-1.1.2-1.6-.4Z"/><path class="cls-4" d="M31.78,10.11a5.45,5.45,0,0,1-3.8,2.6,26.08,26.08,0,0,1-5.6.8c-3.5.2-7.1.4-10.6.4-2.3,0-4.7-.3-7-.4v-1.4a10.31,10.31,0,0,0,5.2,1c3.1-.1,6.3.2,9.4,0a28.8,28.8,0,0,0,9.2-1.7,4.64,4.64,0,0,0,2-1.3Z"/><path class="cls-4" d="M28.38,10.11c-.3.1-.5.3-.8.4-1.4.3-2.7.7-4.1.9-.6.1-1.1,0-1.7.1a.1.1,0,0,0-.1.1v.1a1.85,1.85,0,0,1-.7.2c-4.1,0-8.3.3-12.4-.2a16.8,16.8,0,0,1-3.8-1.2c0-.2-.1-.4.3-.4h2.5a47.15,47.15,0,0,0,15.9,0Z"/><path class="cls-4" d="M4.88,14.91a171.54,171.54,0,0,0,20.3-1.3,27,27,0,0,0,7.4-2,6.91,6.91,0,0,0,2.2-1.6h2.4a8.25,8.25,0,0,1-4.3,2.3,73.82,73.82,0,0,1-18.1,2.5c-3.3.1-6.7.4-10,.4C4.88,15.21,4.88,15.11,4.88,14.91Z"/><path class="cls-4" d="M21.18,49H4.88v-.6a51.45,51.45,0,0,1,6.8-.1c2.8.1,5.7.3,8.5.5C20.48,48.91,20.88,48.81,21.18,49Z"/><path class="cls-4" d="M21.18,35.61c-.8.4-1.8,0-2.6.4a43.19,43.19,0,0,1-10.2-1.3c-1.1-.3-2.3-.2-3.5-.5V34a3.85,3.85,0,0,1,2.6.2A45,45,0,0,0,21.18,35.61Z"/><path class="cls-4" d="M4.88,39.21c.3-.6.8-.5,1.3-.4a30,30,0,0,0,5.1.8c.4.6-.2.6-.5.8-.9-.1-1.8.4-2.7.2a9.37,9.37,0,0,1-2.9-.6c-.1-.1-.2-.3-.3-.4Z"/><path class="cls-4" d="M46.68,10.91a25.79,25.79,0,0,1,3.9-.4c1.6-.1,3.1-.2,4.7-.2a2.92,2.92,0,0,0,.9-.2H57v.6a79.5,79.5,0,0,0-9.8.4C46.88,11.21,46.68,11.31,46.68,10.91Z"/><path class="cls-4" d="M8.08,27v.4H4.88v-.2A11.26,11.26,0,0,1,8.08,27Z"/><path class="cls-4" d="M4.88,35.61c.6.6,1.4.6,2,1-.7-.1-1.3-.1-2-.2Z"/><path class="cls-4" d="M17.68,10.11a5.8,5.8,0,0,1-3.2,0Z"/><path class="cls-4" d="M4.88,39.61l.2.2a1.93,1.93,0,0,1,0,2.8h-.2Z"/><path class="cls-4" d="M46.68,10.91c.1.1.3.1.4.2-1.6.5-3.3.5-4.9.9l-3.2.9v-.4a39.47,39.47,0,0,1,5.7-1.4C45.38,11,46.08,11,46.68,10.91Z"/><path class="cls-4" d="M10.68,40a.68.68,0,0,0,.6-.4c1.8.1,3.7.2,5.5.2,2.4,0,4.9-.1,7.3-.2.3,0,.7-.1,1-.1,4,.1,8-.2,11.9-.3h7.2c4.2.1,8.4-.3,12.6-.2v.8c-.4.6-1.1.5-1.7.5-5.3,0-10.6-.1-16,0-8.9.3-17.8.1-26.7.2a3.19,3.19,0,0,1-1.9-.3C10.58,40.31,10.58,40.11,10.68,40Z"/><path class="cls-4" d="M56.88,26.81v.4c-1.2-.4-2.6,0-3.8-.4v-.2c0-.1,0-.2.1-.2A3.53,3.53,0,0,1,56.88,26.81Z"/><path class="cls-4" d="M46.08,46.51a3.6,3.6,0,0,1-2.3-.2c-2.2-.5-4.5-1.1-6.7-1.6,2.8,0,5.5.9,8.2,1.6A3.09,3.09,0,0,1,46.08,46.51Z"/><path class="cls-4" d="M27.38,31a1.16,1.16,0,0,0-1-.9c-.5-.2-1-.2-1.4-.7a7.28,7.28,0,0,1,2.4.7C27.88,30.31,28,30.71,27.38,31Z"/><path class="cls-4" d="M40.28,49H26a1.69,1.69,0,0,0-.5-.2c-.3-.1-.9,0-.9-.4s.4-.5.7-.8a8.84,8.84,0,0,1,3.9-1.5,17.54,17.54,0,0,1,7.9.3c.9.4,2,.4,2.9.9a1.4,1.4,0,0,1,.9.3c.2.2.8.1.7.7-.1.4-.5.5-.8.7C40.58,49,40.38,48.91,40.28,49Z"/><path class="cls-4" d="M56.88,48.31c.1.5,0,.8-.6.8H43.08a5.76,5.76,0,0,1,2.9-.5C49.58,48.41,53.28,48.31,56.88,48.31Z"/><path class="cls-4" d="M23.18,46.91a6.29,6.29,0,0,1,4.2-1.2C26,46.11,24.58,46.61,23.18,46.91Z"/><path class="cls-4" d="M40.28,49c.3-.2,1-.3.9-.8s-.8-.7-1.3-.8a.1.1,0,1,1,0-.2,4.8,4.8,0,0,1,1.7.5c.3.1.6.2.7.5s-.4.4-.6.6-.2.1-.3.2Z"/><path class="cls-4" d="M39.88,47.21v.2c-.9-.5-2-.4-2.8-1A9.85,9.85,0,0,1,39.88,47.21Z"/><path class="cls-4" d="M51.48,43.81l-9.5-.6a1.42,1.42,0,0,1-.6-.2c.3-.4.5-.7,1-.7,3.3.3,6.5.6,9.8.6.3,0,.7,0,.9.3s-.1.5-.4.5S52,43.61,51.48,43.81Z"/><path class="cls-4" d="M51.48,43.81c.5-.1,1.1-.3,1.6-.4,0-.1,0-.2.1-.2a4.35,4.35,0,0,1,3.7.2V44A48.74,48.74,0,0,1,51.48,43.81Z"/><path class="cls-4" d="M42.48,42.81a1.8,1.8,0,0,1-1,.2,23.18,23.18,0,0,1-3.8-.6,1.64,1.64,0,0,0,1-.2c.2-.4.5-.4.9-.5a5.34,5.34,0,0,1,2.5.5A.55.55,0,0,1,42.48,42.81Z"/><path class="cls-4" d="M12.48,30.31a14.65,14.65,0,0,1,8.3,0c.2.1.4.1.5.3s-.3.4-.6.5a10.56,10.56,0,0,1-6.8-.1A2.63,2.63,0,0,1,12.48,30.31Z"/><path class="cls-4" d="M8.68,30.11H5.38A5.31,5.31,0,0,1,8.68,30.11Z"/><path class="cls-4" d="M49.88,24.81A44.56,44.56,0,0,1,36,21.21c-.3-.1-.7-.3-.7-.7s.4-.5.7-.7a39.16,39.16,0,0,1,17.3-5.2c1.2-.1,2.4-.2,3.6-.2V15a1.54,1.54,0,0,1-1.3.5A31.06,31.06,0,0,0,43.88,18a6.75,6.75,0,0,1-1.4.2,3.7,3.7,0,0,0-2.4,1.2c-.3.2-.1.5-.1.7.2.8.9,1,1.5,1.2,2,.9,4.1,2,6.4,2.1a1.8,1.8,0,0,1,1,.2c.3.4,1,.3,1.2.9C50,24.71,49.88,24.71,49.88,24.81Z"/><path class="cls-4" d="M55.28,18.11a4.14,4.14,0,0,1,1.6-.2v4.4c-1.9-.3-4-.3-5.8-1.2-.4-.3-1.2-.3-1.2-.8s.7-.6,1.2-.8C52.38,18.91,53.88,18.61,55.28,18.11Z"/><path class="cls-4" d="M52.68,16.71a20.91,20.91,0,0,0-7.8,2h-.1c-.8.4-1.9.7-1.8,1.6,0,.7,1,1.2,1.7,1.5.2.3-.1.3-.2.4a7.24,7.24,0,0,1-2.3-1.2c-.8-.6-.7-.9.1-1.4a24.32,24.32,0,0,1,9.3-3.4l5.3-.6V16a5,5,0,0,1-3.6.6C53.08,16.71,52.88,16.61,52.68,16.71Z"/><path class="cls-4" d="M47.88,18.51a7,7,0,0,1,3-1.2,18,18,0,0,0,2.2-.6,25.12,25.12,0,0,1,2.7-.4c.3,0,.7-.1,1,.2v.2c-1.6.3-3.3.5-4.9.8a11.18,11.18,0,0,0-3.5,1.2C48.38,18.51,48,18.81,47.88,18.51Z"/><path class="cls-4" d="M49.68,24.21l.2-.2c.3-.4.7-.1,1,0,.7.1,1.5.1,2.2.2h0c1,.2,2.1,0,3.2.2.2,0,.5,0,.6.2v.6c-.2.2-.3.2-.6.2-1.6-.1-3.2-.4-4.8-.6C50.88,24.71,50.08,25,49.68,24.21Z"/><path class="cls-4" d="M51.48,24.61l5.4.6v.6c-2.3-.3-4.7-.7-7-1h0C50.38,24.31,51,24.91,51.48,24.61Z"/><path class="cls-4" d="M56.88,16.51c-1.3-.1-2.5.2-3.8.2h-.4a20.26,20.26,0,0,1,4.2-.6Z"/><path class="cls-4" d="M56.88,24.61c-1.3-.2-2.5-.1-3.8-.4h3.8Z"/><path class="cls-4" d="M10.68,40.21c-.5,0-.7.2-.2.6.2.2.5.2.7.4s.6.6,0,.8a9.48,9.48,0,0,1-2.3.5.71.71,0,0,1-.8-.7.62.62,0,0,1,.5-.8c.3-.1.8,0,.8-.5s-.5-.3-.8-.5c-.1,0-.2-.1-.4-.1h2.6A.77.77,0,0,0,10.68,40.21Z"/><path class="cls-4" d="M51.48,24.61a4.4,4.4,0,0,1-1.6.2c-.3-.3-.9-.1-1.2-.6h1A11.63,11.63,0,0,0,51.48,24.61Z"/><path class="cls-4" d="M47.88,18.51c.2,0,.6-.3.6.2-.9.4-1.8.9-2.7,1.3-.6.3-.6.7,0,.9a28.49,28.49,0,0,0,3.1,1.2c.1.1.3.2.2.4a.6.6,0,0,1-.8,0,9.33,9.33,0,0,1-3.3-1.2c-1-.6-1-1,0-1.5A25.5,25.5,0,0,1,47.88,18.51Z"/><path class="cls-4" d="M48.28,22.61c.3,0,.6,0,.6-.4a33.11,33.11,0,0,0,4.2,1.2A26.73,26.73,0,0,1,48.28,22.61Z"/><path class="cls-4" d="M53.08,24.21c-1.1,0-2.2-.1-3.2-.2-1.4-.3-2.8-.6-4.1-1a2.38,2.38,0,0,1-1.1-.6c.4-.4.8.1,1.2.1s.7.5,1.2.3C49.08,23.51,51.08,23.71,53.08,24.21Z"/><path class="cls-4" d="M47.08,22.81c-.9.3-1.6-.3-2.4-.4h-.2c.1-.1.1-.3.2-.4A6.81,6.81,0,0,1,47.08,22.81Z"/></g></svg>