<svg id="Capa_1" data-name="Capa 1" xmlns="http://www.w3.org/2000/svg" viewBox="0 0 60 60"><defs><style>.cls-1{fill:#114480;}.cls-2{fill:#0033a1;fill-rule:evenodd;}</style></defs><ellipse class="cls-1" cx="30.23" cy="38.92" rx="6" ry="2"/><path class="cls-2" d="M10.33,29.32a19.85,19.85,0,1,0,19.8-19.8A19.87,19.87,0,0,0,10.33,29.32Zm19.8-23.5a23.5,23.5,0,1,1-23.3,23.5A23.41,23.41,0,0,1,30.13,5.82Z"/><path class="cls-2" d="M36.63,10.62l-.9-2.1-7.1-.8-4.7,1.1v28.1h0c0-1.1,2.9-2,6.4-2s6.4.9,6.4,2h0l-.1-26.3Z"/><path class="cls-2" d="M22.73,42.42c-4.8-1.5-3.3-4.2-3.3-4.2l1.1.7,1.7-4.5-4.4,2.7,1.1.7h0a3.87,3.87,0,0,0,.2,3.4c2.2,2.3,7.8,3,7.8,3v-.8C26.43,43.42,22.73,42.42,22.73,42.42Z"/><path class="cls-2" d="M37.73,42.42c4.8-1.5,3.3-4.2,3.3-4.2l-1.1.7-1.7-4.5,4.4,2.7-1.1.7h0a3.87,3.87,0,0,1-.2,3.4c-2.2,2.3-7.8,3-7.8,3v-.8C34,43.42,37.73,42.42,37.73,42.42Z"/></svg>