<svg xmlns="http://www.w3.org/2000/svg" viewBox="0 0 34.91 48.54"><defs><style>.cls-1{fill:#020203;}</style></defs><title>Recurso 29</title><g id="Capa_2" data-name="Capa 2"><g id="Capa_1-2" data-name="Capa 1"><path class="cls-1" d="M34.75,1.76h-.28l.28-.07a.46.46,0,0,0-.12-.31.54.54,0,0,0-.15-.15l-.07,0L33.3.7a.58.58,0,0,0-.25,0H31.51l-.06,0a.58.58,0,0,0-.19,0L24.38.34,19,.27,18.2,0l-.39,0h-.76l-.42.05-.71.21-5.4.08L3.63.58a.48.48,0,0,0-.26.07H1.84a.52.52,0,0,0-.22,0L.51,1.21l-.06,0a.31.31,0,0,0-.13.13.55.55,0,0,0-.18.4L0,7.88A.88.88,0,0,0,0,8s0,0,0,0a.45.45,0,0,0,.11.17h0a.49.49,0,0,0,.15.1h0a.57.57,0,0,0,.18,0h1.3L3.26,46.66s0,.12,0,.15v0a.44.44,0,0,0,.16.22h0s0,0,0,0l0,0,0,0a.54.54,0,0,0,.2,0l.09.27.21.36,0,.06.21.19.5.32a.43.43,0,0,0,.17.06l.55.1H29.38l.57-.11.15-.06.51-.33.11-.11.3-.43a.37.37,0,0,0,.07-.14l.07-.2a.51.51,0,0,0,.5-.5L33.07,8.38H34.4a.48.48,0,0,0,.36-.15h0A.52.52,0,0,0,34.89,8a.44.44,0,0,0,0-.17Zm-5,45.39-.08.15-.17.15-.52,0h0l0-.07a.75.75,0,0,0,.05-.16v-.09h.67ZM1.36,2.29,1.27,7.35H1.05l.11-5.06Zm26,45.22H7.54l0-.36H27.43v.07l0,.22v.07ZM5.42,7.35l.09-5.06h1V7.35Zm21.94,0H7.57V2.29h4.75l1.46.51.48.07.36,0h5.65l.44,0,.48-.09L22,2.51l.08,0,.28-.14.18,0h4.83V7.35ZM7.47,46.12l.1-37.74H27.36l.07,37.74ZM29.52,7.35H28.39V2.29h1ZM2.39,2.29H4.47L4.38,7.35H2.3ZM5.66,8.38l-.1,37.74H4.81L3.43,8.38ZM5.21,47.15h.68v.09a.43.43,0,0,0,0,.16l0,.1h-.3l-.22-.06-.24-.24Zm24.91-1h-.78L29.27,8.38H31.5Zm.43-38.77-.08-5.06h2.05l.09,5.06Zm3.33,0h-.25l-.09-5.06h.19Z"/></g></g></svg>