<svg xmlns="http://www.w3.org/2000/svg" viewBox="0 0 29.67 37.31"><defs><style>.cls-1{fill:#020203;}</style></defs><title>Recurso 34</title><g id="Capa_2" data-name="Capa 2"><g id="Capa_1-2" data-name="Capa 1"><path class="cls-1" d="M.82,13.56h.91l1.64,23a.85.85,0,0,0,.85.79h21.2a.84.84,0,0,0,.85-.79l1.64-23h.91a.86.86,0,0,0,.6-.25.84.84,0,0,0,.25-.6V9.32A3.38,3.38,0,0,0,25.93,6,4.23,4.23,0,0,0,19,4.68a4.9,4.9,0,0,0-1.29-.38,3.4,3.4,0,0,0-3.3-2.6,3.48,3.48,0,0,0-1.15.2,5.07,5.07,0,0,0-9,2.4,5.09,5.09,0,0,0-4.3,5v3.39a.86.86,0,0,0,.25.6.77.77,0,0,0,.57.24Zm23.81,22H5l-.12-1.7H24.76Zm.24-3.39H4.76L3.43,13.56H6.8a2.12,2.12,0,0,0,4.15,0H26.19ZM28,11.87H11v-1.7H28ZM5.06,5.93a.86.86,0,0,0,.6-.25.84.84,0,0,0,.25-.6A3.38,3.38,0,0,1,12.23,3.4a.86.86,0,0,0,.55.4.89.89,0,0,0,.67-.13,1.7,1.7,0,0,1,2.64,1.41.86.86,0,0,0,.25.6.84.84,0,0,0,.6.25,3.27,3.27,0,0,1,1.8.53.85.85,0,0,0,1.17-.24,2.55,2.55,0,0,1,4.62.89.86.86,0,0,0,.42.58.84.84,0,0,0,.71,0,1.6,1.6,0,0,1,1.18,0,1.64,1.64,0,0,1,.9.76H10.15a.85.85,0,0,0-.85.85v3.82a.42.42,0,1,1-.84,0V9.32a.86.86,0,0,0-.25-.6.84.84,0,0,0-.6-.25H1.78A3.4,3.4,0,0,1,5.06,5.93ZM1.67,10.17H6.76v1.7H1.67Z"/></g></g></svg>