<svg xmlns="http://www.w3.org/2000/svg" width="17" height="10" viewBox="0 0 17 10"><g><g><path fill="#e1251b" d="M.004 4.794c.014-.037.031-.069.045-.105.15-.482.54-.785 1.031-.79 1.191-.004 2.378 0 3.568 0H13.37c-.067-.073-.102-.114-.146-.16-.594-.615-1.196-1.225-1.784-1.849-.598-.633-.328-1.655.491-1.857.398-.097.74.023 1.031.32.554.579 1.112 1.152 1.665 1.726.602.623 1.2 1.252 1.806 1.871.24.248.474.491.571.844v.413c-.093.349-.327.596-.566.844-1.16 1.193-2.311 2.39-3.467 3.583-.42.435-1.022.486-1.456.128-.505-.422-.54-1.17-.067-1.665.59-.615 1.182-1.225 1.771-1.835.04-.041.08-.087.146-.16h-.225c-3.932 0-7.863-.01-11.799.009C.673 6.115.208 5.89 0 5.207c.004-.138.004-.275.004-.413z"/></g></g></svg>