<svg width="23" height="23" viewBox="0 0 23 23" fill="none" xmlns="http://www.w3.org/2000/svg">
<path d="M12.1307 1L11.8499 1.2512L1.61548 11.5978L1 12.215L1.61638 12.8609L10.1398 21.3837L10.7858 22L11.4049 21.3837L21.7497 11.1501L22 10.8684V1H12.1307ZM12.888 2.79426H20.2056V10.1112L10.7849 19.4755L3.52294 12.2141L12.888 2.79426ZM17.514 4.58852C17.276 4.58852 17.0478 4.68304 16.8795 4.85128C16.7113 5.01952 16.6168 5.24771 16.6168 5.48565C16.6168 5.72358 16.7113 5.95177 16.8795 6.12001C17.0478 6.28826 17.276 6.38278 17.514 6.38278C17.7519 6.38278 17.9801 6.28826 18.1484 6.12001C18.3167 5.95177 18.4112 5.72358 18.4112 5.48565C18.4112 5.24771 18.3167 5.01952 18.1484 4.85128C17.9801 4.68304 17.7519 4.58852 17.514 4.58852Z" fill="#F3F3F3" stroke="#F3F3F3" stroke-width="0.5"/>
</svg>
