<svg width="19" height="20" viewBox="0 0 19 20" fill="none" xmlns="http://www.w3.org/2000/svg">
<path fill-rule="evenodd" clip-rule="evenodd" d="M16.5317 3.53477C16.532 3.53477 16.5307 3.53753 16.5273 3.54306C16.5298 3.53753 16.5315 3.53477 16.5317 3.53477ZM16.3852 3.70002C16.1583 3.49046 15.7314 3.21402 15.048 2.94066C13.6641 2.38709 11.6151 2 9.25005 2C6.88503 2 4.83599 2.38709 3.45206 2.94066C2.76866 3.21403 2.34181 3.49045 2.11493 3.70002C2.34181 3.90959 2.76866 4.18602 3.45206 4.45938C4.83599 5.01295 6.88503 5.40004 9.25005 5.40004C11.6151 5.40004 13.6641 5.01295 15.048 4.45938C15.7314 4.18602 16.1583 3.90959 16.3852 3.70002ZM1.96837 3.53477C1.9686 3.53477 1.97031 3.53753 1.97283 3.54306C1.96941 3.53753 1.96815 3.53477 1.96837 3.53477ZM1.96837 3.86527C1.96815 3.86527 1.96941 3.86251 1.97283 3.85699C1.97031 3.86251 1.9686 3.86528 1.96837 3.86527ZM16.5273 3.85699C16.5307 3.86251 16.532 3.86527 16.5317 3.86527C16.5315 3.86528 16.5298 3.86252 16.5273 3.85699ZM9.25005 7.40004C12.1718 7.40004 14.7771 6.8582 16.4723 6.01203L16.4723 7.19429L16.4723 7.19476C16.4723 7.2318 16.4559 7.38681 16.1628 7.64668C15.8708 7.90552 15.3913 8.18431 14.713 8.43869C13.3636 8.9447 11.4324 9.27811 9.25005 9.27811C7.0677 9.27811 5.1365 8.9447 3.78715 8.43869C3.10879 8.18431 2.62928 7.90552 2.33734 7.64668C2.04632 7.38867 2.02803 7.23403 2.02779 7.19558V7.19429L2.02778 6.01203C3.72297 6.8582 6.32832 7.40004 9.25005 7.40004ZM18.4723 4.11103L18.4723 7.19429L18.4723 7.19476V8.22217L18.4723 10.9194V10.9196C18.4723 11.0518 18.4616 11.1804 18.4414 11.3055H18.4723V15.0306V15.0308C18.4723 15.8499 18.0609 16.5343 17.5202 17.0555C16.9823 17.5741 16.2566 17.995 15.4417 18.3273C13.8068 18.9939 11.6173 19.3833 9.25006 19.3833C6.88285 19.3833 4.69329 18.9939 3.05845 18.3273C2.24353 17.995 1.51776 17.5741 0.979877 17.0555C0.439202 16.5343 0.0278559 15.8499 0.027785 15.0308V15.0306V11.3055H0.0587601C0.0385163 11.1804 0.0277964 11.0518 0.027785 10.9196V10.9194V8.22217H0.0277826V7.19476V4.11103H0.0564272C0.0191415 3.97608 0 3.83895 0 3.70002C0 1.65656 4.14139 0 9.25005 0C14.3587 0 18.5001 1.65656 18.5001 3.70002C18.5001 3.83895 18.481 3.97608 18.4437 4.11103H18.4723ZM2.02779 13.7165V15.0306V15.0308C2.02785 15.1374 2.07676 15.3349 2.36799 15.6157C2.66224 15.8994 3.1406 16.2009 3.81361 16.4754C5.15465 17.0222 7.07622 17.3833 9.25006 17.3833C11.4239 17.3833 13.3455 17.0222 14.6865 16.4754C15.3595 16.2009 15.8379 15.8994 16.1321 15.6157C16.4233 15.3349 16.4723 15.1374 16.4723 15.0308V15.0306V13.7165C16.1525 13.9013 15.806 14.0676 15.4417 14.2161C13.8068 14.8828 11.6173 15.2721 9.25006 15.2721C6.88285 15.2721 4.69329 14.8828 3.05845 14.2161C2.69414 14.0676 2.34764 13.9013 2.02779 13.7165ZM15.4152 10.3114C15.7889 10.1712 16.1446 10.0136 16.4723 9.83733V10.9194V10.9196C16.4723 11.0262 16.4233 11.2237 16.1321 11.5045C15.8379 11.7882 15.3595 12.0897 14.6865 12.3642C13.3455 12.911 11.4239 13.2721 9.25006 13.2721C7.07622 13.2721 5.15465 12.911 3.81361 12.3642C3.1406 12.0897 2.66224 11.7882 2.36799 11.5045C2.07676 11.2237 2.02785 11.0262 2.02779 10.9196V10.9194V9.83733C2.35553 10.0136 2.71116 10.1712 3.08491 10.3114C4.71143 10.9213 6.89137 11.2781 9.25005 11.2781C11.6087 11.2781 13.7887 10.9213 15.4152 10.3114Z" fill="#F3F3F3"/>
</svg>
