<svg xmlns="http://www.w3.org/2000/svg" viewBox="0 0 34.64 46.31"><defs><style>.cls-1,.cls-2{fill:#020203;}.cls-1{fill-rule:evenodd;}</style></defs><title>Recurso 33</title><g id="Capa_2" data-name="Capa 2"><g id="Capa_1-2" data-name="Capa 1"><path class="cls-1" d="M15.21,5.56h4.22a.8.8,0,0,0,0-1.6H15.21a.8.8,0,0,0,0,1.6Z"/><path class="cls-1" d="M15.21,20.67h4.22a.8.8,0,0,0,0-1.6H15.21a.8.8,0,0,0,0,1.6Z"/><path class="cls-1" d="M15.21,35.26h4.22a.8.8,0,0,0,0-1.6H15.21a.8.8,0,0,0,0,1.6Z"/><path class="cls-2" d="M33.74,46.31H.9a.9.9,0,0,1-.9-.9V.9A.9.9,0,0,1,.9,0H33.74a.9.9,0,0,1,.9.9V45.41A.9.9,0,0,1,33.74,46.31ZM1.8,44.51h31V1.8H1.8Z"/><path class="cls-2" d="M33.74,15.67H.9a.9.9,0,1,1,0-1.8H33.74a.9.9,0,0,1,0,1.8Z"/><path class="cls-2" d="M33.74,31H.9a.9.9,0,0,1,0-1.8H33.74a.9.9,0,0,1,0,1.8Z"/></g></g></svg>