<svg id="Capa_1" data-name="Capa 1" xmlns="http://www.w3.org/2000/svg" viewBox="0 0 60 60"><defs><style>.cls-1,.cls-3{fill:#0033a1;}.cls-1{fill-rule:evenodd;}.cls-2{fill:none;}</style></defs><path class="cls-1" d="M29.92,11.26a19.45,19.45,0,1,0,19.4,19.4A19.38,19.38,0,0,0,29.92,11.26Zm22.9,19.3a22.95,22.95,0,1,1-22.89-23A22.91,22.91,0,0,1,52.82,30.56Z"/><polygon class="cls-2" points="38.42 15.96 38.02 15.56 37.73 15.46 36.33 15.36 33.52 14.86 32.73 14.86 32.63 14.86 32.33 15.06 32.33 15.06 31.52 15.56 29.43 16.96 27.52 18.46 26.02 20.16 23.73 22.86 30.52 23.86 30.52 23.86 31.13 23.36 31.13 23.36 32.23 22.16 32.52 22.36 32.52 22.36 32.23 22.16 32.33 21.96 32.42 21.56 32.42 21.56 32.42 20.96 32.52 20.56 32.42 20.26 32.73 19.96 33.02 20.26 32.73 19.96 33.63 19.26 34.73 18.16 35.02 18.36 34.83 18.06 35.02 17.96 35.13 17.96 35.13 18.06 35.23 18.06 35.23 17.96 37.02 18.16 37.83 17.66 38.52 16.76 38.52 16.66 38.52 16.26 38.42 15.96"/><polygon class="cls-2" points="31.93 14.36 32.02 14.36 32.02 14.36 32.42 14.16 32.73 14.06 33.42 14.06 31.02 13.76 30.93 13.76 31.02 14.26 31.02 14.26 31.93 14.36"/><polygon class="cls-2" points="34.13 19.76 33.92 20.06 42.92 21.36 43.83 20.36 44.13 20.16 35.13 18.86 34.13 19.76"/><polygon class="cls-2" points="33.23 21.06 33.23 21.16 34.13 21.36 34.23 21.26 34.23 21.36 34.23 21.36 34.42 21.16 34.92 21.06 35.33 21.06 40.42 21.76 41.02 22.26 41.13 22.36 41.92 22.46 42.23 22.06 42.23 22.06 33.23 20.66 33.23 21.06"/><polygon class="cls-2" points="26.52 26.66 26.63 26.86 27.32 26.96 27.73 26.46 23.13 25.86 26.13 26.26 26.52 26.66"/><polygon class="cls-2" points="22.13 12.96 22.82 13.06 23.02 12.76 23.23 12.56 20.13 12.16 21.63 12.46 21.93 12.76 22.13 12.96"/><polygon class="cls-2" points="28.93 16.36 29.02 16.26 29.93 15.26 30.23 15.46 30.32 15.36 30.32 15.36 30.02 15.26 30.13 14.96 30.13 14.66 30.13 14.56 30.52 14.56 30.13 14.56 30.23 14.16 30.23 13.76 30.23 13.36 30.32 13.16 30.73 13.36 30.52 12.96 31.32 12.36 30.93 12.06 30.82 12.06 30.82 11.66 30.73 12.06 25.93 11.26 25.63 11.36 25.43 11.46 24.32 12.56 24.02 12.36 24.32 12.56 23.63 13.26 22.32 14.96 21.63 15.76 21.63 15.76 21.52 15.96 28.23 16.86 28.93 16.36"/><polygon class="cls-2" points="27.02 17.86 27.32 17.66 18.32 16.36 17.32 17.36 17.13 17.56 26.13 18.86 27.02 17.86"/><polygon class="cls-2" points="18.63 25.26 18.73 25.66 19.73 25.76 20.13 25.56 20.43 25.46 22.02 25.66 18.73 25.16 18.63 25.26"/><polygon class="cls-2" points="38.52 14.96 38.73 15.16 38.92 15.46 39.63 15.46 39.83 15.16 40.02 15.06 38.02 14.76 38.52 14.96"/><polygon class="cls-2" points="41.73 13.36 41.83 13.46 41.73 13.36 41.73 13.26 41.83 13.26 41.83 13.16 32.92 11.86 32.83 11.86 32.13 12.66 31.93 12.86 31.73 13.06 40.63 14.36 41.73 13.36"/><polygon class="cls-2" points="50.13 24.46 49.92 24.36 49.92 24.56 49.92 24.56 50.13 24.46"/><polygon class="cls-2" points="36.73 26.46 36.13 26.96 45.13 28.26 46.13 27.26 46.42 27.06 37.42 25.76 36.73 26.46"/><polygon class="cls-2" points="36.42 28.26 36.42 28.26 36.83 28.06 37.23 27.96 38.52 28.16 35.42 27.66 35.42 28.16 36.42 28.26"/><polygon class="cls-2" points="42.83 28.76 43.23 29.06 43.42 29.26 44.13 29.36 44.42 28.96 39.83 28.26 42.83 28.76"/><polygon class="cls-2" points="17.43 18.86 17.43 18.86 17.43 18.86 17.43 18.86 17.63 18.76 18.13 18.56 18.73 18.56 19.52 18.76 21.63 19.06 23.32 19.26 23.73 19.46 24.23 19.66 24.32 19.86 25.13 19.96 25.43 19.66 25.43 19.56 16.43 18.26 16.43 18.56 16.43 18.76 17.43 18.86"/><polygon class="cls-2" points="35.33 28.96 35.42 28.86 35.33 28.86 35.33 28.96"/><polygon class="cls-2" points="34.83 29.36 34.83 29.26 34.63 29.16 34.83 29.36"/><polygon class="cls-2" points="28.63 34.16 28.73 34.06 28.63 34.06 28.63 34.16"/><polygon class="cls-2" points="30.93 32.36 31.82 31.56 22.82 30.26 21.82 31.26 21.63 31.46 30.52 32.76 30.93 32.36"/><polygon class="cls-2" points="29.02 25.16 29.63 24.66 20.63 23.26 19.52 24.26 19.32 24.46 28.32 25.76 29.02 25.16"/><polygon class="cls-2" points="40.73 23.36 40.63 22.86 40.33 22.66 40.13 22.56 39.42 22.46 35.33 21.76 35.02 21.76 34.83 21.86 34.63 22.06 34.52 21.96 30.93 24.46 30.63 24.06 30.52 24.46 30.82 24.66 29.52 25.76 28.73 26.46 26.93 28.66 25.93 29.86 32.63 30.76 32.83 30.66 33.52 30.16 34.42 29.06 34.42 29.06 34.52 28.96 34.63 28.36 35.02 28.46 34.63 28.36 34.73 28.16 34.73 27.46 34.83 27.06 35.23 27.26 34.92 26.96 36.23 25.86 36.92 25.06 37.13 24.86 37.33 24.86 37.33 24.96 37.42 24.96 37.42 24.86 39.33 25.16 39.83 24.86 40.02 24.56 40.13 24.66 40.83 23.76 40.73 23.66 40.83 23.66 40.92 23.66 40.73 23.66 40.73 23.36"/><polygon class="cls-2" points="29.63 33.86 29.93 33.46 20.93 32.16 20.82 32.46 20.93 32.66 21.93 32.76 22.13 32.66 22.63 32.46 23.02 32.46 28.23 33.36 28.52 33.56 28.73 33.76 29.63 33.86"/><polygon class="cls-2" points="39.23 41.36 39.33 40.96 39.73 41.16 39.42 40.86 40.23 40.16 40.13 39.96 39.73 39.76 34.92 39.16 34.42 39.16 34.42 39.26 33.23 40.36 32.63 41.06 30.43 43.76 37.23 44.76 37.13 44.66 38.02 44.06 38.63 43.26 38.92 42.96 38.92 42.96 39.02 42.86 39.13 42.46 39.13 42.36 39.52 42.36 39.13 42.16 39.13 42.06 39.23 41.36"/><polygon class="cls-2" points="39.83 42.86 39.83 42.86 39.92 42.76 39.83 42.76 39.83 42.86"/><polygon class="cls-2" points="39.92 42.06 40.92 42.16 40.92 42.16 40.92 42.16 41.42 41.96 41.73 41.86 42.52 41.96 39.92 41.56 39.92 42.06"/><polygon class="cls-2" points="25.43 46.46 26.32 46.66 26.32 46.66 26.32 46.66 26.43 46.66 26.93 46.36 30.63 46.86 32.73 47.16 33.13 47.46 33.33 47.66 34.02 47.86 34.42 47.36 25.43 46.06 25.43 46.46"/><polygon class="cls-2" points="26.02 45.36 35.02 46.66 36.02 45.66 36.33 45.46 27.32 44.16 26.02 45.36"/><polygon class="cls-2" points="39.23 43.26 39.33 43.26 39.33 43.16 39.02 43.06 39.23 43.26"/><polygon class="cls-2" points="16.32 19.46 16.32 19.56 16.43 19.56 16.32 19.46"/><polygon class="cls-2" points="38.33 33.96 47.33 35.26 47.73 34.76 48.63 34.06 39.63 32.76 38.33 33.96"/><polygon class="cls-2" points="38.92 34.96 39.52 34.96 40.13 34.96 37.73 34.66 37.73 35.06 38.73 35.26 38.92 34.96"/><polygon class="cls-2" points="45.13 35.76 45.63 36.26 46.42 36.36 46.73 35.96 41.13 35.06 45.13 35.76"/><polygon class="cls-2" points="37.63 35.96 37.63 35.96 37.83 35.86 37.63 35.86 37.63 35.96"/><polygon class="cls-2" points="37.02 36.36 37.02 36.26 36.83 36.06 37.02 36.36"/><polygon class="cls-2" points="45.23 37.06 45.13 36.86 44.73 36.46 44.52 36.46 39.52 35.66 39.33 35.76 39.13 35.86 39.02 35.86 39.13 35.86 38.63 36.26 36.63 37.56 36.42 37.66 36.33 37.76 36.33 37.76 35.73 38.26 35.23 37.66 35.83 37.16 36.73 36.06 36.73 35.96 36.83 35.86 36.92 35.56 36.92 35.36 36.92 34.16 37.23 33.86 39.23 32.06 39.52 32.26 39.33 31.96 39.63 31.86 39.63 31.96 39.73 31.96 39.73 31.86 41.52 32.16 42.33 31.56 42.33 31.56 43.02 30.76 43.02 30.66 43.02 30.16 42.83 29.86 42.52 29.56 37.33 28.76 37.13 28.76 36.83 28.96 36.83 28.96 35.92 29.56 33.23 31.26 31.52 32.86 29.43 35.26 28.23 36.76 35.13 37.76 35.02 38.26 35.13 38.36 39.83 39.06 39.83 39.36 39.92 39.06 40.63 39.36 40.83 39.56 41.52 38.96 41.73 39.26 41.63 38.86 41.73 38.86 41.83 39.06 41.83 38.86 41.92 38.86 41.92 38.76 43.73 39.06 44.33 38.76 44.52 38.46 44.63 38.46 45.23 37.66 45.23 37.66 45.33 37.66 45.42 37.56 45.23 37.56 45.23 37.06"/><polygon class="cls-2" points="16.13 37.46 16.13 37.46 16.23 37.56 16.13 37.46"/><polygon class="cls-2" points="17.93 26.86 18.02 26.86 18.02 26.86 17.73 26.66 17.93 26.86"/><polygon class="cls-2" points="14.32 38.26 15.03 38.36 15.03 38.36 15.43 37.96 12.32 37.46 13.82 37.86 14.22 38.16 14.32 38.26"/><polygon class="cls-2" points="18.52 26.56 18.63 26.46 18.52 26.46 18.52 26.56"/><polygon class="cls-2" points="16.02 28.26 16.63 27.76 16.63 27.76 17.63 26.66 17.73 26.66 17.82 26.46 17.82 26.06 17.82 26.06 18.23 26.06 17.82 25.96 17.93 25.66 17.93 25.16 17.93 24.76 18.02 24.56 18.43 24.76 18.13 24.46 19.02 23.76 20.23 22.56 20.52 22.86 20.52 22.76 20.23 22.56 20.43 22.46 20.52 22.46 20.52 22.46 20.63 22.46 20.73 22.46 22.43 22.66 23.02 22.36 23.32 22.16 23.32 22.16 24.02 21.36 24.02 21.16 23.93 20.66 23.82 20.46 23.63 20.26 23.43 20.16 23.13 20.06 20.73 19.66 19.32 19.56 18.73 19.36 18.13 19.36 17.93 19.46 17.73 19.56 17.73 19.56 17.02 19.96 14.13 21.96 13.82 21.56 13.82 21.96 14.03 22.16 13.03 22.96 11.93 24.06 11.93 24.06 11.43 24.56 10.13 26.26 9.13 27.36 15.93 28.36 16.02 28.26"/><polygon class="cls-2" points="22.52 38.46 22.93 38.66 22.63 38.36 23.43 37.66 23.23 37.46 22.93 37.36 22.93 36.96 22.93 37.36 18.13 36.66 17.73 36.66 17.73 36.66 17.63 36.76 16.52 37.86 15.63 38.86 14.03 40.86 13.63 41.26 20.43 42.26 21.13 41.66 21.13 41.66 22.13 40.56 22.43 40.76 22.43 40.76 22.13 40.46 22.23 40.26 22.32 39.96 22.32 39.96 22.73 39.96 22.32 39.86 22.43 39.56 22.32 39.06 22.43 38.66 22.52 38.46"/><polygon class="cls-2" points="18.32 35.76 18.32 35.86 23.02 36.56 23.02 36.56 23.32 36.66 23.82 36.96 24.02 37.16 24.63 36.56 24.82 36.36 25.02 36.36 25.02 36.36 25.13 36.46 25.13 36.36 26.93 36.56 27.73 36.06 28.43 35.16 28.43 35.06 28.43 34.86 28.32 34.46 28.32 34.36 27.93 34.06 27.23 33.86 26.23 33.76 22.93 33.26 22.73 33.26 22.52 33.36 22.23 33.46 22.23 33.46 21.82 33.76 19.73 35.16 18.93 35.76 18.43 35.16 18.93 34.76 19.93 33.56 20.23 33.86 20.23 33.76 19.93 33.56 20.02 33.36 20.13 33.06 20.13 32.96 20.13 32.36 20.13 32.06 20.13 31.76 20.23 31.56 20.63 31.66 20.43 31.36 21.32 30.66 22.43 29.56 22.73 29.86 22.52 29.46 22.82 29.36 22.82 29.46 22.93 29.46 22.93 29.36 24.73 29.66 25.52 29.06 25.52 29.06 26.23 28.26 26.23 28.16 26.23 27.66 26.02 27.46 26.32 27.26 26.02 27.46 25.82 27.16 25.73 27.06 25.52 27.06 21.23 26.36 20.52 26.26 20.32 26.36 20.13 26.46 20.13 26.46 17.93 27.86 16.52 28.86 14.72 30.46 12.63 32.86 11.43 34.26 11.43 34.26 11.43 34.26 18.32 35.36 18.32 35.76"/><polygon class="cls-2" points="33.83 38.66 33.92 38.56 34.02 38.56 25.13 37.26 24.43 37.86 24.23 38.06 24.13 38.16 23.82 38.36 32.73 39.76 33.83 38.66"/><polygon class="cls-2" points="31.02 40.66 31.82 40.86 32.13 40.46 30.32 40.16 30.52 40.26 30.93 40.56 31.02 40.66"/><polygon class="cls-2" points="23.13 39.16 23.13 39.56 23.13 39.56 24.02 39.76 24.02 39.66 24.13 39.76 24.52 39.46 24.93 39.46 25.73 39.46 23.13 39.06 23.13 39.16"/><polygon class="cls-2" points="23.02 40.46 23.02 40.46 23.13 40.36 23.02 40.36 23.02 40.46"/><path class="cls-3" d="M46.82,17.56h0l.11.1C46.82,17.66,46.82,17.66,46.82,17.56Z"/><path class="cls-3" d="M49.52,22.36h0l.11.1Z"/><path class="cls-3" d="M44.22,45.76H44v.4l-.3-.3L42.62,47l-.9.8.3.3-.3-.3-.2.2v.7c.6-.4,1.1-.8,1.7-1.2l1-1h.1c.3-.2.5-.5.8-.7Z"/><path class="cls-3" d="M50.42,32.56l-.8.6-.2.1-6.7-1h0l.9-1.1,1.4-1.6.5-.5h0l1.2-1.1.9-.7-.2-.2.1-.4.3.4.9-.6h0l.1-.1.5-.4,1.3-.8a8.8,8.8,0,0,0-.5-1.5h0l-.3-.9-.2-.1-.1.2-.1.4v.1l-.1.4v.4l-.1.3-.1.2h0l-.9,1.1-.9.6h0l-6.8-1,2.3-2.7,1.6-1.7,1.9-1.5,1.2-.8A4.23,4.23,0,0,1,47,18l-.3-.3-.3.3-.6.9-.8.6-6.8-1,.1-.2h0l2-2.5.7-.7,1.1-1.2.1-.1h.4l.4.1a22,22,0,0,0-2.5-1.7l-4.5-.7.9-1.1c-.3-.1-.5-.2-.8-.3l-.5.6-.9.6-1.8-.3v.1h-.1v.1l-.1-.2-.1.1.2.4-.2-.3-.3.2-.5.5-.7-.5h-.3l-4.6-.7-.1-.1.1-.4-1.7-.3a10.56,10.56,0,0,0-1.9.6l2.5.4-.2.1-.1.2-.9.9-3.8-.6-1.2.6h0a6.73,6.73,0,0,0-1.1.7l1.7.2,1.4.2.3.1.3.4.2.3.1.4v.1l-.1.1-.7.8-.8.5-1.7-.3v.1h-.1v-.1l-.3.1.2.3h0l-.3-.3-1.1,1.1-.9.8.2.3-.4-.2-.1.2v.3l-.1.4v.9l-.1.2.3.3v.1l-.3-.3-1,1.2-.8.5v.1l-3.3-.5c-.1.3-.3.5-.4.8l2.8.4-.3.3-1,1-2.1-.3c-.1.2-.2.5-.3.7l1.6.3-.3.4-.7-.1-.1-.1-.5-.3h0a2.35,2.35,0,0,0-.2.8l.2.1.1.2.2.3.1.4v.2l-.8.8-.3.2c-.1.4-.1.8-.2,1.2l6.9,1-.9.8-.4.4-5.7-.8v.8l5.1.8-.4.4-.8-.1-.5-.5-3.4-.5v.8l2.8.4.3.1.4.4.1.2.1.5v.1l-.8,1-.7.4-1.8-.3v.1h0c0,.3.11.5.11.8l8.8,1.3-.11.1h-.1l.2.1.1.1-.3-.3-1,1.1-7.3-1.1a7.49,7.49,0,0,0,.5,1.6l2.4.3,1.7.3.1.1.2.3.3-.2-.3.2.2.2.1.4v.1l-.6.7-.1.1h0l-.4.3-.6.3-1.7-.2v.1a4.05,4.05,0,0,1,.5.9l8.4,1.2-1.3,1.2-6.1-.9a5.5,5.5,0,0,0,.7.9l4.9.7-.4.4-.8-.1-.1-.1-.6-.4-3-.5c.3.3.5.6.8.9l.3.1,1.5.2.2.1.3.2.11.5v.4l-.4.5c.2.2.4.3.6.5l1.6-1.8.8-.9h0V45l1.9-1.8h.1l-.2-.3v-.1l.3.4.9-.7,2.1-1.4.6-.5h.1l.2-.1h.2l5,.6.2.1.2.2.19-.1.2.3.1.5v.1l-.6.7h0l-.4.4-.39.3-1.7-.3v.1h-.1v-.1l-.31.1.2.3-.3-.3-2,1.9h0l-.3.2-.1,1.3v.4l-.2.2.3.2h0l-.3-.2-.8.9-.2.3-.7.5h0l-5.3-.8a17.39,17.39,0,0,0,1.8,1.1l2.5.4-.3.2-.4.4c.3.1.5.2.8.3l.11-.1.89-.7-.2-.2.11-.4.3.4,1.5-1.1,1.5-.9.6-.4v.1l.4-.3,1.2.1,4.1.7.3.3.1.3.1.5h.1l-.3.4-1,.8-.4.3-1.7-.2v.1h-.1v0h-.11l.11.4-.31-.3-1.1,1.1-.8.7a4.1,4.1,0,0,1,1.1.1l.2-.1,1-1,4.6.7a17.18,17.18,0,0,0,2.11-.6l-3.61-.5.61-.8h0l1.2-1.4,1-1.1,1.1-1.1.9-.7-.2-.2.1-.4.3.4,3.7-2.5h0l.3-.2h1l4.2.6.2.1.1.1c.2-.2.3-.4.5-.6l-.1-.1-.2-.1.5.1a2.51,2.51,0,0,0,.4-.7L41,41.16l.3-.3.1-.1.9-.8h0l6.8,1a5.94,5.94,0,0,1,.4-.8l-4.2-.6,3.3-3.9,1.8-1.6.8-.6h0l.1-.1a6.6,6.6,0,0,0,.1-1.4Zm-.5-8.2h0Zm-5.79,5-.7-.1-.2-.2-.3-.3-3-.5,4.6.7Zm2.29-2.3-.2.2-1.1,1-9-1.3.6-.5.7-.7Zm-11,1.1v-.4l3.1.5-1.3-.2-.4.1-.39.2h0Zm0,.7-.1.1v-.1Zm5.4-5.2h0l-.8,1h0l-.2.2-.5.3-1.8-.3V25h-.1v-.1h-.2l-.2.2-.8.8L34.92,27l.3.3-.4-.2-.1.4v.9l.4.1h-.4l-.1.5-.1.2h0l-.9,1.1-.8.5-.2.1-6.7-1,.9-1.1,1.8-2.2.8-.8,1.3-1.1-.2-.2.11-.4.3.5,3.6-2.5.1.1.2-.2.2-.1h.3l4.2.7.6.1.2.1.3.2.1.5.09.2Zm-6,5.6h0l-.19-.1Zm-6.3,4.3-.3-.2-5.2-.9h-.39l-.5.2-.2.1-1.11-.1v-.2l.11-.3,9,1.3-.4.4-.8-.1Zm.2.5h0l-.1.1.1-.1Zm-7.8-.6-.1.1h0v-.1Zm.71-2,.3-.2,1-1,9,1.3-.8.8-.4.4Zm-2.31-7,.2-.2,1.11-1,9,1.3-.61.5-.7.7Zm2.7,1.2-1.5-.2-.39.1-.4.2-1-.1v-.6Zm5.7.8-.4.4-.69-.1-.11-.2-.39-.4-3-.5ZM33.13,22Zm9.09.1-.3.3-.8-.1-.1-.1-.6-.4-5.1-.8h-.4l-.5.2-.2.2h0v-.1h-.1l-.9-.1V21l.1-.3,8.9,1.4Zm1.91-1.9-.31.2-.89,1-9-1.3.2-.2,1-1Zm-5.61-3.4-.7.9-.89.5-1.7-.3V18h-.1v-.1H35l-.2.2.2.3-.3-.3-1.1,1.1-.9.7.3.3-.3-.3-.2.2v.3l-.1.3v1l-.2.2.3.2v.1l-.3-.3-1.1,1.2h0l-.7.5h0l-6.8-1,2.3-2.7,1.5-1.7,1.8-1.5,2.2-1.4.8-.5h0l.2-.2h1l2.8.4,1.4.2.3.1.4.4.2.6.11.4v.1Zm-7.7-1.7Zm.1-1.3h0l2.4.3h-.9l-.4.2h-.1l-.9-.1h0Zm7.8,2Zm1.1-.6-.19.3-.7-.1-.2-.3-.3-.2-.4-.2,1.9.3Zm-7.9-2.3.2-.2.7-.7h.1l9,1.3-.1.1h0l-.1.1.2.2-.2-.2-1,1.1-9-1.3Zm-10.29-.4-1.5-.3,3,.4-.11.1-.2.3-.69-.1-.11-.2Zm0,3.3h0l.69-.8,1.31-1.7.69-.7-.3-.3.3.3,1.11-1.1.2-.2h.3l4.8.7.1-.4V12h.1l.5.3-.9.7.2.3-.3-.2-.1.2-.1.4v.5l-.1.3.39.1h-.39v.1l-.11.4-.1.2.4.2h-.1l-.3-.2-.9,1.1-.1.1-.7.6-6.7-1Zm-4.31,1.6,1-1,8.9,1.3-.3.2-.9,1-9-1.3Zm-.9.9,9,1.3-.1.1-.3.4-.7-.1-.2-.2-.5-.3-.5-.1-1.7-.3-2.1-.3-.7-.1h-.7l-.5.2-.2.1h0l-1-.1v-.2Zm-.1,1.2Zm-7.19,7.9,1-1.1,1.39-1.7.4-.5h0L13,23l1-.8-.2-.2.11-.4.3.4,2.9-2,.69-.4h0l.2-.1.2-.1h.5l.7.1,1.3.1,2.4.4.3.1.2.1.2.2.1.2.1.5v.2l-.7.8h0l-.19.2-.61.3-1.8-.3v.1h-.2l-.2.1.2.3v.1l-.3-.3L19,23.66l-.89.7.3.3-.3-.2-.11.2-.1.4v.5l-.1.3.4.1h-.4v.1l-.1.3-.1.2h0l-1,1.1h0l-.7.5-.1.1Zm9.5-.9Zm-.61.4h0l-.3-.2Zm-6.6,7.4h0l1.2-1.5,2.1-2.4,1.8-1.6,1.5-1.1,2.11-1.3h0l.19-.1h.2l.7.1,4.3.7h.3l.11.1.2.3.3-.2-.3.2.19.3.11.4v.1l-.7.9h0l-.9.5-1.8-.3v.1h-.1v-.1l-.3.1.19.3-.3-.3-1.1,1.1-1,.7.2.3-.3-.2-.1.2v.3l-.1.4v1l-.2.2.3.2v.1l-.3-.3-1,1.2-.5.4.5.6.8-.7,2.1-1.3.4-.4h0l.2-.2.2-.1h.2l3.3.5,1,.1.7.1.4.4h.1l.1.4v.4l-.7.8-.8.5-1.8-.3V36H25v-.1h-.2l-.2.2-.6.6-.2-.2-.5-.3H23l-4.7-.7-.1-.1.1-.5Zm4.71,3.2.1.1-.1-.1Zm-2.31.4-1.5-.3,3.11.4-.4.4h0l-.7-.1-.1-.2Zm8.6,1.7-.1.3.4.1h-.4v.1l-.1.3-.2.2.3.2v.1l-.3-.3-1,1.2h0l-.7.5-6.8-1,.4-.4,1.6-2,.9-1,1.1-1.1.1-.1H18l4.8.7.1-.4v.4l.3.1.2.2-.8.7.3.3-.4-.2-.1.2-.1.4Zm.6.9Zm1.9-1-.4.1-.39.2h0l-.9-.1h0v-.5l2.5.4Zm-1.1-1.1.31-.3.1-.1.2-.2.7-.7L34,38.36h-.1l-.1.1-1.1,1.1Zm9.2,1.7Zm-2.5.2-.2-.1,1.81.3-.31.4-.8-.1-.1-.1Zm-5.2,7.1Zm8.7.5-.8-.1-.2-.2-.3-.3-2.2-.4-3.6-.5-.5.3h-.1l-.9-.2V46l9,1.3Zm2-2.2-1,1-9-1.3,1.3-1.2,9,1.3Zm3.3-2.4h0l-.19-.1.19.1Zm.2-.9h-.39v.1l-.11.3-.1.2h0l-.3.3-.6.8-.9.6h0l-6.8-1,2.2-2.7.6-.7,1.1-1.1h.1l.5-.1,4.81.7L40,40l.11.2-.81.7.31.3-.4-.2-.1.4v.7l-.11.2Zm.3.5Zm2.7-.9h-1.1l-.4.2h0L40,42v-.5Zm2.8-4.3h0l-.69.9h0l-.31.2-.5.3-1.8-.3v.1h-.1V39l-.1-.2-.1.1.2.3-.3-.3-.7.6-.2-.2L40,39l-.2.4.1-.4-4.7-.7-.1-.1.1-.4-6.9-1,1.2-1.5,2.11-2.4,1.8-1.6,2.7-1.7.8-.6h0l.3-.2.2-.1,5.2.8.3.3.1.3.1.5v.1l-.7.9h0l-.8.5-1.7-.3v.1h-.1v-.1l-.3.1v.4l-.3-.3-2,1.9-.3.2-.11,1.2v.5l-.1.2h0l-.9,1.1-.6.5.5.6.6-.5h0l.11-.1.2-.2,2-1.2.5-.4-.11-.1.11.1.19-.1h.2l5,.7h.2l.4.3.1.3.1.7Zm-7.6-2.6v-.4l2.4.4h-.7l-.5.1-.3.2Zm.1.8-.19.1h-.11v-.1Zm-.8.4h0l-.2-.2Zm9.4.1-.8-.1-.5-.5-4-.6,5.7.8Zm1.3-1.6-.4.5-9-1.3,1.31-1.2,9,1.3Z"/><path class="cls-3" d="M27.32,10h0l.31-.2.89-.6c-.6,0-1.1.1-1.7.1l-.1.1-.5.4.5.6Z"/></svg>