<svg width="22" height="22" viewBox="0 0 22 22" fill="none" xmlns="http://www.w3.org/2000/svg">
<path d="M4.96766 13.5543L3.32865 20.6501C3.2779 20.865 3.29313 21.0902 3.37237 21.2963C3.4516 21.5023 3.59116 21.6797 3.7728 21.8053C3.95444 21.9308 4.16973 21.9987 4.39054 22C4.61136 22.0013 4.82744 21.936 5.01056 21.8126L11.0001 17.8204L16.9896 21.8126C17.177 21.937 17.398 22.001 17.6228 21.9961C17.8477 21.9912 18.0656 21.9175 18.2474 21.785C18.4291 21.6526 18.5659 21.4676 18.6394 21.2551C18.7129 21.0426 18.7195 20.8127 18.6583 20.5963L16.6464 13.5576L21.6361 9.06827C21.7959 8.92441 21.91 8.73686 21.9643 8.52884C22.0186 8.32081 22.0108 8.10142 21.9417 7.89781C21.8727 7.6942 21.7455 7.51528 21.5758 7.3832C21.4061 7.25112 21.2014 7.17165 20.9871 7.15464L14.7159 6.65533L12.0022 0.649389C11.9157 0.455997 11.775 0.291777 11.5972 0.176546C11.4194 0.0613154 11.212 0 11.0001 0C10.7882 0 10.5808 0.0613154 10.403 0.176546C10.2252 0.291777 10.0845 0.455997 9.99799 0.649389L7.28427 6.65533L1.01313 7.15354C0.802434 7.17023 0.601004 7.24725 0.432942 7.3754C0.26488 7.50355 0.137302 7.67739 0.0654717 7.87613C-0.00635845 8.07487 -0.0193997 8.2901 0.0279085 8.49605C0.0752166 8.70201 0.180871 8.88998 0.332231 9.03747L4.96766 13.5543ZM8.10598 8.79662C8.30232 8.78116 8.49089 8.71317 8.65191 8.59978C8.81293 8.48639 8.94048 8.33177 9.02118 8.15215L11.0001 3.77389L12.979 8.15215C13.0597 8.33177 13.1873 8.48639 13.3483 8.59978C13.5093 8.71317 13.6979 8.78116 13.8942 8.79662L18.2634 9.14305L14.6653 12.3808C14.3529 12.6624 14.2286 13.0957 14.343 13.5004L15.7213 18.323L11.6117 15.5834C11.4313 15.4624 11.219 15.3977 11.0017 15.3977C10.7845 15.3977 10.5722 15.4624 10.3918 15.5834L6.09736 18.4462L7.25237 13.4465C7.29472 13.2626 7.28904 13.071 7.23587 12.8899C7.1827 12.7089 7.08383 12.5445 6.94877 12.4127L3.60695 9.15515L8.10598 8.79662Z" fill="#F3F3F3"/>
</svg>
