<svg width="49" height="48" viewBox="0 0 49 48" fill="none" xmlns="http://www.w3.org/2000/svg">
<path d="M42.2529 24C42.2529 14.2726 34.3615 6.38696 24.6269 6.38696C14.8924 6.38696 7.00098 14.2726 7.00098 24C7.00098 32.7911 13.4465 40.0778 21.8729 41.3991V29.0913H17.3975V24H21.8729V20.1196C21.8729 15.7054 24.5044 13.2671 28.5305 13.2671C30.4583 13.2671 32.476 13.6111 32.476 13.6111V17.9455H30.2535C28.064 17.9455 27.381 19.3033 27.381 20.6976V24H32.2694L31.488 29.0913H27.381V41.3991C35.8074 40.0778 42.2529 32.7911 42.2529 24Z" fill="#1F201E"/>
<path d="M31.4879 29.0913L32.2694 24H27.3809V20.6976C27.3809 19.3047 28.0639 17.9456 30.2534 17.9456H32.4759V13.6111C32.4759 13.6111 30.4589 13.2671 28.5304 13.2671C24.5043 13.2671 21.8728 15.7054 21.8728 20.1197V24H17.3975V29.0913H21.8728V41.3991C23.6977 41.6844 25.556 41.6844 27.3809 41.3991V29.0913H31.4879Z" fill="#F3F3F3"/>
</svg>
