<svg width="49" height="48" viewBox="0 0 49 48" fill="none" xmlns="http://www.w3.org/2000/svg">
<path d="M24.018 9.31347C28.8073 9.31347 29.3745 9.33446 31.2581 9.41842C33.0086 9.49539 33.9538 9.78926 34.584 10.0342C35.4173 10.356 36.0194 10.7478 36.6426 11.3706C37.2728 12.0003 37.6579 12.595 37.98 13.4277C38.2251 14.0574 38.5192 15.009 38.5962 16.7512C38.6802 18.6404 38.7012 19.2071 38.7012 23.986C38.7012 28.7719 38.6802 29.3387 38.5962 31.2208C38.5192 32.9701 38.2251 33.9146 37.98 34.5444C37.6579 35.377 37.2658 35.9787 36.6426 36.6015C36.0124 37.2312 35.4173 37.616 34.584 37.9379C33.9538 38.1828 33.0016 38.4766 31.2581 38.5536C29.3675 38.6376 28.8003 38.6586 24.018 38.6586C19.2286 38.6586 18.6614 38.6376 16.7779 38.5536C15.0274 38.4766 14.0821 38.1828 13.4519 37.9379C12.6187 37.616 12.0165 37.2242 11.3933 36.6015C10.7631 35.9717 10.378 35.377 10.0559 34.5444C9.81085 33.9146 9.51676 32.9631 9.43974 31.2208C9.35572 29.3317 9.33471 28.7649 9.33471 23.986C9.33471 19.2001 9.35572 18.6334 9.43974 16.7512C9.51676 15.002 9.81085 14.0574 10.0559 13.4277C10.378 12.595 10.7701 11.9933 11.3933 11.3706C12.0235 10.7408 12.6187 10.356 13.4519 10.0342C14.0821 9.78926 15.0344 9.49539 16.7779 9.41842C18.6614 9.33446 19.2286 9.31347 24.018 9.31347ZM24.018 6.08789C19.1516 6.08789 18.5424 6.10888 16.6308 6.19284C14.7263 6.27681 13.4169 6.58467 12.2826 7.02548C11.0992 7.48727 10.0979 8.09601 9.10364 9.09657C8.10236 10.0901 7.49318 11.0907 7.03104 12.2662C6.58992 13.4067 6.28183 14.7081 6.1978 16.6113C6.11378 18.5284 6.09277 19.1371 6.09277 24C6.09277 28.8629 6.11378 29.4716 6.1978 31.3818C6.28183 33.2849 6.58992 34.5933 7.03104 35.7268C7.49318 36.9093 8.10236 37.9099 9.10364 38.9034C10.0979 39.897 11.0992 40.5127 12.2756 40.9675C13.4169 41.4083 14.7193 41.7162 16.6238 41.8002C18.5354 41.8841 19.1445 41.9051 24.011 41.9051C28.8774 41.9051 29.4865 41.8841 31.3981 41.8002C33.3026 41.7162 34.612 41.4083 35.7464 40.9675C36.9227 40.5127 37.924 39.897 38.9183 38.9034C39.9126 37.9099 40.5287 36.9093 40.9839 35.7338C41.425 34.5933 41.7331 33.2919 41.8171 31.3888C41.9011 29.4786 41.9221 28.8699 41.9221 24.007C41.9221 19.1441 41.9011 18.5354 41.8171 16.6253C41.7331 14.7221 41.425 13.4137 40.9839 12.2802C40.5427 11.0907 39.9336 10.0901 38.9323 9.09657C37.938 8.103 36.9367 7.48727 35.7604 7.03247C34.619 6.59167 33.3167 6.2838 31.4121 6.19984C29.4935 6.10888 28.8844 6.08789 24.018 6.08789Z" fill="#1F201E"/>
<path d="M24.0182 14.7991C18.9347 14.7991 14.8105 18.9203 14.8105 24C14.8105 29.0798 18.9347 33.201 24.0182 33.201C29.1017 33.201 33.2259 29.0798 33.2259 24C33.2259 18.9203 29.1017 14.7991 24.0182 14.7991ZM24.0182 29.9684C20.7203 29.9684 18.0455 27.2956 18.0455 24C18.0455 20.7045 20.7203 18.0316 24.0182 18.0316C27.3162 18.0316 29.9909 20.7045 29.9909 24C29.9909 27.2956 27.3162 29.9684 24.0182 29.9684Z" fill="#1F201E"/>
<path d="M35.7397 14.4352C35.7397 15.6246 34.7734 16.5832 33.5901 16.5832C32.3997 16.5832 31.4404 15.6176 31.4404 14.4352C31.4404 13.2457 32.4067 12.2871 33.5901 12.2871C34.7734 12.2871 35.7397 13.2527 35.7397 14.4352Z" fill="#1F201E"/>
</svg>
