<svg xmlns="http://www.w3.org/2000/svg" width="30" height="30" viewBox="0 0 30 30"><g><g><path fill="#f3f3f3" d="M11.38 20.336V9.67l9.38 5.333z"/></g><g><g><path fill="#1f201e" d="M.01 2.506A2.505 2.505 0 0 1 2.518 0h25.003a2.508 2.508 0 0 1 2.51 2.506v24.985a2.504 2.504 0 0 1-1.548 2.318c-.304.126-.63.191-.96.191H2.517A2.51 2.51 0 0 1 .01 27.492zm11.883 23.305h4.378v-6.963c0-2.333.86-3.818 2.927-3.818 1.49 0 2.077 1.377 2.077 3.818v6.963h4.376v-7.94c0-4.285-1.024-6.621-5.349-6.621-2.256 0-3.757 1.055-4.344 2.228v-2.04h-4.065zm-7.505-.187h4.377V11.25H4.388zM8.546 4.613a2.816 2.816 0 0 0-4.587 3.044 2.813 2.813 0 0 0 3.71 1.56 2.815 2.815 0 0 0 1.723-2.655 2.812 2.812 0 0 0-.846-1.95z"/></g></g></g></svg>