<svg width="49" height="48" viewBox="0 0 49 48" fill="none" xmlns="http://www.w3.org/2000/svg">
<path d="M17.4994 38.5663C30.7568 38.5663 38.008 27.3572 38.008 17.6367C38.008 17.3184 38.008 17.0014 37.9869 16.6859C39.3976 15.6446 40.6153 14.3553 41.583 12.8783C40.2676 13.4735 38.8721 13.8636 37.4431 14.0357C38.9479 13.1165 40.0741 11.6705 40.612 9.96705C39.1971 10.8239 37.6492 11.4278 36.035 11.7525C34.9483 10.5732 33.5109 9.79232 31.9455 9.53066C30.38 9.269 28.7737 9.54116 27.3751 10.305C25.9765 11.0689 24.8635 12.2819 24.2085 13.7563C23.5535 15.2308 23.3928 16.8844 23.7515 18.4614C20.8858 18.3147 18.0824 17.5546 15.5232 16.2306C12.964 14.9066 10.7062 13.0481 8.89635 10.7759C7.97462 12.3952 7.69231 14.3122 8.10691 16.1366C8.5215 17.9609 9.60183 19.5553 11.1279 20.5953C9.9808 20.561 8.85865 20.2452 7.85645 19.6746V19.7678C7.8569 21.4662 8.43298 23.112 9.48696 24.4263C10.5409 25.7406 12.008 26.6423 13.6392 26.9786C12.578 27.274 11.4646 27.3172 10.3845 27.1048C10.8453 28.5663 11.7421 29.8444 12.9495 30.7603C14.1568 31.6761 15.6145 32.1841 17.1186 32.2132C15.6242 33.412 13.9128 34.2983 12.0823 34.8215C10.2519 35.3447 8.33836 35.4944 6.45117 35.2621C9.74747 37.4208 13.5828 38.5659 17.4994 38.5606" fill="#1F201E"/>
</svg>
