<svg xmlns="http://www.w3.org/2000/svg" viewBox="0 0 39.36 40.81"><defs><style>.cls-1{fill:#020203;}</style></defs><title>Recurso 36</title><g id="Capa_2" data-name="Capa 2"><g id="Capa_1-2" data-name="Capa 1"><path class="cls-1" d="M38.94,21.62a1.34,1.34,0,0,0-.95-.39H36.94a5.57,5.57,0,0,0-5.47-4.77,3,3,0,0,0-.44,0,5.54,5.54,0,0,0-5.46-4.83,4.53,4.53,0,0,0-.84.07,5.5,5.5,0,0,0-4.52,4.12,3.91,3.91,0,0,0-.1.66,6.31,6.31,0,0,0-.87,0A5,5,0,0,0,19,15.43a5.39,5.39,0,0,0-3-3.27A5.48,5.48,0,0,0,8.3,16.5a3.13,3.13,0,0,0-.44,0,5.5,5.5,0,0,0-5.47,4.77h-1A1.34,1.34,0,0,0,0,22.57v2.37a1.33,1.33,0,0,0,.35.91A21.85,21.85,0,0,0,13,37.18v.44c0,.53,0,1.07,0,1.58a1.62,1.62,0,0,0,.37,1.23,1.36,1.36,0,0,0,1,.38h0c1.14,0,2.29,0,3.42,0h3.77c1.1,0,2.21,0,3.33,0a1.34,1.34,0,0,0,1-.37,1.53,1.53,0,0,0,.36-1.17c0-.71,0-1.41,0-2.11A21,21,0,0,0,39,25.89a1.33,1.33,0,0,0,.41-.95V22.57A1.51,1.51,0,0,0,38.94,21.62Zm-35-.4A4,4,0,0,1,7.85,18a3.93,3.93,0,0,1,1,.11,4,4,0,0,1,3,3.14Zm11.82,0a4,4,0,0,1,4.88-3.14h0a4,4,0,0,1,3,3.14Zm-6-4.41a4,4,0,0,1,4-3.63,4,4,0,0,1,1.64.36,3.91,3.91,0,0,1,2.15,2.38,3.5,3.5,0,0,1,.19.9,5.52,5.52,0,0,0-3.55,4.41H13.3A5.46,5.46,0,0,0,9.77,16.82Zm11.81,0a3.6,3.6,0,0,1,.09-.61,4,4,0,0,1,3.27-3h0a4,4,0,0,1,4.59,3.59A5.5,5.5,0,0,0,26,21.23h-.88A5.46,5.46,0,0,0,21.58,16.82Zm6,4.41a4,4,0,0,1,3-3.14,3.79,3.79,0,0,1,.94-.11h0a4,4,0,0,1,3.93,3.25Zm10.28,1.51v2H1.5v-2ZM14.53,39.23c0-.53,0-1.07,0-1.61a20.34,20.34,0,0,0,8.77.29c.5-.09,1-.22,1.47-.34,0,.56,0,1.13,0,1.71-1.13,0-2.25,0-3.38,0H17.69c-1.06,0-2.11,0-3.15,0A.09.09,0,0,1,14.53,39.23ZM23,36.42A19.59,19.59,0,0,1,2.28,26.28H37A19.39,19.39,0,0,1,23,36.42Z"/><path class="cls-1" d="M13.39,10.23a.76.76,0,0,0,.78.74h0a.77.77,0,0,0,.53-.24.78.78,0,0,0,.21-.54,3.84,3.84,0,0,0-1-2.38,3.23,3.23,0,0,1-.84-2.28,3.3,3.3,0,0,1,.79-2.2,4,4,0,0,0,1-2.46.76.76,0,0,0-.75-.78.8.8,0,0,0-.77.74,2.58,2.58,0,0,1-.7,1.55,4.67,4.67,0,0,0-1.13,3.14,4.66,4.66,0,0,0,1.18,3.26A2.35,2.35,0,0,1,13.39,10.23Z"/><path class="cls-1" d="M18.45,10.15a.76.76,0,0,0,1.31.52.77.77,0,0,0,.22-.54A3.69,3.69,0,0,0,19,7.83a3.27,3.27,0,0,1-.85-2.38,2.92,2.92,0,0,1,.71-2A4.14,4.14,0,0,0,20,.75.76.76,0,0,0,18.69.23a.79.79,0,0,0-.22.54,2.67,2.67,0,0,1-.78,1.71,4.38,4.38,0,0,0-1,3,4.69,4.69,0,0,0,1.18,3.35A2.33,2.33,0,0,1,18.45,10.15Z"/><path class="cls-1" d="M23.53,10.29h0a.77.77,0,0,0,.77.75.76.76,0,0,0,.53-.23.74.74,0,0,0,.21-.54,3.86,3.86,0,0,0-1-2.45,3.39,3.39,0,0,1-.69-3.34,3.93,3.93,0,0,1,.76-1.29A3.64,3.64,0,0,0,25,1,.77.77,0,0,0,23.79.38a.75.75,0,0,0-.27.55A2.27,2.27,0,0,1,23,2.23a5.2,5.2,0,0,0-1,1.83,4.9,4.9,0,0,0,1,4.74A2.26,2.26,0,0,1,23.53,10.29Z"/><path class="cls-1" d="M14.21,14.68h0a1.18,1.18,0,0,1,.45-.1h0a.74.74,0,0,1,.69.49.43.43,0,0,0,.78-.37,1.6,1.6,0,0,0-1.45-1h0a2.06,2.06,0,0,0-.83.18.43.43,0,0,0-.2.57A.4.4,0,0,0,14.21,14.68Z"/><path class="cls-1" d="M20.72,18.37h0a2.06,2.06,0,0,0-.83.18.43.43,0,0,0,.37.77h0a.81.81,0,0,1,1.15.39.44.44,0,0,0,.39.24.42.42,0,0,0,.39-.61A1.62,1.62,0,0,0,20.72,18.37Z"/><path class="cls-1" d="M32.32,18.23h0a2.06,2.06,0,0,0-.83.18.43.43,0,0,0,.37.77h0a.8.8,0,0,1,1.15.39.44.44,0,0,0,.39.24.42.42,0,0,0,.39-.61A1.62,1.62,0,0,0,32.32,18.23Z"/><path class="cls-1" d="M26,14.43a.81.81,0,0,1,1.15.39.44.44,0,0,0,.39.24.42.42,0,0,0,.39-.61,1.67,1.67,0,0,0-2.3-.78.43.43,0,0,0-.2.57A.42.42,0,0,0,26,14.43Z"/><path class="cls-1" d="M7.93,18.55h0a.43.43,0,0,0,.37.77.81.81,0,0,1,1.15.39.43.43,0,0,0,.78-.37A1.68,1.68,0,0,0,7.93,18.55Z"/></g></g></svg>