<?xml version="1.0" encoding="utf-8"?>
<!-- Generator: Adobe Illustrator 26.5.0, SVG Export Plug-In . SVG Version: 6.00 Build 0)  -->
<svg version="1.1" id="Capa_1" xmlns="http://www.w3.org/2000/svg" xmlns:xlink="http://www.w3.org/1999/xlink" x="0px" y="0px"
	 viewBox="0 0 45.1 19.1" style="enable-background:new 0 0 45.1 19.1;" xml:space="preserve">
<path d="M45.1,0.5c0-0.3-0.2-0.5-0.5-0.5H0.5C0.2,0,0,0.2,0,0.5v17.3c0,0.3,0.2,0.5,0.5,0.5h0.9v0.2c0,0.3,0.3,0.6,0.6,0.6h41
	c0.3,0,0.6-0.3,0.6-0.6l0-0.2h1c0.1,0,0.2,0,0.3-0.1c0.1-0.1,0.1-0.2,0.1-0.3L45.1,0.5z M44.5,17.4L44.5,17.4L44.4,2.3h0.1
	L44.5,17.4z M44.4,1.7V0.6h0.1L44.4,1.7L44.4,1.7z M2,1.7V0.6h0.2v1.2H2z M2,17.4V2.3h0.2v15.1H2z M2.8,1.7V0.6h1.7v1.2H2.8z
	 M2.8,17.4V2.3h1.7v15.1H2.8z M5,17.4V2.3h11.9l-2.1,15.1H5z M5,1.7V0.6h12.2L17,1.7H5z M27.8,0.6h12.3v1.2H28L27.8,0.6z M29.6,17.4
	H15.4l2.1-15.1h10L29.6,17.4z M40.1,2.3v15.1h-9.9L28.1,2.3H40.1z M17.6,1.7l0.2-1.2h9.5l0.2,1.2H17.6z M40.7,1.7V0.6h1.6v1.2H40.7z
	 M40.7,17.4V2.3h1.6v15.1H40.7z M42.9,1.7V0.6h0.2v1.2H42.9z M42.9,17.4V2.3h0.2v15.1H42.9z M1.9,18h41.1c0,0.1,0,0.1,0,0.2v0.3
	c0,0,0,0,0,0H2c0,0,0,0,0,0v-0.3C2,18.1,2,18,1.9,18z M1.2,1.7V0.6h0.2v1.2H1.2z M1.4,2.3v15.1H1.2V2.3H1.4z M43.9,2.3v15.1h-0.2
	V2.3H43.9z M43.9,0.6v1.2h-0.2V0.6H43.9z M0.6,0.6v1.2H0.6L0.6,0.6L0.6,0.6z M0.6,2.3v15.1H0.6L0.6,2.3L0.6,2.3z"/>
</svg>
