<svg xmlns="http://www.w3.org/2000/svg" viewBox="0 0 37.09 32.64"><defs><style>.cls-1{fill:#020203;fill-rule:evenodd;}</style></defs><title>Recurso 35</title><g id="Capa_2" data-name="Capa 2"><g id="Capa_1-2" data-name="Capa 1"><path class="cls-1" d="M11.86,29.67H25.21a.74.74,0,0,0,0-1.48H11.86a.74.74,0,1,0,0,1.48Z"/><path class="cls-1" d="M16.31,29.67h4.45a.74.74,0,1,0,0-1.48H16.31a.74.74,0,0,0,0,1.48Z"/><path class="cls-1" d="M1.64,20.77H.74A.74.74,0,0,1,0,20v-.74a3,3,0,0,1,3-3H34.12a3,3,0,0,1,3,3V20a.74.74,0,0,1-.74.74h-.9l-2.26,9.06a3.71,3.71,0,0,1-3.6,2.81H7.52a3.71,3.71,0,0,1-3.6-2.81Zm10.22,0H3.17l2.17,8.7A2.23,2.23,0,0,0,7.5,31.16H29.57a2.23,2.23,0,0,0,2.16-1.69l2.17-8.7H25.21a3,3,0,0,1-3,3H14.82a3,3,0,0,1-3-3Zm11.87,0H13.35a1.48,1.48,0,0,0,1.48,1.48h7.42A1.48,1.48,0,0,0,23.73,20.77ZM1.48,19.28H35.6a1.48,1.48,0,0,0-1.48-1.48H3A1.48,1.48,0,0,0,1.48,19.28Z"/><path class="cls-1" d="M3.07,4.45H2.21a.74.74,0,0,1-.74-.74V3a3,3,0,0,1,3-3H32.63a3,3,0,0,1,3,3v.74a.74.74,0,0,1-.74.74H34l-1,5.8a3.71,3.71,0,0,1-3.66,3.1H7.69A3.71,3.71,0,0,1,4,10.25Zm1.51,0L5.51,10A2.23,2.23,0,0,0,7.7,11.87H29.38A2.21,2.21,0,0,0,31.57,10l.93-5.56H23.73a3,3,0,0,1-3,3H16.31a3,3,0,0,1-3-3Zm17.67,0H14.83a1.53,1.53,0,0,0,.43,1,1.48,1.48,0,0,0,1,.43h4.45a1.53,1.53,0,0,0,1-.43,1.49,1.49,0,0,0,.44-1ZM3,3H34.11a1.48,1.48,0,0,0-1.48-1.48H4.44A1.48,1.48,0,0,0,3,3Z"/></g></g></svg>