<svg xmlns="http://www.w3.org/2000/svg" width="374" height="254" viewBox="0 0 187 127"><g><g><g/><g><path fill="#868686" d="M5.28 109.28h3.822c2.738 0 3.878 1.617 3.878 4.02 0 2.19-1.095 4.02-4.314 4.02H6.543v6.166H5.28zm1.274 6.963h2.157c1.688 0 3.006-.764 3.006-2.943 0-2.133-1.072-2.942-3.006-2.942H6.554z"/></g><g><path fill="#868686" d="M17.891 112.68c2.314 0 3.621 1.853 3.621 5.514 0 3.683-1.307 5.536-3.62 5.536-2.314 0-3.622-1.853-3.622-5.536 0-3.661 1.308-5.514 3.621-5.514zm0 10.05c1.33 0 2.358-1.156 2.358-4.536 0-3.37-1.028-4.515-2.358-4.515s-2.358 1.157-2.358 4.515c0 3.38 1.028 4.537 2.358 4.537z"/></g><g><path fill="#868686" d="M23.27 112.916h1.185v1.65h.044c.459-1.179 1.43-1.886 2.66-1.886.134 0 .28.022.414.056v1.19a2.577 2.577 0 0 0-.57-.056c-1.308 0-2.537.955-2.537 3.01v6.603H23.28v-10.567z"/></g><g><path fill="#868686" d="M33.531 112.92h1.185v7.445c0 1.719.57 2.37 1.822 2.37 1.352 0 2.302-1.078 2.302-2.706v-7.109h1.185v10.567h-1.073v-1.47h-.045c-.592 1.167-1.62 1.706-2.694 1.706-1.609 0-2.693-.83-2.693-2.83v-7.973z"/></g><g><path fill="#868686" d="M42.32 112.916h1.073v1.471h.045c.592-1.168 1.62-1.707 2.693-1.707 1.598 0 2.694.831 2.694 2.83v7.985h-1.196v-7.648c0-1.449-.593-2.168-1.8-2.168-1.386 0-2.313 1.079-2.313 2.707v7.109H42.33v-10.58z"/></g><g><path fill="#868686" d="M50.895 116.06c0-2.167 1.028-3.38 3.253-3.38 2.179 0 2.972 1.134 2.972 2.808v6.255c0 .595.202.876.615.876h.335v.876a1.63 1.63 0 0 1-.558.123c-.928 0-1.532-.213-1.532-1.314v-.36h-.033c-.47 1.393-1.542 1.786-2.716 1.786-1.844 0-2.671-1.156-2.671-2.987 0-1.392.637-2.504 2.123-2.93l2.236-.641c.838-.236 1.017-.438 1.017-1.673 0-1.36-.749-1.83-1.822-1.83-1.408 0-2.023.853-2.023 2.391zm4.996 1.46c-.123.36-.793.573-1.274.696l-.995.259c-1.184.314-1.8.932-1.8 2.19 0 1.235.638 2.066 1.666 2.066 1.442 0 2.437-1.09 2.437-2.987v-2.224z"/></g><g><path fill="#868686" d="M63.3 112.92h1.274l2.336 9.22h.045l2.134-9.22h1.263l-2.772 10.579h-1.352z"/></g><g><path fill="#868686" d="M71.73 111.313h1.185v-2.033H71.73zm0 12.173h1.185v-10.567H71.73z"/></g><g><path fill="#868686" d="M80.805 121.745c-.313 1.213-1.33 1.988-2.571 1.988-2.313 0-3.364-1.875-3.364-5.536 0-3.65 1.05-5.514 3.364-5.514 1.308 0 2.202.718 2.459 1.83h.033v-5.233h1.185v14.217h-1.062v-1.752zm-2.381.989c1.207 0 2.291-.618 2.291-4.537 0-3.897-1.095-4.515-2.291-4.515-1.185 0-2.302.618-2.302 4.515 0 3.919 1.117 4.537 2.302 4.537z"/></g><g><path fill="#868686" d="M83.866 116.06c0-2.167 1.029-3.38 3.253-3.38 2.18 0 2.973 1.134 2.973 2.808v6.255c0 .595.2.876.614.876h.336v.876a1.63 1.63 0 0 1-.56.123c-.927 0-1.53-.213-1.53-1.314v-.36h-.045c-.48 1.393-1.542 1.786-2.716 1.786-1.844 0-2.671-1.156-2.671-2.987 0-1.392.637-2.504 2.112-2.93l2.236-.641c.838-.236 1.017-.438 1.017-1.673 0-1.36-.75-1.83-1.822-1.83-1.408 0-2.023.853-2.023 2.391zm5.04 1.46h-.044c-.123.36-.793.573-1.263.696l-.994.259c-1.185.314-1.8.932-1.8 2.19 0 1.235.637 2.066 1.666 2.066 1.441 0 2.436-1.09 2.436-2.987z"/></g><g><path fill="#868686" d="M97.37 112.916h1.073v1.471h.033c.56-1.168 1.51-1.707 2.672-1.707 1.274 0 2.045.775 2.201 1.853h.045c.47-1.168 1.33-1.853 2.671-1.853 1.464 0 2.436.831 2.436 2.729v8.086h-1.184v-7.906c0-1.258-.57-1.91-1.643-1.91-1.185 0-2.135 1.079-2.135 2.707v7.109h-1.196v-7.906c0-1.258-.57-1.91-1.643-1.91-1.184 0-2.145 1.079-2.145 2.707v7.109H97.37z"/></g><g><path fill="#868686" d="M110.654 116.066c0-2.168 1.028-3.38 3.252-3.38 2.18 0 2.973 1.134 2.973 2.807v6.255c0 .595.201.876.615.876h.335v.876a1.629 1.629 0 0 1-.547.124c-.928 0-1.532-.214-1.532-1.314v-.36h-.033c-.48 1.393-1.542 1.786-2.716 1.786-1.844 0-2.671-1.157-2.671-2.987 0-1.393.637-2.505 2.123-2.931l2.236-.64c.827-.236 1.017-.438 1.017-1.674 0-1.359-.75-1.83-1.822-1.83-1.408 0-2.023.853-2.023 2.392zm5.04 1.46h-.044c-.123.36-.794.572-1.263.696l-.995.258c-1.184.315-1.8.932-1.8 2.19 0 1.235.638 2.066 1.666 2.066 1.442 0 2.437-1.089 2.437-2.987zm.291-8.726l-1.945 2.808h-.95l1.487-2.808z"/></g><g><path fill="#868686" d="M120.98 118.238c-1.486-.573-2.022-1.449-2.022-2.505 0-2.167 1.352-3.043 3.129-3.043 1.978 0 2.895 1.01 2.895 2.942v.292h-1.185v-.292c0-1.37-.637-1.954-1.721-1.954-1.386 0-1.922.741-1.922 1.797 0 .741.234 1.314 1.43 1.774l1.721.652c1.43.539 1.967 1.527 1.967 2.684 0 1.808-1.028 3.144-3.252 3.144-2.157 0-3.23-.898-3.23-3.28v-.336h1.196v.28c0 1.55.67 2.348 2.023 2.348 1.263 0 2.079-.719 2.079-1.887 0-.932-.38-1.538-1.431-1.954z"/></g><g><path fill="#868686" d="M131.66 112.916h1.073v1.516h.045c.38-.977 1.251-1.752 2.593-1.752 2.335 0 3.352 1.864 3.352 5.536 0 3.639-1.05 5.514-3.364 5.514-1.307 0-2.201-.718-2.458-1.83h-.045v5.098h-1.196zm3.532.763c-.67 0-1.274.36-1.666.933-.514.73-.67 1.774-.67 3.604 0 3.908 1.084 4.515 2.302 4.515 1.185 0 2.302-.618 2.302-4.515-.01-3.84-1.128-4.537-2.268-4.537z"/></g><g><path fill="#868686" d="M140.57 112.916h1.185v1.65h.044c.459-1.179 1.43-1.886 2.66-1.886.134 0 .28.022.414.056v1.19a2.577 2.577 0 0 0-.57-.056c-1.308 0-2.537.955-2.537 3.01v6.603h-1.185v-10.567z"/></g><g><path fill="#868686" d="M145.865 116.066c0-2.168 1.028-3.38 3.253-3.38 2.179 0 2.972 1.134 2.972 2.807v6.255c0 .595.202.876.615.876h.335v.876c-.223.079-.39.124-.558.124-.928 0-1.52-.214-1.52-1.314v-.36h-.045c-.47 1.393-1.542 1.786-2.716 1.786-1.844 0-2.671-1.157-2.671-2.987 0-1.393.637-2.505 2.112-2.931l2.247-.64c.827-.236 1.006-.438 1.006-1.674 0-1.359-.75-1.83-1.822-1.83-1.408 0-2.023.853-2.023 2.392zm4.996 1.46c-.123.36-.793.572-1.263.696l-.995.258c-1.184.315-1.799.932-1.799 2.19 0 1.235.637 2.066 1.665 2.066 1.442 0 2.437-1.089 2.437-2.987v-2.223zm.335-8.726l-1.944 2.808h-.95l1.486-2.808z"/></g><g><path fill="#868686" d="M160.833 119.99c-.178 2.247-1.408 3.74-3.352 3.74-2.225 0-3.521-1.55-3.521-5.536 0-3.661 1.308-5.514 3.621-5.514 1.978 0 3.13 1.213 3.252 3.38h-1.184c-.134-1.65-.794-2.392-2.068-2.392-1.285 0-2.358.798-2.358 4.537 0 3.976 1.129 4.515 2.235 4.515 1.207 0 1.978-.899 2.18-2.752h1.195z"/></g><g><path fill="#868686" d="M163.012 113.92h-1.442v-.989h1.442V110h1.184v2.931h1.867v.988h-1.867v7.592c0 .83.358 1.111 1.13 1.111.234 0 .48-.044.726-.123v1c-.134.078-.436.123-.827.123-1.61 0-2.224-.438-2.224-1.853v-7.85z"/></g><g><path fill="#868686" d="M167.44 111.313h1.185v-2.033h-1.185zm0 12.173h1.185v-10.567h-1.185z"/></g><g><path fill="#868686" d="M177.325 119.99c-.18 2.247-1.409 3.74-3.353 3.74-2.224 0-3.532-1.55-3.532-5.536 0-3.661 1.308-5.514 3.621-5.514 1.978 0 3.13 1.213 3.252 3.38h-1.184c-.134-1.65-.794-2.392-2.057-2.392-1.285 0-2.358.798-2.358 4.537 0 3.976 1.129 4.515 2.235 4.515 1.207 0 1.979-.899 2.18-2.752h1.196z"/></g><g><path fill="#868686" d="M178.855 116.06c0-2.167 1.029-3.38 3.253-3.38 2.179 0 2.972 1.134 2.972 2.808v6.255c0 .595.202.876.615.876h.335v.876a1.63 1.63 0 0 1-.558.123c-.928 0-1.52-.213-1.52-1.314v-.36h-.045c-.47 1.393-1.542 1.786-2.716 1.786-1.844 0-2.671-1.156-2.671-2.987 0-1.392.637-2.504 2.112-2.93l2.247-.641c.827-.236 1.006-.438 1.006-1.673 0-1.36-.75-1.83-1.822-1.83-1.408 0-2.023.853-2.023 2.391zm4.985 1.46c-.123.36-.794.573-1.274.696l-.995.259c-1.196.314-1.8.932-1.8 2.19 0 1.235.638 2.066 1.666 2.066 1.442 0 2.436-1.09 2.436-2.987v-2.224z"/></g><g><path fill="#1d1d1b" d="M75.18 8.662s-14.519-1.538-12.194 16.8l2.19 16.991s4.27 23.415-24.375 24.493l-.011-8.625s18.597.494 16.172-15.576L54.67 25.563S50.323.42 75.168.06z"/></g><g><path fill="#1d1d1b" d="M38.67 58.261s-3.532.011-5.376.011c-12.193 0-22.33-8.871-24.364-20.54h29.74v-8.646H8.93c2.045-11.68 12.182-20.439 24.364-20.439 1.844 0 5.376.011 5.376.011V0s-3.588.022-5.432.022C14.875.022 0 14.97 0 33.41c0 18.44 14.876 33.51 33.238 33.51 1.855 0 5.443.012 5.443.012v-8.67z"/></g><g><path fill="#1d1d1b" d="M113.865.01H77.33v8.647h13.948v58.239h8.606V8.657h13.981z"/></g><g><path fill="#1d1d1b" d="M141.369 58.383l-9.69-8.86-2.012-1.83-.804-.742-4.124-3.762h-.135v23.73h-8.594V.01h8.226c13.098.011 23.995 9.647 23.995 21.55 0 8.4-5.566 15.666-13.31 19.237l13.958 12.87s-1.553 1.09-3.42 2.224c-1.352.83-4.068 2.493-4.09 2.493zm-16.765-23.818c8.561-.011 15.044-5.211 15.032-13.005 0-7.782-6.482-12.903-15.043-12.903z"/></g><g><path fill="#1d1d1b" d="M168.697.01c-10.115 0-18.307 8.198-18.307 18.159v34.52l8.594-6.265v-1.741a11.904 11.904 0 0 1-2.201-6.918c0-2.583.816-4.963 2.201-6.917v-12.68c0-5.434 4.214-9.5 9.724-9.5s9.678 4.088 9.678 9.5v12.758a11.899 11.899 0 0 1 2.146 6.828c0 2.55-.793 4.896-2.146 6.84v22.302h8.628V18.169C187.004 8.208 178.8.01 168.697.01z"/></g><g><path fill="#1d1d1b" d="M158.984 66.945V60.6c-3.922 2.605-5.8 3.75-8.594 5.334v1.011z"/></g><g><path fill="#e1251b" d="M176.978 32.723c-1.71-2.819-4.806-4.705-8.338-4.683-5.342.034-9.656 4.414-9.622 9.782a9.699 9.699 0 0 0 4.191 7.95c-25.873 21.483-59.156 33.769-94.953 32.23C43.59 76.947 20.701 68.85 1.02 55.924c22.833 16.643 50.416 26.75 80.055 26.57 36.021-.202 68.834-14.24 93.69-37.17a9.31 9.31 0 0 0 .972-.91 9.727 9.727 0 0 0 2.627-6.716c0-1.82-.503-3.515-1.386-4.975z"/></g></g></g></svg>