<svg width="23" height="18" viewBox="0 0 23 18" fill="none" xmlns="http://www.w3.org/2000/svg">
<path d="M1.69813 1.82313C1.1871 2.33417 0.9 3.02728 0.9 3.75V14.25C0.9 14.9727 1.1871 15.6658 1.69813 16.1769C2.20917 16.6879 2.90228 16.975 3.625 16.975H19.375C20.0977 16.975 20.7908 16.6879 21.3019 16.1769C21.8129 15.6658 22.1 14.9727 22.1 14.25V3.75C22.1 3.02728 21.8129 2.33417 21.3019 1.82313C20.7908 1.3121 20.0977 1.025 19.375 1.025H3.625C2.90228 1.025 2.20917 1.3121 1.69813 1.82313ZM2.76763 2.89263C2.99502 2.66525 3.30343 2.5375 3.625 2.5375H19.375C19.6966 2.5375 20.005 2.66525 20.2324 2.89263C20.4598 3.12002 20.5875 3.42843 20.5875 3.75V4.9625H2.4125V3.75C2.4125 3.42843 2.54025 3.12002 2.76763 2.89263ZM2.4125 14.25V7.7875H20.5875V14.25C20.5875 14.5716 20.4598 14.88 20.2324 15.1074C20.005 15.3348 19.6966 15.4625 19.375 15.4625H3.625C3.30343 15.4625 2.99502 15.3348 2.76763 15.1074C2.54025 14.88 2.4125 14.5716 2.4125 14.25Z" fill="#F3F3F3" stroke="#F3F3F3" stroke-width="0.2"/>
<path d="M4.09961 11.3125C4.09961 10.9644 4.23789 10.6306 4.48403 10.3844C4.73017 10.1383 5.06401 10 5.41211 10H6.72461C7.07271 10 7.40655 10.1383 7.65269 10.3844C7.89883 10.6306 8.03711 10.9644 8.03711 11.3125V12.625C8.03711 12.9731 7.89883 13.3069 7.65269 13.5531C7.40655 13.7992 7.07271 13.9375 6.72461 13.9375H5.41211C5.06401 13.9375 4.73017 13.7992 4.48403 13.5531C4.23789 13.3069 4.09961 12.9731 4.09961 12.625V11.3125Z" fill="#F3F3F3"/>
<path d="M4.09961 11.3125C4.09961 10.9644 4.23789 10.6306 4.48403 10.3844C4.73017 10.1383 5.06401 10 5.41211 10H6.72461C7.07271 10 7.40655 10.1383 7.65269 10.3844C7.89883 10.6306 8.03711 10.9644 8.03711 11.3125V12.625C8.03711 12.9731 7.89883 13.3069 7.65269 13.5531C7.40655 13.7992 7.07271 13.9375 6.72461 13.9375H5.41211C5.06401 13.9375 4.73017 13.7992 4.48403 13.5531C4.23789 13.3069 4.09961 12.9731 4.09961 12.625V11.3125Z" stroke="#F3F3F3"/>
</svg>
