<svg xmlns="http://www.w3.org/2000/svg" viewBox="0 0 32.93 37.21"><defs><style>.cls-1{fill:#020203;}</style></defs><title>Recurso 31</title><g id="Capa_2" data-name="Capa 2"><g id="Capa_1-2" data-name="Capa 1"><path class="cls-1" d="M.47,9.09,0,9.13A13.29,13.29,0,0,0,5,16.5c5.38,3.6,8.56,2.84,8.6,2.84l2,1.48c-1.1.51-1.31,1.86-2.37,1.86-.55,0-.85-.34-1.27-.89a2.33,2.33,0,0,0-1.95-1.19,2.38,2.38,0,0,0-1.95,1.19c-.42.55-.72.89-1.27.89a.88.88,0,0,1-.34,0,.44.44,0,0,0-.55.55l3.14,11.1c.47,1.65,2.33,2.84,4.49,2.92h5.89c2.2,0,3.94-1.1,4.41-2.8C26.91,23.48,27,23.18,27,23a.47.47,0,0,0-.51-.3.66.66,0,0,1-.3,0c-1.27,0-1.4-2.08-3.22-2.08s-2,2.08-3.22,2.08c-.55,0-.85-.34-1.27-.89a5.74,5.74,0,0,0-.47-.55,1.83,1.83,0,0,0-.59-.42l2.16-1.48a12.5,12.5,0,0,0,8-2.37,13.76,13.76,0,0,0,5.3-6.87l.13-.47c-.17,0-3.31-.85-8.09,2.29A13.47,13.47,0,0,0,26.7,2.29l-.47.17c-3,1.06-5.68,4.75-6.74,7.67A12.25,12.25,0,0,0,17,.38L16.65,0a12.74,12.74,0,0,0-3,8.14,4.84,4.84,0,0,0,0,.76c-1.1-2.54-3.73-5.59-6.4-6.57L6.73,2.2c0,.3-1.48,4.37,2.33,10C7,10.48,3.31,8.75.47,9.09Zm11.48,8L2.33,10A13.68,13.68,0,0,1,12,17.05Zm3.35,2.46-1.91-1.4A15.17,15.17,0,0,0,11.65,15a9.15,9.15,0,0,0,1.82,1Zm4.07-2.92.13,0a9.66,9.66,0,0,0,1.4-.64,12.48,12.48,0,0,0-1.31,2.42L17.77,19.6ZM5.51,15.78a11.81,11.81,0,0,1-4.28-5.55l11.36,8.31a15.38,15.38,0,0,1-7.08-2.76ZM23.1,34.17c-.38,1.36-1.86,2.2-3.73,2.16H13.61A3.83,3.83,0,0,1,9.92,34l-2.2-7.8c.81-.64,1.06-1.65,2-1.65,1.27,0,1.4,2.08,3.22,2.08s1.91-2.08,3.22-2.08,1.4,2.08,3.22,2.08,1.91-2.08,3.22-2.08c.55,0,.85.34,1.27.89a3.09,3.09,0,0,0,1.31,1.1ZM19.71,23.54c1.82,0,1.91-2.08,3.22-2.08s1.36,1.95,3.09,2.08l-.64,2.2c-.89-.34-1.19-2-2.8-2-1.82,0-1.91,2.08-3.22,2.08s-1.4-2.08-3.22-2.08-1.91,2.08-3.22,2.08-1.4-2.08-3.22-2.08c-1.27,0-1.74,1-2.29,1.61L6.9,23.58C8.64,23.5,8.76,21.5,10,21.5s1.4,2.08,3.22,2.08a2.45,2.45,0,0,0,2-1.19c.38-.51.68-.89,1.27-.89a1.16,1.16,0,0,1,.85.38c.13.13.25.3.42.47a2.45,2.45,0,0,0,2,1.19Zm7.37-7.29a12.89,12.89,0,0,1-6.4,2.29L31.61,11a13.42,13.42,0,0,1-4.53,5.25Zm3.86-5.85-10,7a14.68,14.68,0,0,1,4.28-4.66,13.66,13.66,0,0,1,5.68-2.29ZM20,15.4,26.14,3.92C26.44,8.87,23.6,13.58,20,15.4ZM25.17,4,19.62,14.3A13.54,13.54,0,0,1,25.17,4ZM18.86,15.74,17,19.26V16l0,0a11.87,11.87,0,0,0,2-3.48,10.66,10.66,0,0,0-.08,3.26ZM17,14.59V1.75A11.77,11.77,0,0,1,17,14.59ZM16.1,2.22v12a12.14,12.14,0,0,1-1.65-6A11.82,11.82,0,0,1,16.1,2.22Zm0,13.48v3.52l-2-3.69a11.91,11.91,0,0,0,.25-2.92,12.14,12.14,0,0,0,1.7,3.09ZM12.42,8.37a9.61,9.61,0,0,1,1.1,5.85L8,3.67a12.53,12.53,0,0,1,4.45,4.7ZM7.33,4.3l5.51,10.51A13.44,13.44,0,0,1,7.33,4.3Z"/></g></g></svg>