<?xml version="1.0" encoding="UTF-8"?><svg id="Capa_2" xmlns="http://www.w3.org/2000/svg" viewBox="0 0 104.05 104.05"><defs><style>.cls-1{fill:#ededed;}.cls-2{fill:#fefefe;}.cls-3{fill:#55cd6c;}</style></defs><g id="Layer_1"><g><circle class="cls-3" cx="52.02" cy="52.02" r="52.02"/><g><path class="cls-1" d="M17.7,86.35l4.73-17.16c-3.08-5.33-4.73-11.24-4.73-17.4,0-18.7,15.39-34.08,34.2-34.08s34.44,15.39,34.44,34.08-15.62,34.56-34.44,34.56c-5.92,0-11.6-1.89-16.69-4.73l-17.52,4.73Z"/><path class="cls-3" d="M36.17,75.46l1.07,.59c4.38,2.72,9.47,4.38,14.79,4.38,15.5,0,28.4-12.9,28.4-28.64s-12.9-28.17-28.52-28.17-28.29,12.54-28.29,28.17c0,5.44,1.54,10.77,4.38,15.27l.71,1.07-2.72,9.94,10.18-2.6Z"/><path class="cls-2" d="M42.79,35.93l-2.25-.12c-.71,0-1.42,.24-1.89,.71-1.07,.95-2.84,2.72-3.31,5.09-.83,3.55,.47,7.81,3.55,12.07,3.08,4.26,8.99,11.12,19.41,14.08,3.31,.95,5.92,.36,8.05-.95,1.66-1.07,2.72-2.72,3.08-4.5l.36-1.66c.12-.47-.12-1.07-.59-1.3l-7.46-3.43c-.47-.24-1.07-.12-1.42,.36l-2.96,3.79c-.24,.24-.59,.36-.95,.24-2.01-.71-8.76-3.55-12.43-10.65-.12-.36-.12-.71,.12-.95l2.84-3.2c.24-.36,.36-.83,.24-1.18l-3.43-7.69c-.12-.36-.47-.71-.95-.71"/></g></g></g></svg>