<svg id="Capa_1" data-name="Capa 1" xmlns="http://www.w3.org/2000/svg" viewBox="0 0 733 203"><defs><style>.cls-1{fill:#e63727;}.cls-2{fill:#fff;}.cls-3{fill:#1a4a98;}.cls-3,.cls-5{fill-rule:evenodd;}.cls-4,.cls-5{fill:#f8ea1d;}</style></defs><title>Mesa de trabajo 1</title><path class="cls-1" d="M733,185a17.68,17.68,0,0,1-17.66,17.69H17.5A17.68,17.68,0,0,1-.16,185V18A17.67,17.67,0,0,1,17.5.32H715.33A17.67,17.67,0,0,1,733,18Z"/><path class="cls-2" d="M723.07,181a11.77,11.77,0,0,1-11.77,11.78H21.46A11.78,11.78,0,0,1,9.69,181V22.06A11.77,11.77,0,0,1,21.46,10.29H711.3a11.76,11.76,0,0,1,11.77,11.77Z"/><path class="cls-3" d="M36,24.31H697.14c6.58,0,12,5.1,12,11.33V167.21c0,6.22-5.38,11.33-12,11.33H36c-6.57,0-12-5.1-12-11.33V35.64c0-6.23,5.38-11.33,12-11.33"/><path class="cls-4" d="M167.13,155.26l-13-47h0A14.37,14.37,0,0,0,140.3,97.87H136A30.55,30.55,0,0,0,125.68,38.6H45A7.08,7.08,0,0,0,38,45.65v111.7h0s0,0,0,0A7.09,7.09,0,0,0,45,164.48H69.51a7.09,7.09,0,0,0,7-7.08V79.56a4.25,4.25,0,0,1,4.25-4.25h23.68a4.25,4.25,0,0,1,3,7.26h0l-18,17a19.75,19.75,0,0,0,22.16,32.33,7.07,7.07,0,0,1,9.94,4.58v0l6.23,22.53a7.09,7.09,0,0,0,6.88,5.4h25.74a7.08,7.08,0,0,0,7.08-7.08,7.19,7.19,0,0,0-.32-2.13"/><path class="cls-4" d="M214.44,45.66a7.08,7.08,0,0,0-7-7.05H182.93a7.08,7.08,0,0,0-7,6.7l-.08.07.18,110.8a7.43,7.43,0,0,0-.11,1.23,7.08,7.08,0,0,0,7.06,7.08h24.49a7.08,7.08,0,0,0,7-7.08v0h0Z"/><path class="cls-4" d="M693.11,152.93l-38.63-48.69a4.25,4.25,0,0,1,0-5.47L693.18,50a7.08,7.08,0,0,0-5.57-11.45H654.24a7.1,7.1,0,0,0-5.54,2.92h0L627.81,67.85a4.26,4.26,0,0,1-6.53,0l-20.9-26.34h0a7.07,7.07,0,0,0-5.53-2.92H561.28a7.09,7.09,0,0,0-6.9,7.08A7,7,0,0,0,555.9,50l38.73,48.83a4.21,4.21,0,0,1,.94,2.66,4.16,4.16,0,0,1-.89,2.6L556,152.93a7.08,7.08,0,0,0,5.5,11.55h33.36a7.06,7.06,0,0,0,5.31-2.62h0l21.1-26.6a4.24,4.24,0,0,1,6.61,0l21.08,26.56h0a7,7,0,0,0,5.3,2.62h33.36a7.09,7.09,0,0,0,5.51-11.55"/><path class="cls-5" d="M545.9,157.4a7,7,0,0,0-.78-3.24L491.73,47.67a23.09,23.09,0,0,0-41.48,0h0l-53.39,106.5a7.06,7.06,0,0,0,6,10.31h30.29a7.09,7.09,0,0,0,6.47-4.42l27.52-59.89.11-.22a4.25,4.25,0,0,1,7.47,0l.1.19,12.21,26.45h-8.47a7.08,7.08,0,0,0-6.39,4h0l-11.81,23.54a7.23,7.23,0,0,0-.76,3.21,7.08,7.08,0,0,0,6.73,7.07h72.9v0a7.08,7.08,0,0,0,6.65-7.07"/><path class="cls-4" d="M387.58,45.66h0a7.09,7.09,0,0,0-7.06-7.06H340.21a7.08,7.08,0,0,0-5.85,3.09L308.1,80.63,281.84,41.69h0A7.07,7.07,0,0,0,276,38.6H235.68a7.09,7.09,0,0,0-7.06,7.06V157.4a7.09,7.09,0,0,0,7.06,7.08h24.5a7.08,7.08,0,0,0,7-7.08V96.63l0,0L275,108.21h0l29.59,44h0a4.25,4.25,0,0,0,7.08-.12l29.51-43.89h0L349,96.64h0V157.4a7.08,7.08,0,0,0,7,7.08h24.5a7.08,7.08,0,0,0,7.06-7.08s0,0,0-.05h0Z"/></svg>