<?xml version="1.0" encoding="UTF-8"?><svg xmlns="http://www.w3.org/2000/svg" viewBox="0 0 2156.72 3499.99"><defs><style>.c{fill:#fff;}</style></defs><g id="a"><g><g><path class="c" d="M688.52,1040.17h407.78c99.25,0,229.93,0,297.63,40.88,74.01,44.04,132.22,124.24,132.22,234.36,0,119.49-62.91,209.12-166.85,251.55v3.17c138.61,28.28,214.13,132.1,214.13,270.51,0,165.05-118.11,322.35-341.67,322.35H688.52V1040.17Zm149.5,482.78h299.33c169.99,0,239.34-61.33,239.34-179.29,0-155.7-110.18-177.67-239.34-177.67h-299.33v356.96Zm0,514.22h374.87c129.08,0,211-78.61,211-201.25,0-146.28-118.11-187.17-244.14-187.17h-341.73v388.41Z"/><path class="c" d="M1955.88,1602.05c0,471.71-382.82,854.09-855.23,854.09S245.59,2073.76,245.59,1602.05s382.85-853.97,855.07-853.97,855.23,382.32,855.23,853.97m-855.23-984.23c-543.94,0-984.93,440.44-984.93,983.75s440.99,983.75,984.93,983.75,985.12-440.47,985.12-983.75-441.01-983.75-985.12-983.75"/></g><rect class="c" x="117.76" y="2792.83" width="1966" height="129.08"/><path class="c" d="M2022.26,2650.74c2.41,0,4.7-.12,6.86-.25,1.99-.1,4.05-.57,5.67-1.29,1.74-.85,3.08-1.96,4.03-3.4,1.04-1.59,1.42-3.59,1.42-6.4,0-2.28-.38-4.19-1.31-5.4-.86-1.46-2.05-2.42-3.46-3.11-1.45-.85-2.93-1.31-4.83-1.65-1.83-.12-3.56-.31-5.42-.31h-14.11v21.81h11.16Zm4.7-30.44c8.19,0,14.17,1.62,18.1,4.79,3.96,3.34,5.99,8.18,5.99,14.78,0,6.22-1.84,10.62-5.18,13.63-3.56,2.82-7.8,4.54-13.04,5.11l19.67,30.13h-11.36l-18.77-29.49h-11.26v29.49h-10.79v-68.45h26.66Zm-48.33,53.9c2.31,6.21,5.7,11.54,10.12,16.04,4.25,4.45,9.41,8.02,15.4,10.6,5.8,2.53,12.33,3.68,19.08,3.68s13.3-1.15,19.07-3.68c5.84-2.59,10.95-6.15,15.4-10.6,4.21-4.5,7.68-9.83,10.08-16.04,2.53-6.03,3.78-12.71,3.78-19.76s-1.26-13.58-3.78-19.69c-2.39-6.13-5.87-11.33-10.08-15.83-4.44-4.38-9.55-7.87-15.4-10.46-5.77-2.47-12.15-3.84-19.07-3.84s-13.28,1.37-19.08,3.84c-5.99,2.59-11.15,6.08-15.4,10.46-4.43,4.5-7.81,9.7-10.12,15.83-2.51,6.11-3.72,12.5-3.72,19.69s1.21,13.73,3.72,19.76m-9.73-43.02c3.15-7.07,7.42-13.04,12.75-18.43,5.36-5.27,11.69-9.2,18.87-12.27,7.1-3.02,14.84-4.38,22.7-4.38s15.76,1.36,23.02,4.38c7.01,3.07,13.19,7,18.46,12.27,5.32,5.39,9.73,11.36,12.74,18.43,3.26,7.16,4.73,14.91,4.73,23.25s-1.47,16.17-4.73,23.22c-3.01,7.26-7.42,13.39-12.74,18.68-5.27,5.42-11.45,9.36-18.46,12.39-7.26,2.91-14.83,4.34-23.02,4.34s-15.6-1.43-22.7-4.34c-7.19-3.02-13.51-6.97-18.87-12.39-5.33-5.29-9.6-11.42-12.75-18.68-3.29-7.05-4.6-14.8-4.6-23.22s1.31-16.1,4.6-23.25"/><polygon class="c" points="377.85 99.43 377.85 162.83 196.76 162.83 196.76 236.35 362.98 236.35 362.98 294.93 196.76 294.93 196.76 379.02 381.71 379.02 381.71 442.43 121.3 442.43 121.3 99.43 377.85 99.43"/><g><path class="c" d="M491.71,194.06v33.64h.93c8.98-12.84,19.79-22.71,32.45-29.78,12.66-7.07,27.12-10.6,43.47-10.6s30.02,3.07,42.99,9.17c12.97,6.06,22.86,16.78,29.53,32.16,7.39-10.85,17.37-20.51,30.03-28.83,12.66-8.33,27.65-12.5,44.91-12.5,13.12,0,25.3,1.61,36.53,4.85,11.19,3.2,20.79,8.31,28.8,15.38,8.02,7,14.26,16.21,18.76,27.58,4.47,11.38,6.7,25.08,6.7,41.1v166.19h-68.2v-140.75c0-8.33-.32-16.17-.96-23.52-.64-7.41-2.41-13.8-5.27-19.25-2.89-5.43-7.14-9.74-12.77-12.94-5.61-3.23-13.16-4.82-22.8-4.82s-17.38,1.83-23.3,5.54c-5.93,3.68-10.57,8.5-13.95,14.4-3.34,5.93-5.59,12.65-6.75,20.17-1.09,7.52-1.64,15.15-1.64,22.81v138.35h-68.24v-139.3c0-7.36-.16-14.65-.45-21.87-.34-7.2-1.69-13.83-4.08-19.92-2.42-6.06-6.43-10.97-12-14.65-5.62-3.71-13.91-5.54-24.77-5.54-3.2,0-7.46,.7-12.71,2.18-5.3,1.42-10.44,4.15-15.35,8.14-5.01,4.03-9.24,9.79-12.75,17.32-3.55,7.55-5.27,17.38-5.27,29.53v144.11h-68.24V194.06h64.39Z"/><path class="c" d="M915.9,194.06v31.71h.94c8.37-13.45,18.91-23.21,31.74-29.31,12.83-6.08,26.91-9.13,42.27-9.13,19.54,0,36.35,3.74,50.44,11.04,14.06,7.41,25.78,17.16,35.08,29.3,9.28,12.21,16.15,26.38,20.68,42.53,4.45,16.17,6.69,33.07,6.69,50.71,0,16.65-2.24,32.64-6.69,48.01-4.53,15.37-11.32,28.98-20.46,40.85-9.11,11.85-20.46,21.33-34.09,28.32-13.6,7.07-29.56,10.57-47.79,10.57-15.37,0-29.55-3.11-42.55-9.38-12.97-6.25-23.6-15.44-31.94-27.61h-.93v117.71h-68.23V194.06h64.85Zm88.63,196.95c7.52-4.47,13.61-10.33,18.27-17.5,4.63-7.22,7.92-15.64,9.84-25.24,1.88-9.58,2.89-19.38,2.89-29.3s-1.05-19.72-3.15-29.3c-2.1-9.61-5.49-18.21-10.31-25.72-4.82-7.49-10.97-13.58-18.49-18.26-7.54-4.62-16.74-6.94-27.63-6.94s-20.58,2.32-28.1,6.94c-7.54,4.67-13.63,10.66-18.26,18.07-4.63,7.35-7.92,15.82-9.84,25.41-1.91,9.63-2.91,19.56-2.91,29.8s1.08,19.72,3.15,29.3c2.09,9.6,5.42,18.02,10.09,25.24,4.62,7.17,10.81,13.03,18.49,17.5,7.7,4.51,16.99,6.73,27.85,6.73s20.58-2.22,28.1-6.73"/><path class="c" d="M1199.81,194.06v46.11h.96c3.18-7.68,7.49-14.8,12.97-21.4,5.43-6.54,11.68-12.15,18.71-16.78,7.07-4.63,14.61-8.24,22.6-10.79,8-2.59,16.34-3.89,24.96-3.89,4.51,0,9.46,.83,14.9,2.42v63.44c-3.2-.64-7.04-1.23-11.51-1.72-4.5-.44-8.82-.7-12.97-.7-12.5,0-23.09,2.09-31.71,6.25-8.65,4.18-15.61,9.83-20.9,17.05-5.3,7.2-9.06,15.61-11.28,25.21-2.25,9.6-3.36,20.04-3.36,31.21v111.94h-68.23V194.06h64.85Z"/><path class="c" d="M1386.21,382.85c10.24,9.93,24.98,14.88,44.17,14.88,13.77,0,25.62-3.4,35.55-10.31,9.95-6.91,16.01-14.14,18.27-21.85h60.06c-9.63,29.8-24.38,51.08-44.21,63.87-19.85,12.84-43.91,19.19-72.05,19.19-19.53,0-37.16-3.07-52.84-9.35-15.7-6.24-28.98-15.09-39.86-26.64-10.91-11.52-19.31-25.28-25.24-41.31-5.92-16.01-8.9-33.62-8.9-52.86s3.04-35.86,9.13-51.88c6.09-15.98,14.72-29.86,25.96-41.58,11.19-11.64,24.6-20.89,40.12-27.62,15.51-6.66,32.75-10.08,51.63-10.08,21.15,0,39.54,4.12,55.24,12.28,15.69,8.15,28.6,19.16,38.68,32.86,10.09,13.8,17.37,29.5,21.88,47.12,4.47,17.6,6.05,36.05,4.79,55.23h-179.18c.92,22.13,6.53,38.12,16.8,48.04m77.11-130.65c-8.18-8.98-20.6-13.45-37.23-13.45-10.91,0-19.94,1.83-27.15,5.55-7.22,3.67-12.99,8.24-17.28,13.69-4.32,5.42-7.39,11.22-9.13,17.26-1.8,6.11-2.82,11.55-3.11,16.33h110.96c-3.23-17.29-8.9-30.41-17.06-39.38"/><path class="c" d="M1646.33,380.68c3.04,5.27,6.98,9.63,11.79,13,4.78,3.37,10.3,5.83,16.56,7.43,6.24,1.59,12.69,2.42,19.43,2.42,4.83,0,9.87-.57,15.15-1.71,5.3-1.11,10.08-2.91,14.42-5.26,4.32-2.41,7.92-5.61,10.81-9.65,2.89-3.97,4.34-9.04,4.34-15.12,0-10.25-6.84-17.91-20.42-23.05-13.61-5.08-32.59-10.22-56.94-15.35-9.96-2.28-19.65-4.92-29.08-7.95-9.44-3.05-17.85-7.04-25.21-12.02-7.38-4.94-13.29-11.22-17.79-18.71-4.48-7.57-6.7-16.78-6.7-27.64,0-15.99,3.14-29.15,9.35-39.38,6.25-10.27,14.52-18.36,24.77-24.28,10.23-5.92,21.73-10.09,34.57-12.49,12.79-2.41,25.94-3.61,39.38-3.61s26.51,1.3,39.17,3.84c12.63,2.57,23.93,6.89,33.87,12.97,9.9,6.06,18.14,14.14,24.73,24.25,6.54,10.08,10.46,22.83,11.79,38.2h-64.87c-.96-13.12-5.94-22.01-14.9-26.64-8.97-4.67-19.53-6.97-31.71-6.97-3.84,0-7.99,.22-12.49,.7-4.47,.48-8.56,1.52-12.23,3.13-3.71,1.64-6.82,3.93-9.39,6.98-2.56,3.02-3.83,7.14-3.83,12.21,0,6.12,2.23,11.09,6.72,14.91,4.47,3.86,10.33,6.98,17.51,9.39,7.22,2.37,15.48,4.56,24.74,6.49,9.29,1.9,18.73,3.96,28.34,6.25,9.95,2.21,19.63,4.97,29.09,8.15,9.44,3.23,17.84,7.43,25.23,12.75,7.33,5.26,13.28,11.86,17.78,19.66,4.45,7.9,6.7,17.54,6.7,29.07,0,16.33-3.27,30.06-9.83,41.09-6.56,11.03-15.13,19.92-25.71,26.69-10.59,6.68-22.67,11.42-36.27,14.14-13.64,2.76-27.45,4.06-41.57,4.06s-28.5-1.45-42.27-4.28c-13.79-2.92-26.03-7.7-36.74-14.43-10.74-6.73-19.54-15.6-26.45-26.66-6.88-11.03-10.65-24.9-11.29-41.56h64.88c0,7.36,1.5,13.69,4.56,18.96"/><path class="c" d="M1856.01,230.54c7.03-10.56,16.01-19,26.91-25.44,10.88-6.38,23.12-10.94,36.75-13.67,13.61-2.73,27.31-4.1,41.1-4.1,12.46,0,25.11,.89,37.92,2.66,12.84,1.77,24.49,5.21,35.07,10.34,10.57,5.14,19.21,12.26,25.94,21.38,6.75,9.13,10.11,21.19,10.11,36.28v129.18c0,11.23,.63,21.95,1.91,32.24,1.28,10.22,3.51,17.92,6.73,23.03h-69.18c-1.29-3.86-2.32-7.76-3.11-11.77-.82-4.03-1.4-8.08-1.71-12.26-10.9,11.22-23.7,19.06-38.41,23.53-14.74,4.51-29.78,6.75-45.19,6.75-11.84,0-22.87-1.43-33.14-4.32-10.24-2.88-19.22-7.39-26.88-13.5-7.71-6.05-13.71-13.74-18.01-23.03-4.34-9.29-6.49-20.32-6.49-33.16,0-14.07,2.46-25.68,7.42-34.81,4.97-9.1,11.38-16.43,19.24-21.84,7.86-5.43,16.77-9.54,26.89-12.28,10.09-2.73,20.26-4.89,30.5-6.49,10.27-1.58,20.35-2.86,30.26-3.83,9.92-.95,18.74-2.4,26.44-4.32,7.68-1.91,13.76-4.75,18.24-8.38,4.47-3.71,6.56-9.04,6.25-16.13,0-7.36-1.2-13.23-3.61-17.54-2.37-4.32-5.61-7.68-9.62-10.09-3.97-2.38-8.65-3.99-13.92-4.79-5.27-.8-10.99-1.2-17.03-1.2-13.47,0-24.04,2.88-31.71,8.63-7.68,5.77-12.17,15.38-13.47,28.85h-68.23c.96-16.02,4.97-29.31,12.02-39.92m134.76,96.37c-4.32,1.43-8.97,2.61-13.92,3.56-4.98,.99-10.18,1.8-15.64,2.44-5.4,.64-10.85,1.43-16.32,2.35-5.13,.99-10.15,2.29-15.12,3.84-5,1.64-9.29,3.83-13,6.51-3.65,2.73-6.63,6.19-8.87,10.31-2.23,4.16-3.37,9.49-3.37,15.89,0,6.05,1.14,11.19,3.37,15.34,2.24,4.19,5.29,7.48,9.11,9.86,3.83,2.41,8.33,4.1,13.45,5.05,5.1,.98,10.41,1.45,15.86,1.45,13.45,0,23.85-2.26,31.23-6.72,7.36-4.47,12.79-9.87,16.33-16.13,3.52-6.19,5.68-12.52,6.48-18.93,.77-6.4,1.2-11.55,1.2-15.38v-25.47c-2.89,2.54-6.52,4.57-10.81,6.02"/><path class="c" d="M309.57,3147.48c-3.68-5.92-8.22-11.03-13.73-15.48-5.51-4.44-11.71-7.96-18.64-10.43-6.95-2.48-14.21-3.74-21.79-3.74-13.86,0-25.65,2.72-35.33,8.02-9.68,5.4-17.54,12.58-23.53,21.63-6.05,9.03-10.43,19.32-13.19,30.79-2.73,11.52-4.1,23.47-4.1,35.79s1.37,23.21,4.1,34.28c2.76,11.16,7.14,21.19,13.19,30.07,5.99,8.91,13.85,16.02,23.53,21.38,9.68,5.35,21.47,8.06,35.33,8.06,18.83,0,33.56-5.78,44.17-17.29,10.57-11.48,17.08-26.67,19.41-45.53h59.7c-1.61,17.51-5.64,33.38-12.18,47.5-6.56,14.14-15.21,26.17-25.93,36.11-10.74,9.95-23.31,17.54-37.68,22.76-14.37,5.21-30.21,7.87-47.48,7.87-21.46,0-40.77-3.74-57.92-11.19-17.15-7.48-31.61-17.75-43.37-30.86-11.79-13.04-20.81-28.41-27.09-46.08-6.27-17.66-9.42-36.69-9.42-57.08s3.16-40.4,9.42-58.35c6.28-17.91,15.31-33.52,27.09-46.87,11.76-13.36,26.22-23.78,43.37-31.39,17.15-7.6,36.46-11.36,57.92-11.36,15.45,0,30.02,2.19,43.77,6.6,13.75,4.48,26,10.97,36.88,19.44,10.87,8.53,19.84,19.05,26.86,31.64,7.11,12.53,11.55,26.9,13.37,43.16h-59.64c-1.05-7.07-3.43-13.57-7.08-19.44"/><path class="c" d="M466.6,3304.29c8.37,8.12,20.42,12.2,36.11,12.2,11.25,0,20.93-2.86,29.04-8.46,8.14-5.64,13.1-11.58,14.91-17.85h49.08c-7.84,24.33-19.91,41.7-36.09,52.2-16.27,10.46-35.87,15.7-58.89,15.7-15.96,0-30.35-2.56-43.2-7.65-12.83-5.13-23.66-12.37-32.54-21.79-8.95-9.42-15.76-20.67-20.62-33.76-4.85-13.09-7.25-27.5-7.25-43.19s2.44-29.31,7.45-42.34c4.95-13.13,12.02-24.42,21.19-33.99,9.16-9.54,20.08-17.12,32.76-22.57,12.68-5.52,26.77-8.24,42.21-8.24,17.25,0,32.3,3.33,45.13,9.98,12.82,6.7,23.36,15.67,31.59,26.89,8.27,11.26,14.2,24.1,17.86,38.47,3.65,14.4,4.98,29.48,3.96,45.13h-146.43c.77,18.07,5.33,31.14,13.73,39.26m62.98-106.76c-6.65-7.35-16.8-10.98-30.43-10.98-8.88,0-16.27,1.48-22.17,4.51-5.86,3.02-10.59,6.72-14.11,11.19-3.54,4.43-6.03,9.16-7.48,14.11-1.43,4.97-2.29,9.44-2.53,13.38h90.66c-2.64-14.11-7.27-24.87-13.95-32.21"/><path class="c" d="M669.52,3150.03v37.68h.82c2.6-6.28,6.15-12.11,10.59-17.45,4.44-5.38,9.57-9.98,15.32-13.76,5.73-3.75,11.89-6.76,18.43-8.81,6.56-2.1,13.35-3.14,20.4-3.14,3.68,0,7.71,.63,12.17,1.93v51.81c-2.63-.5-5.74-.96-9.41-1.36-3.67-.39-7.22-.57-10.62-.57-10.21,0-18.84,1.71-25.88,5.1-7.08,3.42-12.77,8.02-17.08,13.93-4.34,5.87-7.39,12.77-9.24,20.61-1.84,7.87-2.75,16.36-2.75,25.5v91.51h-55.75v-202.98h52.99Z"/><path class="c" d="M895.88,3150.03v37.28h-40.83v100.54c0,9.38,1.58,15.64,4.72,18.83,3.13,3.14,9.41,4.69,18.84,4.69,3.14,0,6.13-.12,9.04-.39,2.88-.25,5.58-.63,8.22-1.15v43.21c-4.72,.73-9.95,1.24-15.7,1.52-5.76,.25-11.39,.41-16.85,.41-8.65,0-16.83-.6-24.55-1.77-7.71-1.18-14.52-3.48-20.42-6.85-5.87-3.45-10.53-8.31-13.9-14.56-3.43-6.27-5.13-14.55-5.13-24.7v-119.76h-33.76v-37.28h33.76v-60.84h55.74v60.84h40.83Z"/></g><path class="c" d="M924.16,3072.7h55.71v45.97h-55.71v-45.97Zm55.72,280.25h-55.71v-202.93h55.71v202.93Z"/><path class="c" d="M1002.65,3187.31v-37.28h33.35v-15.7c0-18.05,5.64-32.84,16.89-44.34,11.28-11.52,28.23-17.31,51.02-17.31,4.97,0,9.96,.23,14.93,.61,4.95,.41,9.8,.7,14.52,.96v41.63c-6.54-.8-13.35-1.17-20.39-1.17-7.61,0-13.06,1.74-16.29,5.27-3.29,3.55-4.92,9.52-4.92,17.86v12.18h38.46v37.28h-38.46v165.64h-55.75v-165.64h-33.35Z"/><path class="c" d="M1156.12,3072.7h55.72v45.97h-55.72v-45.97Zm55.74,280.25h-55.72v-202.93h55.72v202.93Z"/><g><path class="c" d="M1337.08,3186.52c-8.9,0-16.34,2.07-22.35,6.11-6.05,4.05-10.94,9.3-14.72,15.69-3.8,6.43-6.5,13.51-8.08,21.21-1.56,7.74-2.35,15.38-2.35,22.98s.79,14.77,2.35,22.38c1.58,7.6,4.15,14.47,7.67,20.58,3.51,6.16,8.27,11.17,14.33,15.15,6.02,3.91,13.32,5.9,21.97,5.9,13.35,0,23.63-3.75,30.83-11.2,7.19-7.45,11.69-17.45,13.53-30.05h53.78c-3.67,26.98-14.09,47.49-31.39,61.61-17.29,14.14-39.41,21.22-66.34,21.22-15.21,0-29.14-2.56-41.83-7.65-12.69-5.13-23.47-12.23-32.35-21.41-8.91-9.13-15.83-20.1-20.84-32.78-4.95-12.66-7.45-26.61-7.45-41.8s2.29-30.29,6.88-43.73c4.57-13.48,11.29-25.17,20.2-34.97,8.9-9.79,19.79-17.48,32.6-22.95,12.84-5.52,27.46-8.24,43.95-8.24,12.05,0,23.65,1.55,34.73,4.72,11.13,3.14,21.08,7.89,29.86,14.31,8.75,6.4,15.89,14.37,21.38,23.95,5.48,9.55,8.63,20.86,9.42,33.93h-54.57c-3.67-23.28-17.38-34.95-41.2-34.95"/><path class="c" d="M1465.05,3179.86c5.73-8.65,13.06-15.54,21.98-20.8,8.85-5.24,18.87-8.95,30-11.17,11.14-2.26,22.33-3.33,33.55-3.33,10.24,0,20.57,.7,31.04,2.15,10.46,1.43,20.01,4.25,28.64,8.41,8.68,4.18,15.7,10.03,21.21,17.47,5.48,7.49,8.24,17.37,8.24,29.67v105.57c0,9.16,.5,17.95,1.56,26.34,1.08,8.34,2.88,14.64,5.51,18.78h-56.53c-1.04-3.14-1.9-6.31-2.53-9.6-.7-3.24-1.13-6.57-1.39-10.02-8.92,9.17-19.38,15.6-31.42,19.27-12.04,3.64-24.32,5.49-36.91,5.49-9.69,0-18.7-1.15-27.07-3.55-8.38-2.35-15.7-6-22-11.03-6.27-4.92-11.16-11.2-14.72-18.8-3.51-7.57-5.27-16.61-5.27-27.08,0-11.52,2.02-20.99,6.06-28.44,4.07-7.49,9.32-13.41,15.72-17.89,6.41-4.47,13.72-7.77,21.94-10.01,8.3-2.19,16.59-3.97,24.96-5.3,8.41-1.34,16.62-2.37,24.73-3.14,8.12-.79,15.32-1.96,21.59-3.53,6.29-1.55,11.26-3.84,14.9-6.88,3.71-3.01,5.41-7.39,5.13-13.09,0-6.05-.96-10.84-2.94-14.36-1.96-3.55-4.6-6.32-7.86-8.24-3.27-1.97-7.07-3.3-11.38-3.96-4.32-.63-8.94-.95-13.93-.95-11,0-19.65,2.32-25.94,7.04-6.27,4.7-9.92,12.58-10.98,23.55h-55.72c.79-13.1,4.06-23.94,9.83-32.57m110.07,78.71c-3.52,1.18-7.3,2.15-11.36,2.94-4.06,.82-8.31,1.42-12.75,1.94-4.46,.57-8.91,1.21-13.35,1.97-4.19,.8-8.31,1.87-12.36,3.17-4.06,1.3-7.61,3.08-10.63,5.3-2.97,2.21-5.4,5.01-7.26,8.4-1.81,3.42-2.73,7.74-2.73,12.98,0,4.97,.92,9.17,2.73,12.55,1.86,3.42,4.32,6.09,7.47,8.05,3.14,1.96,6.82,3.34,11.01,4.12,4.18,.79,8.5,1.17,12.94,1.17,11,0,19.49-1.81,25.52-5.48,6.02-3.67,10.46-8.08,13.38-13.15,2.85-5.08,4.63-10.25,5.29-15.53,.61-5.21,.96-9.39,.96-12.55v-20.83c-2.35,2.15-5.32,3.77-8.85,4.94"/><path class="c" d="M1811.25,3327.07c-6.54,11-15.09,18.89-25.72,23.78-10.56,4.81-22.55,7.26-35.92,7.26-15.16,0-28.53-2.98-40.04-8.85-11.53-5.87-20.99-13.91-28.44-23.97-7.45-10.08-13.12-21.62-16.89-34.75-3.78-13.09-5.68-26.64-5.68-40.81s1.9-26.73,5.68-39.44c3.77-12.66,9.44-23.88,16.89-33.58,7.45-9.68,16.8-17.43,28.07-23.34,11.23-5.89,24.35-8.81,39.23-8.81,12.05,0,23.49,2.51,34.34,7.65,10.88,5.07,19.44,12.62,25.72,22.57h.79v-102.1h55.75v280.27h-53.02v-25.88h-.77Zm-2.32-100.3c-1.58-7.71-4.27-14.5-8.08-20.4-3.78-5.89-8.69-10.66-14.72-14.36-5.99-3.62-13.6-5.48-22.77-5.48s-16.85,1.85-23.15,5.48c-6.28,3.7-11.32,8.53-15.12,14.55-3.78,6-6.56,12.93-8.24,20.64-1.68,7.73-2.54,15.72-2.54,24.1,0,7.9,.89,15.75,2.75,23.59,1.84,7.83,4.78,14.81,8.82,21.02,4.07,6.13,9.16,11.12,15.31,14.88,6.16,3.8,13.54,5.71,22.17,5.71,9.17,0,16.84-1.85,22.98-5.54,6.15-3.65,11.06-8.56,14.74-14.71,3.64-6.15,6.28-13.13,7.86-20.99,1.53-7.89,2.32-15.99,2.32-24.33s-.79-16.46-2.32-24.16"/><path class="c" d="M1906.09,3179.86c5.74-8.65,13.07-15.54,21.98-20.8,8.88-5.24,18.9-8.95,30.02-11.17,11.14-2.26,22.32-3.33,33.58-3.33,10.2,0,20.54,.7,31,2.15,10.46,1.43,20.02,4.25,28.66,8.41,8.63,4.18,15.72,10.03,21.21,17.47,5.49,7.49,8.22,17.37,8.22,29.67v105.57c0,9.16,.53,17.95,1.58,26.34,1.04,8.34,2.88,14.64,5.52,18.78h-56.54c-1.05-3.14-1.91-6.31-2.56-9.6-.67-3.24-1.13-6.57-1.39-10.02-8.9,9.17-19.35,15.6-31.39,19.27-12.02,3.64-24.33,5.49-36.9,5.49-9.69,0-18.71-1.15-27.08-3.55-8.4-2.35-15.72-6-22-11.03-6.28-4.92-11.19-11.2-14.71-18.8-3.52-7.57-5.3-16.61-5.3-27.08,0-11.52,2.01-20.99,6.09-28.44,4.06-7.49,9.28-13.41,15.7-17.89,6.38-4.47,13.73-7.77,21.97-10.01,8.25-2.19,16.55-3.97,24.95-5.3,8.36-1.34,16.59-2.37,24.7-3.14,8.15-.79,15.34-1.96,21.6-3.53,6.3-1.55,11.23-3.84,14.91-6.88,3.68-3.01,5.38-7.39,5.1-13.09,0-6.05-.96-10.84-2.95-14.36-1.94-3.55-4.56-6.32-7.86-8.24-3.21-1.97-7.01-3.3-11.35-3.96-4.32-.63-8.97-.95-13.92-.95-11,0-19.67,2.32-25.96,7.04-6.27,4.7-9.92,12.58-10.97,23.55h-55.74c.8-13.1,4.03-23.94,9.82-32.57m110.1,78.71c-3.55,1.18-7.33,2.15-11.38,2.94-4.08,.82-8.34,1.42-12.77,1.94-4.44,.57-8.88,1.21-13.32,1.97-4.21,.8-8.34,1.87-12.37,3.17-4.06,1.3-7.61,3.08-10.62,5.3-3,2.21-5.43,5.01-7.27,8.4-1.83,3.42-2.73,7.74-2.73,12.98,0,4.97,.91,9.17,2.73,12.55,1.84,3.42,4.35,6.09,7.48,8.05,3.14,1.96,6.79,3.34,10.98,4.12,4.19,.79,8.49,1.17,12.97,1.17,10.99,0,19.5-1.81,25.5-5.48,6.02-3.67,10.46-8.08,13.34-13.15,2.91-5.08,4.63-10.25,5.32-15.53,.63-5.21,.96-9.39,.96-12.55v-20.83c-2.35,2.15-5.29,3.77-8.82,4.94"/></g></g></g><g id="b"/></svg>