<svg width="136" height="40" viewBox="0 0 136 40" fill="none" xmlns="http://www.w3.org/2000/svg">
<path fill-rule="evenodd" clip-rule="evenodd" d="M123.493 0.5H12.2754C5.57043 0.5 0.372925 5.81604 0.372925 12.3082V39.5H123.47C130.175 39.5 135.373 34.184 135.373 27.6918V12.3082C135.373 5.81604 130.198 0.5 123.493 0.5ZM13.4679 23.7165C14.7729 25.1984 16.9329 26.3275 18.8229 26.3275C20.9379 26.3275 22.1979 25.0808 22.1979 24.0929C22.1979 22.9168 21.3204 22.2817 19.9704 22.0229L17.9004 21.623C13.1079 20.7057 11.7579 19.0826 11.7579 16.5422C11.7579 13.5078 14.1879 10.7087 18.4629 10.7087C20.8254 10.7087 22.8954 11.4614 25.2354 13.1785L23.1429 15.8836C21.3429 14.2841 19.7679 13.8842 18.5529 13.8842C16.9554 13.8842 15.4254 14.684 15.4254 16.1423C15.4254 17.2244 16.2354 17.7654 17.6529 18.0241L21.3429 18.7533C24.3804 19.3414 25.8654 20.8468 25.8654 23.5048C25.8654 26.1158 23.8179 29.503 18.6429 29.503C15.7404 29.503 13.2879 28.4445 10.9479 26.3745L13.4679 23.7165ZM41.6604 26.8215H41.7279V29.0091H45.3729V11.1556H41.7054V13.3197H41.6379C40.6929 11.7907 38.7579 10.6616 36.2154 10.6616C30.6804 10.6616 27.1929 15.6954 27.1929 20.0706C27.1929 24.6809 30.4554 29.4795 36.0579 29.4795C38.3754 29.4795 40.4904 28.4445 41.6604 26.8215ZM36.5079 25.9276C39.3879 25.9276 41.8629 23.3402 41.8629 20.1411C41.8629 16.9421 39.3879 14.3546 36.5079 14.3546C33.5379 14.3546 31.0854 16.9421 31.0854 20.1411C31.0854 23.3402 33.5379 25.9276 36.5079 25.9276ZM47.8704 17.8124C47.8704 13.2726 50.7729 10.6616 54.1029 10.6616C56.6679 10.6616 58.5579 11.9554 59.2104 13.8372H59.2779C59.9529 11.9554 61.8204 10.6616 64.3854 10.6616C67.7379 10.6616 70.6404 13.2726 70.6404 17.8124V28.9855H66.9729V17.8595C66.9729 15.7189 65.6679 14.4958 64.1379 14.4958C62.3829 14.4958 61.0779 15.6013 61.0779 18.377V28.9855H57.4104V18.377C57.4104 15.6013 56.1054 14.4958 54.3504 14.4958C52.8429 14.4958 51.5379 15.7189 51.5379 17.8595V28.9855H47.8704V17.8124ZM84.6354 21.1291V11.1321H88.3029V21.4584C88.3029 26.4686 84.5679 29.456 80.5179 29.456C76.7154 29.456 73.2054 26.8215 72.7779 22.3758C72.7554 22.07 72.7329 21.7642 72.7329 21.4584V11.1321H76.4004V21.1291C76.4004 23.7401 78.2229 25.6218 80.5179 25.6218C82.8129 25.6218 84.6354 23.7401 84.6354 21.1291ZM90.5979 11.1321H94.0629V13.0609H94.1304C94.7379 11.579 95.9979 10.6381 97.4829 10.6381C98.2929 10.6381 98.9904 10.8498 99.4854 11.2027L98.1804 14.9897C97.8204 14.7075 97.1679 14.4723 96.8079 14.4723C95.4579 14.4723 94.2654 15.5308 94.2654 17.1538V28.962H90.5979V11.1321ZM112.94 26.7744H112.985V28.962H116.653V11.1086H112.985V13.2726H112.918C111.973 11.7672 110.038 10.6146 107.495 10.6146C101.96 10.6146 98.4729 15.6248 98.4729 20.0235C98.4729 24.6339 101.735 29.4324 107.338 29.4324C109.655 29.4324 111.77 28.3975 112.94 26.7744ZM107.788 25.8335C110.69 25.8335 113.165 23.2461 113.165 20.047C113.165 16.848 110.69 14.2606 107.788 14.2606C104.818 14.2606 102.365 16.848 102.365 20.047C102.365 23.2461 104.84 25.8335 107.788 25.8335ZM123.02 0.523524H119.353V7.81544H123.02V0.523524ZM119.353 11.1086H123.02V28.962H119.353V11.1086Z" fill="#ABABAB"/>
</svg>
